999
Inkscape export via OpenSCAD DXF Export
  0
SECTION
  2
HEADER
  9
$ACADVER
  1
AC1014
  9
$HANDSEED
  5
FFFF
  9
$MEASUREMENT
 70
     1
  0
ENDSEC
  0
SECTION
  2
TABLES
  0
TABLE
  2
VPORT
  5
8
330
0
100
AcDbSymbolTable
 70
     4
  0
VPORT
  5
2E
330
8
100
AcDbSymbolTableRecord
100
AcDbViewportTableRecord
  2
*ACTIVE
 70
     0
 10
0.0
 20
0.0
 11
1.0
 21
1.0
 12
210.0
 22
148.5
 13
0.0
 23
0.0
 14
10.0
 24
10.0
 15
10.0
 25
10.0
 16
0.0
 26
0.0
 36
1.0
 17
0.0
 27
0.0
 37
0.0
 40
341.0
 41
1.24
 42
50.0
 43
0.0
 44
0.0
 50
0.0
 51
0.0
 71
     0
 72
   100
 73
     1
 74
     3
 75
     0
 76
     0
 77
     0
 78
     0
  0
ENDTAB
  0
TABLE
  2
LTYPE
  5
5
330
0
100
AcDbSymbolTable
 70
     1
  0
LTYPE
  5
14
330
5
100
AcDbSymbolTableRecord
100
AcDbLinetypeTableRecord
  2
BYBLOCK
 70
     0
  3

 72
    65
 73
     0
 40
0.0
  0
LTYPE
  5
15
330
5
100
AcDbSymbolTableRecord
100
AcDbLinetypeTableRecord
  2
BYLAYER
 70
     0
  3

 72
    65
 73
     0
 40
0.0
  0
LTYPE
  5
16
330
5
100
AcDbSymbolTableRecord
100
AcDbLinetypeTableRecord
  2
CONTINUOUS
 70
     0
  3
Solid line
 72
    65
 73
     0
 40
0.0
  0
ENDTAB
  0
TABLE
0
TABLE
2
LAYER
5
2
330
0
100
AcDbSymbolTable
70
1
0
LAYER
5
10
330
2
100
AcDbSymbolTableRecord
100
AcDbLayerTableRecord
2
Layer_1
70
0
62
7
6
CONTINUOUS
0
ENDTAB
0
ENDSEC
  0
ENDTAB
  0
TABLE
  2
STYLE
  5
3
330
0
100
AcDbSymbolTable
 70
     1
  0
STYLE
  5
11
330
3
100
AcDbSymbolTableRecord
100
AcDbTextStyleTableRecord
  2
STANDARD
 70
     0
 40
0.0
 41
1.0
 50
0.0
 71
     0
 42
2.5
  3
txt
  4

  0
ENDTAB
  0
TABLE
  2
VIEW
  5
6
330
0
100
AcDbSymbolTable
 70
     0
  0
ENDTAB
  0
TABLE
  2
UCS
  5
7
330
0
100
AcDbSymbolTable
 70
     0
  0
ENDTAB
  0
TABLE
  2
APPID
  5
9
330
0
100
AcDbSymbolTable
 70
     2
  0
APPID
  5
12
330
9
100
AcDbSymbolTableRecord
100
AcDbRegAppTableRecord
  2
ACAD
 70
     0
  0
ENDTAB
  0
TABLE
  2
DIMSTYLE
  5
A
330
0
100
AcDbSymbolTable
 70
     1
  0
DIMSTYLE
105
27
330
A
100
AcDbSymbolTableRecord
100
AcDbDimStyleTableRecord
  2
ISO-25
 70
     0
  3

  4

  5

  6

  7

 40
1.0
 41
2.5
 42
0.625
 43
3.75
 44
1.25
 45
0.0
 46
0.0
 47
0.0
 48
0.0
140
2.5
141
2.5
142
0.0
143
0.03937007874016
144
1.0
145
0.0
146
1.0
147
0.625
 71
     0
 72
     0
 73
     0
 74
     0
 75
     0
 76
     0
 77
     1
 78
     8
170
     0
171
     3
172
     1
173
     0
174
     0
175
     0
176
     0
177
     0
178
     0
270
     2
271
     2
272
     2
273
     2
274
     3
340
11
275
     0
280
     0
281
     0
282
     0
283
     0
284
     8
285
     0
286
     0
287
     3
288
     0
  0
ENDTAB
  0
TABLE
  2
BLOCK_RECORD
  5
1
330
0
100
AcDbSymbolTable
 70
     1
  0
BLOCK_RECORD
  5
1F
330
1
100
AcDbSymbolTableRecord
100
AcDbBlockTableRecord
  2
*MODEL_SPACE
  0
BLOCK_RECORD
  5
1B
330
1
100
AcDbSymbolTableRecord
100
AcDbBlockTableRecord
  2
*PAPER_SPACE
  0
ENDTAB
  0
ENDSEC
  0
SECTION
  2
BLOCKS
  0
BLOCK
  5
20
330
1F
100
AcDbEntity
  8
0
100
AcDbBlockBegin
  2
*MODEL_SPACE
 70
     0
 10
0.0
 20
0.0
 30
0.0
  3
*MODEL_SPACE
  1

  0
ENDBLK
  5
21
330
1F
100
AcDbEntity
  8
0
100
AcDbBlockEnd
  0
BLOCK
  5
1C
330
1B
100
AcDbEntity
 67
     1
  8
0
100
AcDbBlockBegin
  2
*PAPER_SPACE
  1

  0
ENDBLK
  5
1D
330
1B
100
AcDbEntity
 67
     1
  8
0
100
AcDbBlockEnd
  0
ENDSEC
  0
SECTION
  2
ENTITIES
0
DIMENSION
5
83
100
AcDbEntity
62
256
370
-1
6
ByLayer
1
total_width
3
Standard
70
0
71
5
72
1
41
1.0
100
AcDbAlignedDimension
13
0.000000
23
0.000000
33
0.0
14
93.999950
24
0.000000
34
0.0
50
0.000000
100
AcDbRotatedDimension
0
DIMENSION
5
83
100
AcDbEntity
62
256
370
-1
6
ByLayer
1
total_minx
3
Standard
70
0
71
5
72
1
41
1.0
100
AcDbAlignedDimension
13
0.000000
23
0.000000
33
0.0
14
0.000000
24
0.000000
34
0.0
50
0.000000
100
AcDbRotatedDimension
0
DIMENSION
5
83
100
AcDbEntity
62
256
370
-1
6
ByLayer
1
total_maxx
3
Standard
70
0
71
5
72
1
41
1.0
100
AcDbAlignedDimension
13
0.000000
23
0.000000
33
0.0
14
93.999950
24
0.000000
34
0.0
50
0.000000
100
AcDbRotatedDimension
0
DIMENSION
5
83
100
AcDbEntity
62
256
370
-1
6
ByLayer
1
total_height
3
Standard
70
0
71
5
72
1
41
1.0
100
AcDbAlignedDimension
13
0.000000
23
0.000000
33
0.0
14
0.000000
24
93.999940
34
0.0
50
90.000000
100
AcDbRotatedDimension
0
DIMENSION
5
83
100
AcDbEntity
62
256
370
-1
6
ByLayer
1
total_miny
3
Standard
70
0
71
5
72
1
41
1.0
100
AcDbAlignedDimension
13
0.000000
23
0.000000
33
0.0
14
0.000000
24
0.000000
34
0.0
50
0.000000
100
AcDbRotatedDimension
0
DIMENSION
5
83
100
AcDbEntity
62
256
370
-1
6
ByLayer
1
total_maxy
3
Standard
70
0
71
5
72
1
41
1.0
100
AcDbAlignedDimension
13
0.000000
23
0.000000
33
0.0
14
93.999940
24
0.000000
34
0.0
50
0.000000
100
AcDbRotatedDimension
0
DIMENSION
8
Layer_1
5
83
100
AcDbEntity
62
256
370
-1
6
ByLayer
1
Layer_1_width
3
Standard
70
0
71
5
72
1
41
1.0
100
AcDbAlignedDimension
13
0.000000
23
0.000000
33
0.0
14
93.999950
24
0.000000
34
0.0
50
0.000000
100
AcDbRotatedDimension
0
DIMENSION
8
Layer_1
5
83
100
AcDbEntity
62
256
370
-1
6
ByLayer
1
Layer_1_minx
3
Standard
70
0
71
5
72
1
41
1.0
100
AcDbAlignedDimension
13
0.000000
23
0.000000
33
0.0
14
0.000000
24
0.000000
34
0.0
50
0.000000
100
AcDbRotatedDimension
0
DIMENSION
8
Layer_1
5
83
100
AcDbEntity
62
256
370
-1
6
ByLayer
1
Layer_1_maxx
3
Standard
70
0
71
5
72
1
41
1.0
100
AcDbAlignedDimension
13
0.000000
23
0.000000
33
0.0
14
93.999950
24
0.000000
34
0.0
50
0.000000
100
AcDbRotatedDimension
0
DIMENSION
8
Layer_1
5
83
100
AcDbEntity
62
256
370
-1
6
ByLayer
1
Layer_1_height
3
Standard
70
0
71
5
72
1
41
1.0
100
AcDbAlignedDimension
13
0.000000
23
0.000000
33
0.0
14
0.000000
24
93.999940
34
0.0
50
90.000000
100
AcDbRotatedDimension
0
DIMENSION
8
Layer_1
5
83
100
AcDbEntity
62
256
370
-1
6
ByLayer
1
Layer_1_miny
3
Standard
70
0
71
5
72
1
41
1.0
100
AcDbAlignedDimension
13
0.000000
23
0.000000
33
0.0
14
0.000000
24
0.000000
34
0.0
50
0.000000
100
AcDbRotatedDimension
0
DIMENSION
8
Layer_1
5
83
100
AcDbEntity
62
256
370
-1
6
ByLayer
1
Layer_1_maxy
3
Standard
70
0
71
5
72
1
41
1.0
100
AcDbAlignedDimension
13
0.000000
23
0.000000
33
0.0
14
93.999940
24
0.000000
34
0.0
50
0.000000
100
AcDbRotatedDimension
62
0
0
LWPOLYLINE
100
AcDbPolyline
8
Layer_1
90
7
70
0
10
0.000000
20
93.999940
30
0.0
10
0.000000
20
0.000000
30
0.0
10
33.945730
20
0.000000
30
0.0
10
60.052670
20
0.000000
30
0.0
10
93.999950
20
0.000000
30
0.0
10
93.999950
20
93.999940
30
0.0
10
0.000000
20
93.999940
30
0.0
62
0
0
LWPOLYLINE
100
AcDbPolyline
8
Layer_1
90
8
70
0
10
2.185920
20
91.813510
30
0.0
10
12.326380
20
91.813510
30
0.0
10
28.431340
20
63.918060
30
0.0
10
28.097000
20
62.777560
30
0.0
10
24.214646
20
61.859874
30
0.0
10
20.412190
20
60.803520
30
0.0
10
2.185920
20
79.029800
30
0.0
10
2.185920
20
91.813510
30
0.0
62
0
0
LWPOLYLINE
100
AcDbPolyline
8
Layer_1
90
23
70
0
10
13.990880
20
91.813510
30
0.0
10
30.548520
20
91.813510
30
0.0
10
34.807180
20
75.918880
30
0.0
10
32.485904
20
75.567256
30
0.0
10
29.980090
20
75.006270
30
0.0
10
29.485501
20
74.660317
30
0.0
10
29.427441
20
74.121539
30
0.0
10
29.734071
20
73.674761
30
0.0
10
30.333550
20
73.604810
30
0.0
10
32.885712
20
74.166753
30
0.0
10
35.189070
20
74.493120
30
0.0
10
35.439700
20
73.558810
30
0.0
10
33.882690
20
72.285510
30
0.0
10
33.855790
20
72.310810
30
0.0
10
33.352980
20
72.514410
30
0.0
10
32.934105
20
72.384092
30
0.0
10
32.682659
20
72.063086
30
0.0
10
32.640153
20
71.657685
30
0.0
10
32.848100
20
71.274180
30
0.0
10
30.733616
20
68.634821
30
0.0
10
29.851205
20
67.182278
30
0.0
10
29.095360
20
65.650230
30
0.0
10
13.990880
20
91.813510
30
0.0
62
0
0
LWPOLYLINE
100
AcDbPolyline
8
Layer_1
90
12
70
0
10
32.038360
20
91.813510
30
0.0
10
46.278320
20
91.813510
30
0.0
10
46.278320
20
77.327580
30
0.0
10
44.458573
20
77.177045
30
0.0
10
42.689910
20
76.863820
30
0.0
10
40.979770
20
76.395675
30
0.0
10
39.335590
20
75.780380
30
0.0
10
37.980524
20
75.978110
30
0.0
10
36.539890
20
76.027400
30
0.0
10
36.539360
20
76.027400
30
0.0
10
36.270650
20
76.019400
30
0.0
10
32.038360
20
91.813510
30
0.0
62
0
0
LWPOLYLINE
100
AcDbPolyline
8
Layer_1
90
11
70
0
10
47.719050
20
91.813510
30
0.0
10
61.959530
20
91.813510
30
0.0
10
57.727740
20
76.018610
30
0.0
10
57.458510
20
76.027610
30
0.0
10
56.014521
20
75.978191
30
0.0
10
54.656610
20
75.779560
30
0.0
10
53.013678
20
76.394819
30
0.0
10
51.304796
20
76.863087
30
0.0
10
49.537431
20
77.176650
30
0.0
10
47.719050
20
77.327790
30
0.0
10
47.719050
20
91.813510
30
0.0
62
0
0
LWPOLYLINE
100
AcDbPolyline
8
Layer_1
90
23
70
0
10
63.451430
20
91.813510
30
0.0
10
80.009070
20
91.813510
30
0.0
10
64.897850
20
65.639400
30
0.0
10
64.142401
20
67.173058
30
0.0
10
63.260235
20
68.627241
30
0.0
10
61.145620
20
71.269550
30
0.0
10
61.357583
20
71.653427
30
0.0
10
61.316879
20
72.060466
30
0.0
10
61.065490
20
72.383268
30
0.0
10
60.645400
20
72.514430
30
0.0
10
60.142590
20
72.310830
30
0.0
10
60.111090
20
72.281330
30
0.0
10
58.558210
20
73.552050
30
0.0
10
58.810390
20
74.493080
30
0.0
10
61.112990
20
74.166331
30
0.0
10
63.664350
20
73.604240
30
0.0
10
64.263846
20
73.674191
30
0.0
10
64.570483
20
74.120978
30
0.0
10
64.512420
20
74.659763
30
0.0
10
64.017820
20
75.005710
30
0.0
10
61.512785
20
75.566643
30
0.0
10
59.192280
20
75.918310
30
0.0
10
63.451430
20
91.813510
30
0.0
62
0
0
LWPOLYLINE
100
AcDbPolyline
8
Layer_1
90
8
70
0
10
81.670470
20
91.813510
30
0.0
10
91.813000
20
91.813510
30
0.0
10
91.813000
20
79.031350
30
0.0
10
73.585690
20
60.804040
30
0.0
10
69.778411
20
61.861566
30
0.0
10
65.891070
20
62.780140
30
0.0
10
65.560340
20
63.907720
30
0.0
10
81.670470
20
91.813510
30
0.0
62
0
0
LWPOLYLINE
100
AcDbPolyline
8
Layer_1
90
9
70
0
10
2.185920
20
76.995300
30
0.0
10
18.864480
20
60.316210
30
0.0
10
17.361220
20
59.803060
30
0.0
10
15.491389
20
59.041788
30
0.0
10
13.520209
20
58.034958
30
0.0
10
11.617967
20
56.816120
30
0.0
10
9.954950
20
55.418830
30
0.0
10
2.185920
20
59.904350
30
0.0
10
2.185920
20
76.995300
30
0.0
62
0
0
LWPOLYLINE
100
AcDbPolyline
8
Layer_1
90
9
70
0
10
91.813000
20
76.994300
30
0.0
10
91.813000
20
59.903870
30
0.0
10
84.043970
20
55.418350
30
0.0
10
82.380910
20
56.815791
30
0.0
10
80.478538
20
58.034771
30
0.0
10
78.507184
20
59.041720
30
0.0
10
76.637180
20
59.803070
30
0.0
10
75.134440
20
60.315700
30
0.0
10
91.813000
20
76.994300
30
0.0
62
0
0
LWPOLYLINE
100
AcDbPolyline
8
Layer_1
90
20
70
0
10
46.994030
20
76.476470
30
0.0
10
50.238190
20
76.194884
30
0.0
10
53.299590
20
75.384030
30
0.0
10
51.697273
20
74.560169
30
0.0
10
50.295864
20
73.376197
30
0.0
10
49.104925
20
71.822840
30
0.0
10
48.134020
20
69.890820
30
0.0
10
48.108220
20
69.813820
30
0.0
10
47.109310
20
69.922340
30
0.0
10
46.999240
20
69.917340
30
0.0
10
46.889170
20
69.922340
30
0.0
10
45.890260
20
69.813820
30
0.0
10
45.863960
20
69.890820
30
0.0
10
44.892296
20
71.824182
30
0.0
10
43.700365
20
73.378330
30
0.0
10
42.297676
20
74.562540
30
0.0
10
40.693740
20
75.386090
30
0.0
10
43.752724
20
76.195467
30
0.0
10
46.994130
20
76.476470
30
0.0
10
46.994030
20
76.476470
30
0.0
62
0
0
LWPOLYLINE
100
AcDbPolyline
8
Layer_1
90
4
70
0
10
36.658230
20
74.572190
30
0.0
10
36.967260
20
74.571190
30
0.0
10
36.701120
20
74.412030
30
0.0
10
36.658230
20
74.572190
30
0.0
62
0
0
LWPOLYLINE
100
AcDbPolyline
8
Layer_1
90
5
70
0
10
57.340170
20
74.572190
30
0.0
10
57.295770
20
74.406830
30
0.0
10
57.021890
20
74.571160
30
0.0
10
57.340210
20
74.572160
30
0.0
10
57.340170
20
74.572190
30
0.0
62
0
0
LWPOLYLINE
100
AcDbPolyline
8
Layer_1
90
17
70
0
10
38.537180
20
74.452820
30
0.0
10
39.447720
20
74.268330
30
0.0
10
41.041512
20
73.654613
30
0.0
10
42.404822
20
72.670205
30
0.0
10
43.558369
20
71.254832
30
0.0
10
44.522870
20
69.348220
30
0.0
10
44.571470
20
69.250020
30
0.0
10
43.863697
20
68.631447
30
0.0
10
43.316441
20
67.893077
30
0.0
10
42.620680
20
66.272420
30
0.0
10
42.311660
20
66.408330
30
0.0
10
39.841389
20
67.617141
30
0.0
10
37.950680
20
68.738420
30
0.0
10
34.517300
20
71.699480
30
0.0
10
36.432316
20
73.204259
30
0.0
10
38.537210
20
74.452800
30
0.0
10
38.537180
20
74.452820
30
0.0
62
0
0
LWPOLYLINE
100
AcDbPolyline
8
Layer_1
90
17
70
0
10
55.452950
20
74.451820
30
0.0
10
57.559604
20
73.201697
30
0.0
10
59.475960
20
71.694880
30
0.0
10
56.047740
20
68.738470
30
0.0
10
54.156773
20
67.617195
30
0.0
10
51.686250
20
66.408380
30
0.0
10
51.377740
20
66.272470
30
0.0
10
50.681980
20
67.893131
30
0.0
10
50.134727
20
68.631498
30
0.0
10
49.426960
20
69.250070
30
0.0
10
49.475560
20
69.348270
30
0.0
10
50.440061
20
71.254692
30
0.0
10
51.593606
20
72.670086
30
0.0
10
52.956913
20
73.654600
30
0.0
10
54.550700
20
74.268380
30
0.0
10
55.452970
20
74.451830
30
0.0
10
55.452950
20
74.451820
30
0.0
62
0
0
LWPOLYLINE
100
AcDbPolyline
8
Layer_1
90
11
70
0
10
33.477030
20
70.685640
30
0.0
10
35.226930
20
69.103581
30
0.0
10
37.103160
20
67.565930
30
0.0
10
38.927309
20
66.460382
30
0.0
10
41.172170
20
65.345910
30
0.0
10
29.049390
20
62.986370
30
0.0
10
29.809682
20
65.122386
30
0.0
10
30.812843
20
67.129307
30
0.0
10
32.041187
20
68.989578
30
0.0
10
33.477030
20
70.685640
30
0.0
10
33.477030
20
70.685640
30
0.0
62
0
0
LWPOLYLINE
100
AcDbPolyline
8
Layer_1
90
11
70
0
10
60.515690
20
70.680640
30
0.0
10
61.949774
20
68.985786
30
0.0
10
63.176741
20
67.127075
30
0.0
10
64.178928
20
65.122009
30
0.0
10
64.938670
20
62.988090
30
0.0
10
52.826230
20
65.345560
30
0.0
10
55.070835
20
66.460029
30
0.0
10
56.894720
20
67.565580
30
0.0
10
58.767215
20
69.100059
30
0.0
10
60.515690
20
70.680640
30
0.0
10
60.515690
20
70.680640
30
0.0
62
0
0
LWPOLYLINE
100
AcDbPolyline
8
Layer_1
90
19
70
0
10
91.813000
20
58.241090
30
0.0
10
91.813000
20
45.951400
30
0.0
10
83.957670
20
43.846620
30
0.0
10
83.910282
20
44.598933
30
0.0
10
83.720470
20
45.340580
30
0.0
10
83.159781
20
46.539606
30
0.0
10
82.432180
20
47.570940
30
0.0
10
80.773399
20
49.358527
30
0.0
10
79.036010
20
50.864790
30
0.0
10
79.616330
20
51.199660
30
0.0
10
85.178780
20
49.710860
30
0.0
10
85.434398
20
49.719192
30
0.0
10
85.633679
20
49.868464
30
0.0
10
85.890668
20
50.414697
30
0.0
10
86.030410
20
51.272000
30
0.0
10
85.998331
20
52.058441
30
0.0
10
85.805920
20
52.829217
30
0.0
10
85.005670
20
54.311090
30
0.0
10
91.813000
20
58.241090
30
0.0
62
0
0
LWPOLYLINE
100
AcDbPolyline
8
Layer_1
90
19
70
0
10
2.185920
20
58.239090
30
0.0
10
8.992220
20
54.309610
30
0.0
10
8.192375
20
52.828224
30
0.0
10
8.000043
20
52.057727
30
0.0
10
7.967990
20
51.271560
30
0.0
10
8.107744
20
50.414256
30
0.0
10
8.364734
20
49.868020
30
0.0
10
8.564011
20
49.718745
30
0.0
10
8.819620
20
49.710410
30
0.0
10
14.380520
20
51.198690
30
0.0
10
14.961880
20
50.863310
30
0.0
10
13.225570
20
49.357409
30
0.0
10
11.567770
20
47.570490
30
0.0
10
10.840172
20
46.539156
30
0.0
10
10.279480
20
45.340130
30
0.0
10
10.089660
20
44.598483
30
0.0
10
10.042280
20
43.846170
30
0.0
10
2.185920
20
45.951530
30
0.0
10
2.185920
20
58.239090
30
0.0
62
0
0
LWPOLYLINE
100
AcDbPolyline
8
Layer_1
90
13
70
0
10
38.228680
20
57.715600
30
0.0
10
37.335710
20
55.106460
30
0.0
10
36.915866
20
52.709156
30
0.0
10
36.919684
20
51.619046
30
0.0
10
37.103680
20
50.616300
30
0.0
10
36.666500
20
50.445250
30
0.0
10
34.770490
20
50.128470
30
0.0
10
32.809890
20
49.793610
30
0.0
10
33.800972
20
51.908545
30
0.0
10
35.000840
20
53.881611
30
0.0
10
37.745500
20
57.578150
30
0.0
10
38.228680
20
57.715600
30
0.0
10
38.228680
20
57.715600
30
0.0
62
0
0
LWPOLYLINE
100
AcDbPolyline
8
Layer_1
90
13
70
0
10
55.770760
20
57.715600
30
0.0
10
56.254450
20
57.578150
30
0.0
10
58.999111
20
53.881600
30
0.0
10
60.198977
20
51.908510
30
0.0
10
61.190070
20
49.793610
30
0.0
10
59.229460
20
50.128470
30
0.0
10
57.333450
20
50.445250
30
0.0
10
56.896270
20
50.616300
30
0.0
10
57.080156
20
51.619046
30
0.0
10
57.083799
20
52.709156
30
0.0
10
56.663730
20
55.106460
30
0.0
10
55.770760
20
57.715600
30
0.0
10
55.770760
20
57.715600
30
0.0
62
0
0
LWPOLYLINE
100
AcDbPolyline
8
Layer_1
90
11
70
0
10
38.949050
20
57.698000
30
0.0
10
40.250260
20
57.519200
30
0.0
10
40.355680
20
57.589000
30
0.0
10
40.322580
20
57.358530
30
0.0
10
39.982550
20
56.289860
30
0.0
10
39.148469
20
54.230434
30
0.0
10
37.737720
20
51.208510
30
0.0
10
37.691516
20
52.904080
30
0.0
10
38.060700
20
54.918880
30
0.0
10
38.949020
20
57.698040
30
0.0
10
38.949050
20
57.698000
30
0.0
62
0
0
LWPOLYLINE
100
AcDbPolyline
8
Layer_1
90
10
70
0
10
55.050910
20
57.698000
30
0.0
10
55.939220
20
54.918840
30
0.0
10
56.308400
20
52.904041
30
0.0
10
56.262200
20
51.208480
30
0.0
10
54.851460
20
54.230399
30
0.0
10
54.017380
20
56.289820
30
0.0
10
53.674250
20
57.370380
30
0.0
10
53.642750
20
57.588970
30
0.0
10
53.748170
20
57.519170
30
0.0
10
55.050910
20
57.698000
30
0.0
62
0
0
LWPOLYLINE
100
AcDbPolyline
8
Layer_1
90
8
70
0
10
36.521290
20
57.230330
30
0.0
10
34.884033
20
55.025216
30
0.0
10
33.376780
20
52.668850
30
0.0
10
33.410380
20
54.040350
30
0.0
10
33.830055
20
55.160434
30
0.0
10
34.914680
20
56.775060
30
0.0
10
36.521300
20
57.230330
30
0.0
10
36.521290
20
57.230330
30
0.0
62
0
0
LWPOLYLINE
100
AcDbPolyline
8
Layer_1
90
8
70
0
10
57.479180
20
57.229800
30
0.0
10
59.085800
20
56.774530
30
0.0
10
60.170339
20
55.160252
30
0.0
10
60.590100
20
54.040330
30
0.0
10
60.623200
20
52.668840
30
0.0
10
59.116196
20
55.024931
30
0.0
10
57.479210
20
57.229800
30
0.0
10
57.479180
20
57.229800
30
0.0
62
0
0
LWPOLYLINE
100
AcDbPolyline
8
Layer_1
90
20
70
0
10
32.509650
20
56.106360
30
0.0
10
28.379849
20
52.798324
30
0.0
10
24.508070
20
49.313490
30
0.0
10
23.648390
20
49.249774
30
0.0
10
22.797361
20
49.039418
30
0.0
10
21.139970
20
48.251644
30
0.0
10
19.573314
20
47.095880
30
0.0
10
18.134810
20
45.717840
30
0.0
10
15.994265
20
43.103355
30
0.0
10
14.673530
20
40.934670
30
0.0
10
13.574370
20
41.505180
30
0.0
10
13.601251
20
42.642040
30
0.0
10
13.742320
20
43.294220
30
0.0
10
14.535030
20
45.124080
30
0.0
10
18.386082
20
47.998920
30
0.0
10
22.447254
20
50.701894
30
0.0
10
26.684103
20
53.261406
30
0.0
10
31.062190
20
55.705860
30
0.0
10
32.509650
20
56.106360
30
0.0
10
32.509650
20
56.106360
30
0.0
62
0
0
LWPOLYLINE
100
AcDbPolyline
8
Layer_1
90
20
70
0
10
61.490820
20
56.105830
30
0.0
10
62.938800
20
55.705330
30
0.0
10
67.316599
20
53.260994
30
0.0
10
71.553182
20
50.701594
30
0.0
10
75.614105
20
47.998747
30
0.0
10
79.464920
20
45.124070
30
0.0
10
80.257640
20
43.294210
30
0.0
10
80.398689
20
42.642026
30
0.0
10
80.425580
20
41.505170
30
0.0
10
79.325910
20
40.934660
30
0.0
10
78.005490
20
43.103368
30
0.0
10
75.865140
20
45.717860
30
0.0
10
74.426718
20
47.095902
30
0.0
10
72.860240
20
48.251675
30
0.0
10
71.203028
20
49.039453
30
0.0
10
70.352058
20
49.249805
30
0.0
10
69.492400
20
49.313510
30
0.0
10
65.620647
20
52.798073
30
0.0
10
61.490820
20
56.105860
30
0.0
10
61.490820
20
56.105830
30
0.0
62
0
0
LWPOLYLINE
100
AcDbPolyline
8
Layer_1
90
15
70
0
10
33.378840
20
55.874320
30
0.0
10
32.912676
20
54.965310
30
0.0
10
32.669840
20
54.165380
30
0.0
10
32.609776
20
52.817676
30
0.0
10
32.589740
20
51.108720
30
0.0
10
32.648640
20
51.104720
30
0.0
10
31.813040
20
49.245910
30
0.0
10
31.399110
20
48.622180
30
0.0
10
30.878047
20
47.559851
30
0.0
10
30.099450
20
46.507580
30
0.0
10
28.066551
20
47.784271
30
0.0
10
25.279070
20
49.016990
30
0.0
10
29.189416
20
52.535011
30
0.0
10
33.378830
20
55.874450
30
0.0
10
33.378840
20
55.874320
30
0.0
62
0
0
LWPOLYLINE
100
AcDbPolyline
8
Layer_1
90
15
70
0
10
60.621110
20
55.874320
30
0.0
10
64.810265
20
52.534876
30
0.0
10
68.720360
20
49.016850
30
0.0
10
65.933100
20
47.784136
30
0.0
10
63.900490
20
46.507450
30
0.0
10
63.121893
20
47.559720
30
0.0
10
62.600830
20
48.622040
30
0.0
10
62.186900
20
49.245780
30
0.0
10
61.351300
20
51.104580
30
0.0
10
61.410200
20
51.108580
30
0.0
10
61.390179
20
52.817541
30
0.0
10
61.330100
20
54.165250
30
0.0
10
61.087245
20
54.965179
30
0.0
10
60.621100
20
55.874180
30
0.0
10
60.621110
20
55.874320
30
0.0
62
0
0
LWPOLYLINE
100
AcDbPolyline
8
Layer_1
90
9
70
0
10
27.537860
20
54.746220
30
0.0
10
22.045170
20
51.417220
30
0.0
10
21.134630
20
51.438420
30
0.0
10
19.755900
20
51.327320
30
0.0
10
17.642340
20
50.843110
30
0.0
10
17.405660
20
51.644610
30
0.0
10
18.605590
20
52.331390
30
0.0
10
27.537860
20
54.746230
30
0.0
10
27.537860
20
54.746220
30
0.0
62
0
0
LWPOLYLINE
100
AcDbPolyline
8
Layer_1
90
9
70
0
10
66.463650
20
54.745220
30
0.0
10
75.395400
20
52.330900
30
0.0
10
76.594290
20
51.644630
30
0.0
10
76.357610
20
50.843130
30
0.0
10
74.244050
20
51.327340
30
0.0
10
72.865320
20
51.438440
30
0.0
10
71.955300
20
51.417240
30
0.0
10
66.463650
20
54.745200
30
0.0
10
66.463650
20
54.745220
30
0.0
62
0
0
LWPOLYLINE
100
AcDbPolyline
8
Layer_1
90
19
70
0
10
54.129510
20
54.011930
30
0.0
10
55.594020
20
50.867420
30
0.0
10
56.228093
20
50.142384
30
0.0
10
57.113310
20
49.728470
30
0.0
10
59.147300
20
49.383270
30
0.0
10
60.989560
20
49.071660
30
0.0
10
61.581696
20
48.788570
30
0.0
10
61.894930
20
48.368860
30
0.0
10
62.419450
20
47.267640
30
0.0
10
60.439538
20
44.836769
30
0.0
10
58.084310
20
42.770240
30
0.0
10
57.900340
20
43.965520
30
0.0
10
57.596900
20
45.509183
30
0.0
10
57.055440
20
46.735370
30
0.0
10
56.576888
20
47.241033
30
0.0
10
56.002117
20
47.622690
30
0.0
10
54.688140
20
48.116680
30
0.0
10
54.129510
20
54.011930
30
0.0
10
54.129510
20
54.011930
30
0.0
62
0
0
LWPOLYLINE
100
AcDbPolyline
8
Layer_1
90
19
70
0
10
39.868370
20
54.006930
30
0.0
10
39.310260
20
48.116850
30
0.0
10
37.996284
20
47.622860
30
0.0
10
37.421516
20
47.241201
30
0.0
10
36.942970
20
46.735540
30
0.0
10
36.401754
20
45.509344
30
0.0
10
36.098580
20
43.965680
30
0.0
10
35.913060
20
42.763690
30
0.0
10
33.556651
20
44.828854
30
0.0
10
31.575340
20
47.258510
30
0.0
10
32.105020
20
48.369030
30
0.0
10
32.418254
20
48.788740
30
0.0
10
33.010390
20
49.071830
30
0.0
10
34.852650
20
49.383440
30
0.0
10
36.886640
20
49.728640
30
0.0
10
37.771858
20
50.142550
30
0.0
10
38.405930
20
50.867590
30
0.0
10
39.868370
20
54.006930
30
0.0
10
39.868370
20
54.006930
30
0.0
62
0
0
LWPOLYLINE
100
AcDbPolyline
8
Layer_1
90
8
70
0
10
16.747820
20
51.225190
30
0.0
10
16.997930
20
50.376150
30
0.0
10
16.765390
20
48.098770
30
0.0
10
15.250798
20
48.543498
30
0.0
10
13.719060
20
48.788650
30
0.0
10
15.204843
20
50.100726
30
0.0
10
16.747820
20
51.225190
30
0.0
10
16.747820
20
51.225190
30
0.0
62
0
0
LWPOLYLINE
100
AcDbPolyline
8
Layer_1
90
7
70
0
10
77.252130
20
51.225190
30
0.0
10
78.795108
20
50.100726
30
0.0
10
80.280890
20
48.788650
30
0.0
10
78.749154
20
48.543486
30
0.0
10
77.234570
20
48.098770
30
0.0
10
77.002020
20
50.376150
30
0.0
10
77.252130
20
51.225190
30
0.0
62
0
0
LWPOLYLINE
100
AcDbPolyline
8
Layer_1
90
6
70
0
10
20.913970
20
50.669150
30
0.0
10
17.535370
20
48.436730
30
0.0
10
17.722430
20
50.116730
30
0.0
10
19.841690
20
50.583370
30
0.0
10
20.913970
20
50.669170
30
0.0
10
20.913970
20
50.669150
30
0.0
62
0
0
LWPOLYLINE
100
AcDbPolyline
8
Layer_1
90
6
70
0
10
73.085980
20
50.669150
30
0.0
10
74.158270
20
50.583350
30
0.0
10
76.277520
20
50.116710
30
0.0
10
76.465100
20
48.436710
30
0.0
10
73.085980
20
50.669130
30
0.0
10
73.085980
20
50.669150
30
0.0
62
0
0
LWPOLYLINE
100
AcDbPolyline
8
Layer_1
90
12
70
0
10
24.816580
20
48.401700
30
0.0
10
27.594345
20
47.184705
30
0.0
10
29.587340
20
45.955860
30
0.0
10
28.033794
20
44.608296
30
0.0
10
26.174630
20
43.376690
30
0.0
10
23.695200
20
42.127670
30
0.0
10
23.612863
20
42.903536
30
0.0
10
23.673992
20
43.713143
30
0.0
10
24.082250
20
45.386380
30
0.0
10
24.549922
20
46.933835
30
0.0
10
24.816580
20
48.401700
30
0.0
10
24.816580
20
48.401700
30
0.0
62
0
0
LWPOLYLINE
100
AcDbPolyline
8
Layer_1
90
12
70
0
10
69.183380
20
48.401700
30
0.0
10
69.450032
20
46.933835
30
0.0
10
69.917700
20
45.386380
30
0.0
10
70.325940
20
43.713143
30
0.0
10
70.387084
20
42.903536
30
0.0
10
70.304760
20
42.127670
30
0.0
10
67.825320
20
43.376690
30
0.0
10
65.966160
20
44.608296
30
0.0
10
64.412610
20
45.955860
30
0.0
10
66.405783
20
47.184739
30
0.0
10
69.183380
20
48.401700
30
0.0
10
69.183380
20
48.401700
30
0.0
62
0
0
LWPOLYLINE
100
AcDbPolyline
8
Layer_1
90
10
70
0
10
23.359300
20
48.192930
30
0.0
10
19.597770
20
44.028840
30
0.0
10
19.816360
20
44.397810
30
0.0
10
18.609200
20
45.114560
30
0.0
10
18.679500
20
45.202460
30
0.0
10
19.783572
20
46.242321
30
0.0
10
20.951190
20
47.100796
30
0.0
10
22.152918
20
47.757733
30
0.0
10
23.359320
20
48.192980
30
0.0
10
23.359300
20
48.192930
30
0.0
62
0
0
LWPOLYLINE
100
AcDbPolyline
8
Layer_1
90
10
70
0
10
70.640650
20
48.192930
30
0.0
10
71.847054
20
47.757683
30
0.0
10
73.048784
20
47.100746
30
0.0
10
74.216402
20
46.242271
30
0.0
10
75.320470
20
45.202410
30
0.0
10
75.390770
20
45.114510
30
0.0
10
74.183610
20
44.397760
30
0.0
10
74.402200
20
44.028790
30
0.0
10
70.640670
20
48.192880
30
0.0
10
70.640650
20
48.192930
30
0.0
62
0
0
LWPOLYLINE
100
AcDbPolyline
8
Layer_1
90
10
70
0
10
13.009030
20
48.064770
30
0.0
10
14.629919
20
47.885390
30
0.0
10
16.238290
20
47.448790
30
0.0
10
14.374840
20
45.958440
30
0.0
10
13.658507
20
46.508286
30
0.0
10
12.972850
20
46.805930
30
0.0
10
12.008570
20
46.913420
30
0.0
10
12.144480
20
47.091190
30
0.0
10
13.009030
20
48.064770
30
0.0
10
13.009030
20
48.064770
30
0.0
62
0
0
LWPOLYLINE
100
AcDbPolyline
8
Layer_1
90
10
70
0
10
80.990920
20
48.064770
30
0.0
10
81.855470
20
47.091190
30
0.0
10
81.991900
20
46.913420
30
0.0
10
81.027610
20
46.805930
30
0.0
10
80.341702
20
46.508286
30
0.0
10
79.625120
20
45.958440
30
0.0
10
77.761660
20
47.448790
30
0.0
10
79.370039
20
47.885199
30
0.0
10
80.990920
20
48.064770
30
0.0
10
80.990920
20
48.064770
30
0.0
62
0
0
LWPOLYLINE
100
AcDbPolyline
8
Layer_1
90
11
70
0
10
23.834210
20
47.606990
30
0.0
10
23.364980
20
45.610730
30
0.0
10
22.916251
20
43.750001
30
0.0
10
22.860706
20
42.792213
30
0.0
10
22.993430
20
41.836810
30
0.0
10
20.331204
20
40.949231
30
0.0
10
17.687810
20
40.412600
30
0.0
10
17.639210
20
40.407600
30
0.0
10
20.565211
20
44.117833
30
0.0
10
23.834180
20
47.606650
30
0.0
10
23.834210
20
47.606990
30
0.0
62
0
0
LWPOLYLINE
100
AcDbPolyline
8
Layer_1
90
11
70
0
10
70.165750
20
47.606990
30
0.0
10
73.434719
20
44.118181
30
0.0
10
76.360720
20
40.407950
30
0.0
10
76.312120
20
40.412950
30
0.0
10
73.668459
20
40.949546
30
0.0
10
71.005980
20
41.837150
30
0.0
10
71.138713
20
42.792558
30
0.0
10
71.083180
20
43.750350
30
0.0
10
70.634420
20
45.611080
30
0.0
10
70.165720
20
47.607340
30
0.0
10
70.165750
20
47.606990
30
0.0
62
0
0
LWPOLYLINE
100
AcDbPolyline
8
Layer_1
90
8
70
0
10
39.225520
20
46.514040
30
0.0
10
39.185220
20
40.830150
30
0.0
10
37.247870
20
41.865740
30
0.0
10
37.521750
20
43.719900
30
0.0
10
37.855845
20
45.160821
30
0.0
10
38.112420
20
45.883070
30
0.0
10
39.225530
20
46.514040
30
0.0
10
39.225520
20
46.514040
30
0.0
62
0
0
LWPOLYLINE
100
AcDbPolyline
8
Layer_1
90
8
70
0
10
54.772890
20
46.514040
30
0.0
10
55.886000
20
45.883070
30
0.0
10
56.142570
20
45.160821
30
0.0
10
56.476660
20
43.719900
30
0.0
10
56.750030
20
41.871430
30
0.0
10
54.813190
20
40.834800
30
0.0
10
54.772890
20
46.514040
30
0.0
10
54.772890
20
46.514040
30
0.0
62
0
0
LWPOLYLINE
100
AcDbPolyline
8
Layer_1
90
9
70
0
10
62.937250
20
46.495440
30
0.0
10
63.867518
20
45.426088
30
0.0
10
64.987250
20
44.415460
30
0.0
10
58.420210
20
40.623440
30
0.0
10
58.363410
20
40.675640
30
0.0
10
58.217160
20
41.795990
30
0.0
10
60.777569
20
43.944550
30
0.0
10
62.937290
20
46.495440
30
0.0
10
62.937250
20
46.495440
30
0.0
62
0
0
LWPOLYLINE
100
AcDbPolyline
8
Layer_1
90
9
70
0
10
31.057540
20
46.487440
30
0.0
10
33.218826
20
43.936863
30
0.0
10
35.780770
20
41.789020
30
0.0
10
35.635040
20
40.675390
30
0.0
10
35.578740
20
40.623690
30
0.0
10
29.012730
20
44.414720
30
0.0
10
30.129200
20
45.421913
30
0.0
10
31.057570
20
46.487470
30
0.0
10
31.057540
20
46.487440
30
0.0
62
0
0
LWPOLYLINE
100
AcDbPolyline
8
Layer_1
90
9
70
0
10
82.492640
20
46.188750
30
0.0
10
83.010960
20
45.096830
30
0.0
10
83.210321
20
44.104646
30
0.0
10
83.064660
20
43.216840
30
0.0
10
80.228650
20
45.475620
30
0.0
10
80.729898
20
45.858603
30
0.0
10
81.193450
20
46.075580
30
0.0
10
82.492600
20
46.188750
30
0.0
10
82.492640
20
46.188750
30
0.0
62
0
0
LWPOLYLINE
100
AcDbPolyline
8
Layer_1
90
9
70
0
10
11.507830
20
46.188220
30
0.0
10
12.806460
20
46.075560
30
0.0
10
13.270011
20
45.858579
30
0.0
10
13.771250
20
45.475600
30
0.0
10
10.935250
20
43.216820
30
0.0
10
10.789619
20
44.104630
30
0.0
10
10.988950
20
45.096810
30
0.0
10
11.507780
20
46.188220
30
0.0
10
11.507830
20
46.188220
30
0.0
62
0
0
LWPOLYLINE
100
AcDbPolyline
8
Layer_1
90
7
70
0
10
18.134810
20
44.524760
30
0.0
10
19.396230
20
43.774410
30
0.0
10
16.714740
20
40.393740
30
0.0
10
15.382010
20
40.668660
30
0.0
10
16.458301
20
42.382233
30
0.0
10
18.134810
20
44.524760
30
0.0
10
18.134810
20
44.524760
30
0.0
62
0
0
LWPOLYLINE
100
AcDbPolyline
8
Layer_1
90
6
70
0
10
75.865140
20
44.524760
30
0.0
10
77.541645
20
42.382233
30
0.0
10
78.617940
20
40.668660
30
0.0
10
77.285210
20
40.393740
30
0.0
10
74.603200
20
43.774410
30
0.0
10
75.865140
20
44.524760
30
0.0
62
0
0
LWPOLYLINE
100
AcDbPolyline
8
Layer_1
90
17
70
0
10
91.813000
20
44.461660
30
0.0
10
91.813000
20
33.916620
30
0.0
10
53.651510
20
33.916620
30
0.0
10
53.681010
20
34.243730
30
0.0
10
62.538870
20
36.617230
30
0.0
10
62.812230
20
36.497850
30
0.0
10
63.165301
20
36.412398
30
0.0
10
63.464858
20
36.491436
30
0.0
10
63.827670
20
36.962420
30
0.0
10
74.816670
20
39.906950
30
0.0
10
76.214000
20
39.669230
30
0.0
10
77.774053
20
39.691034
30
0.0
10
79.289766
20
40.101321
30
0.0
10
80.713892
20
40.797083
30
0.0
10
81.999180
20
41.675310
30
0.0
10
82.723160
20
42.026200
30
0.0
10
91.813000
20
44.461660
30
0.0
62
0
0
LWPOLYLINE
100
AcDbPolyline
8
Layer_1
90
17
70
0
10
2.185920
20
44.461130
30
0.0
10
11.282000
20
42.024060
30
0.0
10
12.000820
20
41.675250
30
0.0
10
13.286104
20
40.797023
30
0.0
10
14.710230
20
40.101261
30
0.0
10
16.225946
20
39.690974
30
0.0
10
17.786000
20
39.669170
30
0.0
10
19.182810
20
39.906880
30
0.0
10
30.170250
20
36.962880
30
0.0
10
30.533436
20
36.491419
30
0.0
10
30.833357
20
36.412270
30
0.0
10
31.186730
20
36.497790
30
0.0
10
31.460610
20
36.617160
30
0.0
10
40.317440
20
34.244180
30
0.0
10
40.346940
20
33.916550
30
0.0
10
2.185960
20
33.916550
30
0.0
10
2.185920
20
44.461130
30
0.0
62
0
0
LWPOLYLINE
100
AcDbPolyline
8
Layer_1
90
7
70
0
10
13.284980
20
44.124190
30
0.0
10
13.036930
20
43.552140
30
0.0
10
12.822480
20
42.003400
30
0.0
10
12.461770
20
42.266430
30
0.0
10
11.529010
20
42.734100
30
0.0
10
13.284980
20
44.124190
30
0.0
10
13.284980
20
44.124190
30
0.0
62
0
0
LWPOLYLINE
100
AcDbPolyline
8
Layer_1
90
7
70
0
10
80.714970
20
44.124190
30
0.0
10
82.470940
20
42.734100
30
0.0
10
81.538180
20
42.266430
30
0.0
10
81.177480
20
42.003400
30
0.0
10
80.963020
20
43.552140
30
0.0
10
80.714970
20
44.124190
30
0.0
10
80.714970
20
44.124190
30
0.0
62
0
0
LWPOLYLINE
100
AcDbPolyline
8
Layer_1
90
8
70
0
10
66.249710
20
43.481860
30
0.0
10
67.447560
20
42.728410
30
0.0
10
69.677945
20
41.583174
30
0.0
10
72.047800
20
40.655160
30
0.0
10
62.661290
20
38.140070
30
0.0
10
60.323450
20
39.251630
30
0.0
10
59.620650
20
39.654700
30
0.0
10
66.249710
20
43.481860
30
0.0
62
0
0
LWPOLYLINE
100
AcDbPolyline
8
Layer_1
90
9
70
0
10
27.749210
20
43.481330
30
0.0
10
34.377750
20
39.654170
30
0.0
10
33.674950
20
39.251610
30
0.0
10
31.337630
20
38.140050
30
0.0
10
21.952150
20
40.655140
30
0.0
10
24.322005
20
41.583159
30
0.0
10
26.552390
20
42.728400
30
0.0
10
27.749210
20
43.481330
30
0.0
10
27.749210
20
43.481330
30
0.0
62
0
0
LWPOLYLINE
100
AcDbPolyline
8
Layer_1
90
13
70
0
10
56.873020
20
40.932130
30
0.0
10
56.931420
20
40.485130
30
0.0
10
57.138120
20
39.883100
30
0.0
10
54.371880
20
38.285820
30
0.0
10
54.349680
20
38.991200
30
0.0
10
54.374980
20
39.002600
30
0.0
10
54.505210
20
39.090500
30
0.0
10
54.615790
20
39.214520
30
0.0
10
54.697390
20
39.352500
30
0.0
10
54.756790
20
39.606750
30
0.0
10
54.769690
20
39.861510
30
0.0
10
56.872920
20
40.932250
30
0.0
10
56.873020
20
40.932130
30
0.0
62
0
0
LWPOLYLINE
100
AcDbPolyline
8
Layer_1
90
13
70
0
10
37.124870
20
40.926130
30
0.0
10
39.228610
20
39.856430
30
0.0
10
39.241510
20
39.606310
30
0.0
10
39.300910
20
39.352070
30
0.0
10
39.382510
20
39.214090
30
0.0
10
39.493100
20
39.090060
30
0.0
10
39.623330
20
39.002160
30
0.0
10
39.648630
20
38.990760
30
0.0
10
39.626430
20
38.285900
30
0.0
10
36.860190
20
39.883220
30
0.0
10
37.066890
20
40.484730
30
0.0
10
37.124790
20
40.926050
30
0.0
10
37.124870
20
40.926130
30
0.0
62
0
0
LWPOLYLINE
100
AcDbPolyline
8
Layer_1
90
41
70
0
10
41.079150
20
39.838340
30
0.0
10
42.988737
20
39.244083
30
0.0
10
43.967087
20
39.087698
30
0.0
10
44.967280
20
39.119520
30
0.0
10
46.999200
20
39.274030
30
0.0
10
49.031120
20
39.119520
30
0.0
10
50.031309
20
39.087691
30
0.0
10
51.009659
20
39.244071
30
0.0
10
52.919250
20
39.838340
30
0.0
10
52.915250
20
39.810440
30
0.0
10
52.878550
20
36.217890
30
0.0
10
52.675470
20
36.122290
30
0.0
10
52.395900
20
35.653070
30
0.0
10
51.926670
20
32.503910
30
0.0
10
51.748910
20
32.470310
30
0.0
10
51.316890
20
32.052240
30
0.0
10
51.313890
20
32.052240
30
0.0
10
50.096390
20
29.724740
30
0.0
10
49.701102
20
29.701756
30
0.0
10
49.365170
20
29.543870
30
0.0
10
47.911000
20
27.727960
30
0.0
10
47.414569
20
27.219458
30
0.0
10
46.999940
20
26.985890
30
0.0
10
46.999940
20
39.116950
30
0.0
10
46.999410
20
39.116950
30
0.0
10
46.999410
20
26.986940
30
0.0
10
46.584790
20
27.220519
30
0.0
10
46.088360
20
27.729010
30
0.0
10
44.634180
20
29.544920
30
0.0
10
44.297995
20
29.702788
30
0.0
10
43.902440
20
29.725790
30
0.0
10
42.684950
20
32.053290
30
0.0
10
42.681950
20
32.053290
30
0.0
10
42.249930
20
32.471360
30
0.0
10
42.072160
20
32.504960
30
0.0
10
41.602940
20
35.654120
30
0.0
10
41.323370
20
36.123340
30
0.0
10
41.119770
20
36.218940
30
0.0
10
41.083570
20
39.811490
30
0.0
10
41.078570
20
39.839390
30
0.0
10
41.079150
20
39.838340
30
0.0
62
0
0
LWPOLYLINE
100
AcDbPolyline
8
Layer_1
90
7
70
0
10
35.779220
20
38.845120
30
0.0
10
39.596040
20
36.641120
30
0.0
10
39.646140
20
35.913510
30
0.0
10
33.526610
20
37.553210
30
0.0
10
34.358610
20
37.976950
30
0.0
10
35.779190
20
38.845120
30
0.0
10
35.779220
20
38.845120
30
0.0
62
0
0
LWPOLYLINE
100
AcDbPolyline
8
Layer_1
90
6
70
0
10
58.219190
20
38.845120
30
0.0
10
59.639770
20
37.976950
30
0.0
10
60.471760
20
37.553210
30
0.0
10
54.352240
20
35.913510
30
0.0
10
54.402340
20
36.641640
30
0.0
10
58.219190
20
38.845120
30
0.0
62
0
0
LWPOLYLINE
100
AcDbPolyline
8
Layer_1
90
5
70
0
10
2.185920
20
32.478690
30
0.0
10
40.522590
20
32.478690
30
0.0
10
40.579990
20
32.223410
30
0.0
10
2.185960
20
21.936690
30
0.0
10
2.185920
20
32.478690
30
0.0
62
0
0
LWPOLYLINE
100
AcDbPolyline
8
Layer_1
90
6
70
0
10
53.475810
20
32.478690
30
0.0
10
91.813000
20
32.478690
30
0.0
10
91.813000
20
21.936180
30
0.0
10
53.418450
20
32.224440
30
0.0
10
53.475850
20
32.478690
30
0.0
10
53.475810
20
32.478690
30
0.0
62
0
0
LWPOLYLINE
100
AcDbPolyline
8
Layer_1
90
6
70
0
10
52.395250
20
31.006940
30
0.0
10
91.813000
20
20.444800
30
0.0
10
91.813000
20
8.155110
30
0.0
10
52.363210
20
30.932010
30
0.0
10
52.395210
20
31.006910
30
0.0
10
52.395250
20
31.006940
30
0.0
62
0
0
LWPOLYLINE
100
AcDbPolyline
8
Layer_1
90
5
70
0
10
41.603150
20
31.006410
30
0.0
10
41.635150
20
30.932010
30
0.0
10
2.185880
20
8.156670
30
0.0
10
2.185880
20
20.444810
30
0.0
10
41.603150
20
31.006410
30
0.0
62
0
0
LWPOLYLINE
100
AcDbPolyline
8
Layer_1
90
6
70
0
10
42.232570
20
29.615800
30
0.0
10
42.288870
20
29.506760
30
0.0
10
14.968050
20
2.185440
30
0.0
10
2.185890
20
2.185440
30
0.0
10
2.185890
20
6.494740
30
0.0
10
42.232570
20
29.615800
30
0.0
62
0
0
LWPOLYLINE
100
AcDbPolyline
8
Layer_1
90
7
70
0
10
51.765830
20
29.615800
30
0.0
10
91.813000
20
6.494730
30
0.0
10
91.813000
20
2.185430
30
0.0
10
79.031350
20
2.185430
30
0.0
10
51.709510
20
29.506780
30
0.0
10
51.765810
20
29.615810
30
0.0
10
51.765830
20
29.615800
30
0.0
62
0
0
LWPOLYLINE
100
AcDbPolyline
8
Layer_1
90
15
70
0
10
43.148790
20
28.330090
30
0.0
10
43.313120
20
28.253590
30
0.0
10
41.674460
20
25.415520
30
0.0
10
40.034902
20
24.536202
30
0.0
10
38.545674
20
23.440681
30
0.0
10
37.227820
20
22.149870
30
0.0
10
36.102386
20
20.684683
30
0.0
10
35.190416
20
19.066031
30
0.0
10
34.512953
20
17.314828
30
0.0
10
34.091043
20
15.451987
30
0.0
10
33.945730
20
13.498420
30
0.0
10
33.945730
20
12.028740
30
0.0
10
28.262880
20
2.185410
30
0.0
10
17.004130
20
2.185410
30
0.0
10
43.148790
20
28.330090
30
0.0
62
0
0
LWPOLYLINE
100
AcDbPolyline
8
Layer_1
90
16
70
0
10
50.849100
20
28.330090
30
0.0
10
76.992720
20
2.185430
30
0.0
10
65.734490
20
2.185430
30
0.0
10
60.052670
20
12.027220
30
0.0
10
60.052670
20
13.498450
30
0.0
10
59.907335
20
15.452167
30
0.0
10
59.485365
20
17.315146
30
0.0
10
58.807806
20
19.066469
30
0.0
10
57.895709
20
20.685216
30
0.0
10
56.770122
20
22.150469
30
0.0
10
55.452094
20
23.441308
30
0.0
10
53.962673
20
24.536815
30
0.0
10
52.322910
20
25.416070
30
0.0
10
50.684760
20
28.253620
30
0.0
10
50.849100
20
28.330120
30
0.0
10
50.849100
20
28.330090
30
0.0
62
0
0
LWPOLYLINE
100
AcDbPolyline
8
Layer_1
90
5
70
0
10
44.491340
20
27.413870
30
0.0
10
44.649990
20
27.213360
30
0.0
10
44.403490
20
26.292490
30
0.0
10
43.759090
20
26.145730
30
0.0
10
44.491340
20
27.413870
30
0.0
62
0
0
LWPOLYLINE
100
AcDbPolyline
8
Layer_1
90
6
70
0
10
49.507570
20
27.413870
30
0.0
10
50.239830
20
26.145730
30
0.0
10
49.595430
20
26.292490
30
0.0
10
49.348410
20
27.213880
30
0.0
10
49.507570
20
27.413870
30
0.0
10
49.507570
20
27.413870
30
0.0
62
0
0
LWPOLYLINE
100
AcDbPolyline
8
Layer_1
90
34
70
0
10
46.999200
20
24.037850
30
0.0
10
49.057250
20
23.834250
30
0.0
10
51.017448
20
23.238609
30
0.0
10
52.824711
20
22.273743
30
0.0
10
54.423955
20
20.962468
30
0.0
10
55.735228
20
19.363223
30
0.0
10
56.700093
20
17.555959
30
0.0
10
57.295732
20
15.595760
30
0.0
10
57.499330
20
13.537710
30
0.0
10
57.295730
20
11.479661
30
0.0
10
56.700090
20
9.519464
30
0.0
10
55.735225
20
7.712202
30
0.0
10
54.423951
20
6.112959
30
0.0
10
52.824708
20
4.801685
30
0.0
10
51.017446
20
3.836820
30
0.0
10
49.057249
20
3.241180
30
0.0
10
46.999200
20
3.037580
30
0.0
10
44.941151
20
3.241180
30
0.0
10
42.980954
20
3.836820
30
0.0
10
41.173692
20
4.801685
30
0.0
10
39.574449
20
6.112959
30
0.0
10
38.263175
20
7.712202
30
0.0
10
37.298310
20
9.519464
30
0.0
10
36.702670
20
11.479661
30
0.0
10
36.499070
20
13.537710
30
0.0
10
36.702668
20
15.595760
30
0.0
10
37.298307
20
17.555959
30
0.0
10
38.263172
20
19.363223
30
0.0
10
39.574445
20
20.962468
30
0.0
10
41.173689
20
22.273743
30
0.0
10
42.980952
20
23.238609
30
0.0
10
44.941150
20
23.834250
30
0.0
10
46.999200
20
24.037850
30
0.0
10
46.999200
20
24.037850
30
0.0
62
0
0
LWPOLYLINE
100
AcDbPolyline
8
Layer_1
90
4
70
0
10
60.052670
20
9.148320
30
0.0
10
64.072580
20
2.185430
30
0.0
10
60.052670
20
2.185430
30
0.0
10
60.052670
20
9.148320
30
0.0
62
0
0
LWPOLYLINE
100
AcDbPolyline
8
Layer_1
90
4
70
0
10
33.945730
20
9.147790
30
0.0
10
33.945730
20
2.185420
30
0.0
10
29.926340
20
2.185420
30
0.0
10
33.945730
20
9.147790
30
0.0
  0
ENDSEC
  0
SECTION
  2
OBJECTS
  0
DICTIONARY
  5
C
330
0
100
AcDbDictionary
  3
ACAD_GROUP
350
D
  3
ACAD_MLINESTYLE
350
17
  0
DICTIONARY
  5
D
330
C
100
AcDbDictionary
  0
DICTIONARY
  5
1A
330
C
100
AcDbDictionary
  0
DICTIONARY
  5
17
330
C
100
AcDbDictionary
  3
STANDARD
350
18
  0
DICTIONARY
  5
19
330
C
100
AcDbDictionary
  0
ENDSEC
  0
EOF
