  0
SECTION
  2
HEADER
  9
$ACADVER
  1
AC1014
  9
$HANDSEED
  5
FFFF
  9
$MEASUREMENT
 70
     1
  0
ENDSEC
  0
SECTION
  2
TABLES
  0
TABLE
  2
VPORT
  5
8
330
0
100
AcDbSymbolTable
 70
     4
  0
VPORT
  5
2E
330
8
100
AcDbSymbolTableRecord
100
AcDbViewportTableRecord
  2
*ACTIVE
 70
     0
 10
0.0
 20
0.0
 11
1.0
 21
1.0
 12
210.0
 22
148.5
 13
0.0
 23
0.0
 14
10.0
 24
10.0
 15
10.0
 25
10.0
 16
0.0
 26
0.0
 36
1.0
 17
0.0
 27
0.0
 37
0.0
 40
341.0
 41
1.24
 42
50.0
 43
0.0
 44
0.0
 50
0.0
 51
0.0
 71
     0
 72
   100
 73
     1
 74
     3
 75
     0
 76
     0
 77
     0
 78
     0
  0
ENDTAB
  0
TABLE
  2
LTYPE
  5
5
330
0
100
AcDbSymbolTable
 70
     1
  0
LTYPE
  5
14
330
5
100
AcDbSymbolTableRecord
100
AcDbLinetypeTableRecord
  2
BYBLOCK
 70
     0
  3

 72
    65
 73
     0
 40
0.0
  0
LTYPE
  5
15
330
5
100
AcDbSymbolTableRecord
100
AcDbLinetypeTableRecord
  2
BYLAYER
 70
     0
  3

 72
    65
 73
     0
 40
0.0
  0
LTYPE
  5
16
330
5
100
AcDbSymbolTableRecord
100
AcDbLinetypeTableRecord
  2
CONTINUOUS
 70
     0
  3
Solid line
 72
    65
 73
     0
 40
0.0
  0
ENDTAB
  0
TABLE
  2
LAYER
  5
2
100
AcDbSymbolTable
 70
10
  0
LAYER
  5
50
100
AcDbSymbolTableRecord
100
AcDbLayerTableRecord
  2
0
 70
0
  6
CONTINUOUS
  0
LAYER
  5
51
100
AcDbSymbolTableRecord
100
AcDbLayerTableRecord
  2
Layer_1
 70
0
  6
CONTINUOUS
  0
LAYER
  5
52
100
AcDbSymbolTableRecord
100
AcDbLayerTableRecord
  2
grate
 70
0
  6
CONTINUOUS
  0
LAYER
  5
53
100
AcDbSymbolTableRecord
100
AcDbLayerTableRecord
  2
grate_2
 70
0
  6
CONTINUOUS
  0
LAYER
  5
54
100
AcDbSymbolTableRecord
100
AcDbLayerTableRecord
  2
grate_3
 70
0
  6
CONTINUOUS
  0
LAYER
  5
55
100
AcDbSymbolTableRecord
100
AcDbLayerTableRecord
  2
grate_3_copy
 70
0
  6
CONTINUOUS
  0
LAYER
  5
56
100
AcDbSymbolTableRecord
100
AcDbLayerTableRecord
  2
motion
 70
0
  6
CONTINUOUS
  0
LAYER
  5
57
100
AcDbSymbolTableRecord
100
AcDbLayerTableRecord
  2
wooden_frame
 70
0
  6
CONTINUOUS
  0
LAYER
  5
58
100
AcDbSymbolTableRecord
100
AcDbLayerTableRecord
  2
firefly_circle
 70
0
  6
CONTINUOUS
  0
LAYER
  5
59
100
AcDbSymbolTableRecord
100
AcDbLayerTableRecord
  2
firefly
 70
0
  6
CONTINUOUS
  0
ENDTAB
  0
TABLE
  2
STYLE
  5
3
330
0
100
AcDbSymbolTable
 70
     1
  0
STYLE
  5
11
330
3
100
AcDbSymbolTableRecord
100
AcDbTextStyleTableRecord
  2
STANDARD
 70
     0
 40
0.0
 41
1.0
 50
0.0
 71
     0
 42
2.5
  3
txt
  4

  0
ENDTAB
  0
TABLE
  2
VIEW
  5
6
330
0
100
AcDbSymbolTable
 70
     0
  0
ENDTAB
  0
TABLE
  2
UCS
  5
7
330
0
100
AcDbSymbolTable
 70
     0
  0
ENDTAB
  0
TABLE
  2
APPID
  5
9
330
0
100
AcDbSymbolTable
 70
     2
  0
APPID
  5
12
330
9
100
AcDbSymbolTableRecord
100
AcDbRegAppTableRecord
  2
ACAD
 70
     0
  0
ENDTAB
  0
TABLE
  2
DIMSTYLE
  5
A
330
0
100
AcDbSymbolTable
 70
     1
  0
DIMSTYLE
105
27
330
A
100
AcDbSymbolTableRecord
100
AcDbDimStyleTableRecord
  2
ISO-25
 70
     0
  3

  4

  5

  6

  7

 40
1.0
 41
2.5
 42
0.625
 43
3.75
 44
1.25
 45
0.0
 46
0.0
 47
0.0
 48
0.0
140
2.5
141
2.5
142
0.0
143
0.03937007874016
144
1.0
145
0.0
146
1.0
147
0.625
 71
     0
 72
     0
 73
     0
 74
     0
 75
     0
 76
     0
 77
     1
 78
     8
170
     0
171
     3
172
     1
173
     0
174
     0
175
     0
176
     0
177
     0
178
     0
270
     2
271
     2
272
     2
273
     2
274
     3
340
11
275
     0
280
     0
281
     0
282
     0
283
     0
284
     8
285
     0
286
     0
287
     3
288
     0
  0
ENDTAB
  0
TABLE
  2
BLOCK_RECORD
  5
1
330
0
100
AcDbSymbolTable
 70
     1
  0
BLOCK_RECORD
  5
1F
330
1
100
AcDbSymbolTableRecord
100
AcDbBlockTableRecord
  2
*MODEL_SPACE
  0
BLOCK_RECORD
  5
1B
330
1
100
AcDbSymbolTableRecord
100
AcDbBlockTableRecord
  2
*PAPER_SPACE
  0
ENDTAB
  0
ENDSEC
  0
SECTION
  2
BLOCKS
  0
BLOCK
  5
20
330
1F
100
AcDbEntity
  8
0
100
AcDbBlockBegin
  2
*MODEL_SPACE
 70
     0
 10
0.0
 20
0.0
 30
0.0
  3
*MODEL_SPACE
  1

  0
ENDBLK
  5
21
330
1F
100
AcDbEntity
  8
0
100
AcDbBlockEnd
  0
BLOCK
  5
1C
330
1B
100
AcDbEntity
 67
     1
  8
0
100
AcDbBlockBegin
  2
*PAPER_SPACE
  1

  0
ENDBLK
  5
1D
330
1B
100
AcDbEntity
 67
     1
  8
0
100
AcDbBlockEnd
  0
ENDSEC
  0
SECTION
  2
ENTITIES
  0
LWPOLYLINE
  5
100
100
AcDbEntity
  8
grate_3
 62
7
100
AcDbPolyline
 90
4
 70
1
 10
-0.000000
 20
95.999825
 30
0.0
 10
-0.000000
 20
0.000002
 30
0.0
 10
95.999823
 20
0.000002
 30
0.0
 10
95.999823
 20
95.999825
 30
0.0
  0
LWPOLYLINE
  5
101
100
AcDbEntity
  8
grate_3
 62
7
100
AcDbPolyline
 90
4
 70
1
 10
3.185852
 20
92.813457
 30
0.0
 10
13.326318
 20
92.813457
 30
0.0
 10
44.640169
 20
38.576458
 30
0.0
 10
3.185852
 20
80.029741
 30
0.0
  0
LWPOLYLINE
  5
102
100
AcDbEntity
  8
grate_3
 62
7
100
AcDbPolyline
 90
3
 70
1
 10
14.990816
 20
92.813457
 30
0.0
 10
31.548461
 20
92.813457
 30
0.0
 10
45.888153
 20
39.294759
 30
0.0
  0
LWPOLYLINE
  5
103
100
AcDbEntity
  8
grate_3
 62
7
100
AcDbPolyline
 90
3
 70
1
 10
33.038293
 20
92.813457
 30
0.0
 10
47.278250
 20
92.813457
 30
0.0
 10
47.278250
 20
39.671997
 30
0.0
  0
LWPOLYLINE
  5
104
100
AcDbEntity
  8
grate_3
 62
7
100
AcDbPolyline
 90
3
 70
1
 10
48.718988
 20
92.813457
 30
0.0
 10
62.959464
 20
92.813457
 30
0.0
 10
48.718988
 20
39.665279
 30
0.0
  0
LWPOLYLINE
  5
105
100
AcDbEntity
  8
grate_3
 62
7
100
AcDbPolyline
 90
3
 70
1
 10
64.451362
 20
92.813457
 30
0.0
 10
81.009008
 20
92.813457
 30
0.0
 10
50.111152
 20
39.295278
 30
0.0
  0
LWPOLYLINE
  5
106
100
AcDbEntity
  8
grate_3
 62
7
100
AcDbPolyline
 90
4
 70
1
 10
82.670406
 20
92.813457
 30
0.0
 10
92.812938
 20
92.813457
 30
0.0
 10
92.812938
 20
80.031291
 30
0.0
 10
51.358104
 20
38.576458
 30
0.0
  0
LWPOLYLINE
  5
107
100
AcDbEntity
  8
grate_3
 62
7
100
AcDbPolyline
 90
3
 70
1
 10
3.185852
 20
77.995240
 30
0.0
 10
43.623693
 20
37.556365
 30
0.0
 10
3.185852
 20
60.904293
 30
0.0
  0
LWPOLYLINE
  5
108
100
AcDbEntity
  8
grate_3
 62
7
100
AcDbPolyline
 90
3
 70
1
 10
92.812938
 20
77.994208
 30
0.0
 10
92.812938
 20
60.903780
 30
0.0
 10
52.374580
 20
37.556368
 30
0.0
  0
LWPOLYLINE
  5
109
100
AcDbEntity
  8
grate_3
 62
7
100
AcDbPolyline
 90
3
 70
1
 10
92.812938
 20
59.241350
 30
0.0
 10
92.812938
 20
46.951661
 30
0.0
 10
53.093400
 20
36.309413
 30
0.0
  0
LWPOLYLINE
  5
10a
100
AcDbEntity
  8
grate_3
 62
7
100
AcDbPolyline
 90
3
 70
1
 10
3.185852
 20
59.239797
 30
0.0
 10
42.903322
 20
36.309929
 30
0.0
 10
3.185852
 20
46.952174
 30
0.0
  0
LWPOLYLINE
  5
10b
100
AcDbEntity
  8
grate_3
 62
7
100
AcDbPolyline
 90
3
 70
1
 10
92.812938
 20
45.462342
 30
0.0
 10
92.812938
 20
34.917249
 30
0.0
 10
53.460819
 20
34.917249
 30
0.0
  0
LWPOLYLINE
  5
10c
100
AcDbEntity
  8
grate_3
 62
7
100
AcDbPolyline
 90
3
 70
1
 10
3.185852
 20
45.461813
 30
0.0
 10
42.539004
 20
34.917236
 30
0.0
 10
3.185852
 20
34.917236
 30
0.0
  0
LWPOLYLINE
  5
10d
100
AcDbEntity
  8
grate_3
 62
7
100
AcDbPolyline
 90
3
 70
1
 10
3.185852
 20
33.479599
 30
0.0
 10
42.531252
 20
33.479599
 30
0.0
 10
3.185852
 20
22.937620
 30
0.0
  0
LWPOLYLINE
  5
10e
100
AcDbEntity
  8
grate_3
 62
7
100
AcDbPolyline
 90
3
 70
1
 10
53.468571
 20
33.479599
 30
0.0
 10
92.812938
 20
33.479599
 30
0.0
 10
92.812938
 20
22.937088
 30
0.0
  0
LWPOLYLINE
  5
10f
100
AcDbEntity
  8
grate_3
 62
7
100
AcDbPolyline
 90
3
 70
1
 10
53.093400
 20
32.088986
 30
0.0
 10
92.812938
 20
21.445709
 30
0.0
 10
92.812938
 20
9.156019
 30
0.0
  0
LWPOLYLINE
  5
110
100
AcDbEntity
  8
grate_3
 62
7
100
AcDbPolyline
 90
3
 70
1
 10
42.903322
 20
32.087928
 30
0.0
 10
3.185852
 20
9.157546
 30
0.0
 10
3.185852
 20
21.445685
 30
0.0
  0
LWPOLYLINE
  5
111
100
AcDbEntity
  8
grate_3
 62
7
100
AcDbPolyline
 90
4
 70
1
 10
43.623693
 20
30.842526
 30
0.0
 10
15.968017
 20
3.186371
 30
0.0
 10
3.185852
 20
3.186371
 30
0.0
 10
3.185852
 20
7.495669
 30
0.0
  0
LWPOLYLINE
  5
112
100
AcDbEntity
  8
grate_3
 62
7
100
AcDbPolyline
 90
4
 70
1
 10
52.374580
 20
30.842526
 30
0.0
 10
92.812938
 20
7.495632
 30
0.0
 10
92.812938
 20
3.186334
 30
0.0
 10
80.031290
 20
3.186334
 30
0.0
  0
LWPOLYLINE
  5
113
100
AcDbEntity
  8
grate_3
 62
7
100
AcDbPolyline
 90
3
 70
1
 10
44.641719
 20
29.823983
 30
0.0
 10
29.262813
 20
3.186334
 30
0.0
 10
18.004068
 20
3.186334
 30
0.0
  0
LWPOLYLINE
  5
114
100
AcDbEntity
  8
grate_3
 62
7
100
AcDbPolyline
 90
3
 70
1
 10
51.356037
 20
29.823983
 30
0.0
 10
77.992654
 20
3.186334
 30
0.0
 10
66.734427
 20
3.186334
 30
0.0
  0
LWPOLYLINE
  5
115
100
AcDbEntity
  8
grate_3
 62
7
100
AcDbPolyline
 90
3
 70
1
 10
45.888153
 20
29.102581
 30
0.0
 10
38.944391
 20
3.186334
 30
0.0
 10
30.926278
 20
3.186334
 30
0.0
  0
LWPOLYLINE
  5
116
100
AcDbEntity
  8
grate_3
 62
7
100
AcDbPolyline
 90
3
 70
1
 10
50.111152
 20
29.100993
 30
0.0
 10
65.072513
 20
3.186297
 30
0.0
 10
57.054398
 20
3.186297
 30
0.0
  0
LWPOLYLINE
  5
117
100
AcDbEntity
  8
grate_3
 62
7
100
AcDbPolyline
 90
3
 70
1
 10
48.718988
 20
28.730990
 30
0.0
 10
55.563015
 20
3.186297
 30
0.0
 10
48.718988
 20
3.186297
 30
0.0
  0
LWPOLYLINE
  5
118
100
AcDbEntity
  8
grate_3
 62
7
100
AcDbPolyline
 90
3
 70
1
 10
47.278250
 20
28.724269
 30
0.0
 10
47.278250
 20
3.186295
 30
0.0
 10
40.435257
 20
3.186295
 30
0.0
  0
LWPOLYLINE
  5
119
100
AcDbEntity
  8
motion
 62
7
100
AcDbPolyline
 90
2
 70
0
 10
61.052586
 20
1.000092
 30
0.0
 10
61.052586
 20
14.499232
 30
0.0
  0
SPLINE
  5
11a
100
AcDbEntity
  8
motion
 62
7
100
AcDbSpline
 70
0
 71
3
 72
13
 73
9
 74
7
 40
0.000000
 40
0.000000
 40
0.000000
 40
0.000000
 40
6.825107
 40
13.447772
 40
20.272876
 40
27.097973
 40
33.720641
 40
40.545750
 40
40.545750
 40
40.545750
 40
40.545750
 10
61.052586
 20
14.499232
 30
0.0
 10
60.693552
 20
16.800337
 30
0.0
 10
59.986134
 20
21.334294
 30
0.0
 10
54.793228
 20
26.325818
 30
0.0
 10
47.999178
 20
28.175319
 30
0.0
 10
41.205129
 20
26.325816
 30
0.0
 10
36.012220
 20
21.334296
 30
0.0
 10
35.304798
 20
16.800338
 30
0.0
 10
34.945763
 20
14.499232
 30
0.0
 11
61.052586
 21
14.499232
 31
0.0
 11
59.270417
 21
21.087552
 31
0.0
 11
54.587491
 21
25.770488
 31
0.0
 11
47.999176
 21
27.552662
 31
0.0
 11
41.410867
 21
25.770488
 31
0.0
 11
36.727936
 21
21.087552
 31
0.0
 11
34.945763
 21
14.499232
 31
0.0
  0
LWPOLYLINE
  5
11b
100
AcDbEntity
  8
motion
 62
7
100
AcDbPolyline
 90
3
 70
0
 10
34.945763
 20
14.499232
 30
0.0
 10
34.945763
 20
1.000092
 30
0.0
 10
61.052586
 20
1.000092
 30
0.0
  0
SPLINE
  5
11c
100
AcDbEntity
  8
motion
 62
7
100
AcDbSpline
 70
0
 71
3
 72
43
 73
39
 74
37
 40
0.000000
 40
0.000000
 40
0.000000
 40
0.000000
 40
3.664123
 40
7.275807
 40
10.939930
 40
14.604053
 40
18.215737
 40
21.879861
 40
25.543984
 40
29.155668
 40
32.819791
 40
36.483914
 40
40.095598
 40
43.759721
 40
47.423844
 40
51.035528
 40
54.699651
 40
58.363775
 40
61.975458
 40
65.639582
 40
69.303705
 40
72.915389
 40
76.579512
 40
80.243635
 40
83.855319
 40
87.519442
 40
91.183565
 40
94.795249
 40
98.459373
 40
102.123496
 40
105.735180
 40
109.399303
 40
113.063426
 40
116.675110
 40
120.339233
 40
124.003356
 40
127.615040
 40
131.279163
 40
131.279163
 40
131.279163
 40
131.279163
 10
58.499176
 20
14.538852
 30
0.0
 10
58.373722
 20
13.311248
 30
0.0
 10
58.124611
 20
10.873610
 30
0.0
 10
56.191911
 20
7.652233
 30
0.0
 10
53.362110
 20
5.257224
 30
0.0
 10
49.857936
 20
3.986991
 30
0.0
 10
46.139612
 20
3.986991
 30
0.0
 10
42.640345
 20
5.257224
 30
0.0
 10
39.790949
 20
7.652233
 30
0.0
 10
37.931059
 20
10.873610
 30
0.0
 10
37.281677
 20
14.538852
 30
0.0
 10
37.931065
 20
18.204094
 30
0.0
 10
39.790928
 20
21.425471
 30
0.0
 10
42.640426
 20
23.820480
 30
0.0
 10
46.139313
 20
25.090713
 30
0.0
 10
49.859039
 20
25.090713
 30
0.0
 10
53.357926
 20
23.820480
 30
0.0
 10
56.207424
 20
21.425471
 30
0.0
 10
58.067287
 20
18.204094
 30
0.0
 10
58.716677
 20
14.538852
 30
0.0
 10
58.067287
 20
10.873610
 30
0.0
 10
56.207424
 20
7.652233
 30
0.0
 10
53.357926
 20
5.257224
 30
0.0
 10
49.859039
 20
3.986991
 30
0.0
 10
46.139313
 20
3.986991
 30
0.0
 10
42.640426
 20
5.257224
 30
0.0
 10
39.790928
 20
7.652233
 30
0.0
 10
37.931065
 20
10.873610
 30
0.0
 10
37.281677
 20
14.538852
 30
0.0
 10
37.931059
 20
18.204094
 30
0.0
 10
39.790949
 20
21.425471
 30
0.0
 10
42.640345
 20
23.820480
 30
0.0
 10
46.139612
 20
25.090713
 30
0.0
 10
49.857936
 20
25.090713
 30
0.0
 10
53.362110
 20
23.820480
 30
0.0
 10
56.191911
 20
21.425471
 30
0.0
 10
58.124611
 20
18.204094
 30
0.0
 10
58.373722
 20
15.766456
 30
0.0
 10
58.499176
 20
14.538852
 30
0.0
 11
58.499176
 21
14.538852
 31
0.0
 11
57.860001
 21
10.930909
 31
0.0
 11
56.054159
 21
7.803099
 31
0.0
 11
53.249176
 21
5.445585
 31
0.0
 11
49.805018
 21
4.195156
 31
0.0
 11
46.193334
 21
4.195156
 31
0.0
 11
42.749176
 21
5.445585
 31
0.0
 11
39.944193
 21
7.803099
 31
0.0
 11
38.138351
 21
10.930909
 31
0.0
 11
37.499176
 21
14.538852
 31
0.0
 11
38.138351
 21
18.146795
 31
0.0
 11
39.944193
 21
21.274605
 31
0.0
 11
42.749176
 21
23.632119
 31
0.0
 11
46.193334
 21
24.882548
 31
0.0
 11
49.805018
 21
24.882548
 31
0.0
 11
53.249176
 21
23.632119
 31
0.0
 11
56.054159
 21
21.274605
 31
0.0
 11
57.860001
 21
18.146795
 31
0.0
 11
58.499176
 21
14.538852
 31
0.0
 11
57.860001
 21
10.930909
 31
0.0
 11
56.054159
 21
7.803099
 31
0.0
 11
53.249176
 21
5.445585
 31
0.0
 11
49.805018
 21
4.195156
 31
0.0
 11
46.193334
 21
4.195156
 31
0.0
 11
42.749176
 21
5.445585
 31
0.0
 11
39.944193
 21
7.803099
 31
0.0
 11
38.138351
 21
10.930909
 31
0.0
 11
37.499176
 21
14.538852
 31
0.0
 11
38.138351
 21
18.146795
 31
0.0
 11
39.944193
 21
21.274605
 31
0.0
 11
42.749176
 21
23.632119
 31
0.0
 11
46.193334
 21
24.882548
 31
0.0
 11
49.805018
 21
24.882548
 31
0.0
 11
53.249176
 21
23.632119
 31
0.0
 11
56.054159
 21
21.274605
 31
0.0
 11
57.860001
 21
18.146795
 31
0.0
 11
58.499176
 21
14.538852
 31
0.0
  0
LWPOLYLINE
  5
11d
100
AcDbEntity
  8
motion
 62
7
100
AcDbPolyline
 90
2
 70
1
 10
58.499176
 20
14.538852
 30
0.0
 10
58.499176
 20
14.538852
 30
0.0
  0
LWPOLYLINE
  5
11e
100
AcDbEntity
  8
firefly_circle
 62
7
100
AcDbPolyline
 90
1
 70
1
 10
67.107881
 20
58.797292
 30
0.0
  0
LWPOLYLINE
  5
11f
100
AcDbEntity
  8
firefly
 62
7
100
AcDbPolyline
 90
7
 70
1
 10
47.999516
 20
42.517002
 30
0.0
 10
47.999516
 20
27.358532
 30
0.0
 10
44.509752
 20
29.947852
 30
0.0
 10
42.461472
 20
32.811392
 30
0.0
 10
41.409311
 20
36.680792
 30
0.0
 10
41.360731
 20
40.767632
 30
0.0
 10
40.896675
 20
42.274132
 30
0.0
  0
SPLINE
  5
120
100
AcDbEntity
  8
firefly_circle
 62
7
100
AcDbSpline
 70
0
 71
3
 72
25
 73
21
 74
19
 40
0.000000
 40
0.000000
 40
0.000000
 40
0.000000
 40
6.669994
 40
13.244529
 40
19.914523
 40
26.584517
 40
33.159052
 40
39.829046
 40
46.499040
 40
53.073575
 40
59.743569
 40
66.413562
 40
72.988098
 40
79.658092
 40
86.328085
 40
92.902621
 40
99.572615
 40
106.242608
 40
112.817144
 40
119.487138
 40
119.487138
 40
119.487138
 40
119.487138
 10
67.107881
 20
58.797292
 30
0.0
 10
66.879511
 20
56.562621
 30
0.0
 10
66.426040
 20
52.125261
 30
0.0
 10
62.907846
 20
46.261222
 30
0.0
 10
57.756614
 20
41.901463
 30
0.0
 10
51.377783
 20
39.589192
 30
0.0
 10
44.609125
 20
39.589192
 30
0.0
 10
38.239228
 20
41.901463
 30
0.0
 10
33.052324
 20
46.261222
 30
0.0
 10
29.666670
 20
52.125261
 30
0.0
 10
28.484569
 20
58.797292
 30
0.0
 10
29.666670
 20
65.469323
 30
0.0
 10
33.052324
 20
71.333362
 30
0.0
 10
38.239228
 20
75.693121
 30
0.0
 10
44.609125
 20
78.005392
 30
0.0
 10
51.377783
 20
78.005392
 30
0.0
 10
57.756614
 20
75.693121
 30
0.0
 10
62.907846
 20
71.333362
 30
0.0
 10
66.426040
 20
65.469323
 30
0.0
 10
66.879511
 20
61.031963
 30
0.0
 10
67.107881
 20
58.797292
 30
0.0
 11
67.107881
 21
58.797292
 31
0.0
 11
65.944357
 21
52.229566
 31
0.0
 11
62.657089
 21
46.535851
 31
0.0
 11
57.551034
 21
42.244347
 31
0.0
 11
51.281454
 21
39.968125
 31
0.0
 11
44.706918
 21
39.968125
 31
0.0
 11
38.437339
 21
42.244347
 31
0.0
 11
33.331283
 21
46.535851
 31
0.0
 11
30.044015
 21
52.229566
 31
0.0
 11
28.880491
 21
58.797292
 31
0.0
 11
30.044015
 21
65.365018
 31
0.0
 11
33.331283
 21
71.058733
 31
0.0
 11
38.437339
 21
75.350237
 31
0.0
 11
44.706918
 21
77.626459
 31
0.0
 11
51.281454
 21
77.626459
 31
0.0
 11
57.551034
 21
75.350237
 31
0.0
 11
62.657089
 21
71.058733
 31
0.0
 11
65.944357
 21
65.365018
 31
0.0
 11
67.107881
 21
58.797292
 31
0.0
  0
SPLINE
  5
121
100
AcDbEntity
  8
firefly
 62
7
100
AcDbSpline
 70
0
 71
3
 72
16
 73
12
 74
10
 40
0.000000
 40
0.000000
 40
0.000000
 40
0.000000
 40
1.144313
 40
2.241028
 40
3.300770
 40
6.016540
 40
8.806552
 40
11.968455
 40
11.995564
 40
12.022668
 40
12.049777
 40
12.049777
 40
12.049777
 40
12.049777
 10
37.539496
 20
77.027611
 30
0.0
 10
37.921114
 20
77.025497
 30
0.0
 10
38.668476
 20
77.021358
 30
0.0
 10
39.764470
 20
76.901473
 30
0.0
 10
41.357582
 20
76.581750
 30
0.0
 10
43.409680
 20
75.692826
 30
0.0
 10
45.519484
 20
73.643019
 30
0.0
 10
46.484768
 20
71.864739
 30
0.0
 10
46.873843
 20
70.865739
 30
0.0
 10
46.882555
 20
70.840056
 30
0.0
 10
46.887582
 20
70.822697
 30
0.0
 10
46.890096
 20
70.814017
 30
0.0
 11
37.539496
 21
77.027611
 31
0.0
 11
38.683503
 21
77.001127
 31
0.0
 11
39.773922
 21
76.883787
 31
0.0
 11
40.811807
 21
76.669667
 31
0.0
 11
43.293849
 21
75.567453
 31
0.0
 11
45.321765
 21
73.651278
 31
0.0
 11
46.863996
 21
70.890997
 31
0.0
 11
46.873656
 21
70.865668
 31
0.0
 11
46.882359
 21
70.839999
 31
0.0
 11
46.890096
 21
70.814017
 31
0.0
  0
LWPOLYLINE
  5
122
100
AcDbEntity
  8
firefly
 62
7
100
AcDbPolyline
 90
7
 70
1
 10
47.999166
 20
42.517002
 30
0.0
 10
47.999166
 20
27.358532
 30
0.0
 10
51.488926
 20
29.947852
 30
0.0
 10
53.537216
 20
32.811392
 30
0.0
 10
54.589376
 20
36.680792
 30
0.0
 10
54.637976
 20
40.767632
 30
0.0
 10
55.102036
 20
42.274132
 30
0.0
  0
SPLINE
  5
123
100
AcDbEntity
  8
firefly
 62
7
100
AcDbSpline
 70
0
 71
3
 72
13
 73
9
 74
7
 40
0.000000
 40
0.000000
 40
0.000000
 40
0.000000
 40
0.320686
 40
0.655181
 40
1.006759
 40
1.043821
 40
1.080079
 40
1.116759
 40
1.116759
 40
1.116759
 40
1.116759
 10
46.890096
 20
70.814017
 30
0.0
 10
46.994950
 20
70.835093
 30
0.0
 10
47.209174
 20
70.878153
 30
0.0
 10
47.543291
 20
70.913026
 30
0.0
 10
47.784368
 20
70.924653
 30
0.0
 10
47.925999
 20
70.921679
 30
0.0
 10
47.962589
 20
70.919193
 30
0.0
 10
47.986887
 20
70.918313
 30
0.0
 10
47.999106
 20
70.917870
 30
0.0
 11
46.890096
 21
70.814017
 31
0.0
 11
47.205429
 21
70.872366
 31
0.0
 11
47.537866
 21
70.909407
 31
0.0
 11
47.889206
 21
70.922370
 31
0.0
 11
47.926254
 21
70.921381
 31
0.0
 11
47.962458
 21
70.919392
 31
0.0
 11
47.999106
 21
70.917870
 31
0.0
  0
SPLINE
  5
124
100
AcDbEntity
  8
firefly
 62
7
100
AcDbSpline
 70
0
 71
3
 72
13
 73
9
 74
7
 40
0.000000
 40
0.000000
 40
0.000000
 40
0.000000
 40
0.691499
 40
1.370753
 40
2.039891
 40
3.368389
 40
4.694133
 40
6.029255
 40
6.029255
 40
6.029255
 40
6.029255
 10
47.999106
 20
40.275152
 30
0.0
 10
47.768559
 20
40.274231
 30
0.0
 10
47.311546
 20
40.272405
 30
0.0
 10
46.632885
 20
40.215824
 30
0.0
 10
45.752218
 20
40.074399
 30
0.0
 10
44.631076
 20
40.065004
 30
0.0
 10
43.337003
 20
40.403825
 30
0.0
 10
42.499446
 20
40.693822
 30
0.0
 10
42.079192
 20
40.839332
 30
0.0
 11
47.999106
 21
40.275152
 31
0.0
 11
47.307710
 21
40.263178
 31
0.0
 11
46.630788
 21
40.206956
 31
0.0
 11
45.967266
 21
40.120442
 31
0.0
 11
44.638771
 21
40.123350
 31
0.0
 11
43.346394
 21
40.418918
 31
0.0
 11
42.079192
 21
40.839332
 31
0.0
  0
SPLINE
  5
125
100
AcDbEntity
  8
firefly
 62
7
100
AcDbSpline
 70
0
 71
3
 72
10
 73
6
 74
4
 40
0.000000
 40
0.000000
 40
0.000000
 40
0.000000
 40
0.009364
 40
0.018921
 40
0.027956
 40
0.027956
 40
0.027956
 40
0.027956
 10
42.079192
 20
40.839332
 30
0.0
 10
42.079557
 20
40.836231
 30
0.0
 10
42.080294
 20
40.829966
 30
0.0
 10
42.081938
 20
40.820790
 30
0.0
 10
42.083051
 20
40.814694
 30
0.0
 10
42.083592
 20
40.811732
 30
0.0
 11
42.079192
 21
40.839332
 31
0.0
 11
42.080379
 21
40.830043
 31
0.0
 11
42.081974
 21
40.820621
 31
0.0
 11
42.083592
 21
40.811732
 31
0.0
  0
SPLINE
  5
126
100
AcDbEntity
  8
firefly
 62
7
100
AcDbSpline
 70
0
 71
3
 72
10
 73
6
 74
4
 40
0.000000
 40
0.000000
 40
0.000000
 40
0.000000
 40
1.278461
 40
2.508688
 40
3.593732
 40
3.593732
 40
3.593732
 40
3.593732
 10
42.083592
 20
40.811732
 30
0.0
 10
42.098151
 20
40.385690
 30
0.0
 10
42.126719
 20
39.549679
 30
0.0
 10
42.074406
 20
38.351784
 30
0.0
 10
42.105568
 20
37.580365
 30
0.0
 10
42.120172
 20
37.218842
 30
0.0
 11
42.083592
 21
40.811732
 31
0.0
 11
42.110365
 21
39.533551
 31
0.0
 11
42.090606
 21
38.303483
 31
0.0
 11
42.120172
 21
37.218842
 31
0.0
  0
SPLINE
  5
127
100
AcDbEntity
  8
firefly
 62
7
100
AcDbSpline
 70
0
 71
3
 72
16
 73
12
 74
10
 40
0.000000
 40
0.000000
 40
0.000000
 40
0.000000
 40
0.069763
 40
0.140789
 40
0.225894
 40
0.409884
 40
0.600731
 40
0.780434
 40
1.955614
 40
3.038997
 40
3.964955
 40
3.964955
 40
3.964955
 40
3.964955
 10
42.120172
 20
37.218842
 30
0.0
 10
42.142121
 20
37.211220
 30
0.0
 10
42.186416
 20
37.195837
 30
0.0
 10
42.257732
 20
37.170697
 30
0.0
 10
42.352505
 20
37.106332
 30
0.0
 10
42.454691
 20
36.990183
 30
0.0
 10
42.551953
 20
36.831077
 30
0.0
 10
42.699308
 20
36.334563
 30
0.0
 10
42.778513
 20
35.522242
 30
0.0
 10
42.892307
 20
34.467334
 30
0.0
 10
43.015453
 20
33.808603
 30
0.0
 10
43.072202
 20
33.505042
 30
0.0
 11
42.120172
 21
37.218842
 31
0.0
 11
42.186056
 21
37.195905
 31
0.0
 11
42.252089
 21
37.169746
 31
0.0
 11
42.323431
 21
37.123342
 31
0.0
 11
42.448943
 21
36.988809
 31
0.0
 11
42.546038
 21
36.824508
 31
0.0
 11
42.602911
 21
36.654042
 31
0.0
 11
42.783482
 21
35.492817
 31
0.0
 11
42.912859
 21
34.417187
 31
0.0
 11
43.072202
 21
33.505042
 31
0.0
  0
LWPOLYLINE
  5
128
100
AcDbEntity
  8
firefly
 62
7
100
AcDbPolyline
 90
4
 70
0
 10
47.999106
 20
70.917870
 30
0.0
 10
47.999106
 20
64.914262
 30
0.0
 10
47.999106
 20
64.733422
 30
0.0
 10
47.999106
 20
40.275152
 30
0.0
  0
SPLINE
  5
129
100
AcDbEntity
  8
firefly
 62
7
100
AcDbSpline
 70
0
 71
3
 72
13
 73
9
 74
7
 40
0.000000
 40
0.000000
 40
0.000000
 40
0.000000
 40
0.054380
 40
0.110138
 40
0.181735
 40
0.365630
 40
0.577284
 40
0.794259
 40
0.794259
 40
0.794259
 40
0.794259
 10
43.072202
 20
33.505042
 30
0.0
 10
43.090253
 20
33.503461
 30
0.0
 10
43.126812
 20
33.500260
 30
0.0
 10
43.187100
 20
33.493057
 30
0.0
 10
43.286612
 20
33.461385
 30
0.0
 10
43.420712
 20
33.379620
 30
0.0
 10
43.575583
 20
33.242310
 30
0.0
 10
43.646221
 20
33.117037
 30
0.0
 10
43.681978
 20
33.053622
 30
0.0
 11
43.072202
 21
33.505042
 31
0.0
 11
43.126349
 21
33.500016
 31
0.0
 11
43.181552
 21
33.492168
 31
0.0
 11
43.250053
 21
33.471342
 31
0.0
 11
43.409818
 21
33.380278
 31
0.0
 11
43.565036
 21
33.236386
 31
0.0
 11
43.681978
 21
33.053622
 31
0.0
  0
SPLINE
  5
12a
100
AcDbEntity
  8
firefly
 62
7
100
AcDbSpline
 70
0
 71
3
 72
10
 73
6
 74
4
 40
0.000000
 40
0.000000
 40
0.000000
 40
0.000000
 40
0.861175
 40
1.775433
 40
2.629605
 40
2.629605
 40
2.629605
 40
2.629605
 10
43.684878
 20
33.053622
 30
0.0
 10
43.802901
 20
32.791980
 30
0.0
 10
44.046223
 20
32.252567
 30
0.0
 10
44.439203
 20
31.467884
 30
0.0
 10
44.751396
 20
30.967536
 30
0.0
 10
44.902189
 20
30.725862
 30
0.0
 11
43.684878
 21
33.053622
 31
0.0
 11
44.044126
 21
32.270958
 31
0.0
 11
44.460988
 21
31.457266
 31
0.0
 11
44.902189
 21
30.725862
 31
0.0
  0
LWPOLYLINE
  5
12b
100
AcDbEntity
  8
firefly
 62
7
100
AcDbPolyline
 90
2
 70
0
 10
43.681978
 20
33.053622
 30
0.0
 10
43.684878
 20
33.053622
 30
0.0
  0
SPLINE
  5
12c
100
AcDbEntity
  8
firefly
 62
7
100
AcDbSpline
 70
0
 71
3
 72
16
 73
12
 74
10
 40
0.000000
 40
0.000000
 40
0.000000
 40
0.000000
 40
0.261754
 40
0.528087
 40
0.770849
 40
1.584358
 40
2.372799
 40
3.098636
 40
3.602185
 40
3.991932
 40
4.288096
 40
4.288096
 40
4.288096
 40
4.288096
 10
44.902189
 20
30.725862
 30
0.0
 10
44.989307
 20
30.727223
 30
0.0
 10
45.165068
 20
30.729968
 30
0.0
 10
45.423841
 20
30.687757
 30
0.0
 10
45.801942
 20
30.445915
 30
0.0
 10
46.163586
 20
29.935488
 30
0.0
 10
46.636211
 20
29.324925
 30
0.0
 10
47.032407
 20
28.778660
 30
0.0
 10
47.395369
 20
28.380643
 30
0.0
 10
47.695195
 20
28.112583
 30
0.0
 10
47.907826
 20
28.024943
 30
0.0
 10
47.999636
 20
27.987102
 30
0.0
 11
44.902189
 21
30.725862
 31
0.0
 11
45.163916
 21
30.722165
 31
0.0
 11
45.424812
 21
30.668619
 31
0.0
 11
45.633767
 21
30.545042
 31
0.0
 11
46.171389
 21
29.934502
 31
0.0
 11
46.646176
 21
29.305045
 31
0.0
 11
47.087976
 21
28.729152
 31
0.0
 11
47.428799
 21
28.358475
 31
0.0
 11
47.731613
 21
28.113105
 31
0.0
 11
47.999636
 21
27.987102
 31
0.0
  0
SPLINE
  5
12d
100
AcDbEntity
  8
firefly
 62
7
100
AcDbSpline
 70
0
 71
3
 72
13
 73
9
 74
7
 40
0.000000
 40
0.000000
 40
0.000000
 40
0.000000
 40
0.843411
 40
1.658345
 40
2.454504
 40
3.096182
 40
3.690345
 40
4.237689
 40
4.237689
 40
4.237689
 40
4.237689
 10
47.999636
 20
26.529932
 30
0.0
 10
47.720261
 20
26.585163
 30
0.0
 10
47.170944
 20
26.693761
 30
0.0
 10
46.505873
 20
27.205772
 30
0.0
 10
46.002482
 20
27.760636
 30
0.0
 10
45.582164
 20
28.292683
 30
0.0
 10
45.220566
 20
28.764303
 30
0.0
 10
44.980117
 20
29.059255
 30
0.0
 10
44.864823
 20
29.200682
 30
0.0
 11
47.999636
 21
26.529932
 31
0.0
 11
47.187370
 21
26.757014
 31
0.0
 11
46.520368
 21
27.225230
 31
0.0
 11
45.975283
 21
27.805532
 31
0.0
 11
45.573690
 21
28.306006
 31
0.0
 11
45.208641
 21
28.774801
 31
0.0
 11
44.864823
 21
29.200682
 31
0.0
  0
SPLINE
  5
12e
100
AcDbEntity
  8
firefly
 62
7
100
AcDbSpline
 70
0
 71
3
 72
16
 73
12
 74
10
 40
0.000000
 40
0.000000
 40
0.000000
 40
0.000000
 40
0.007066
 40
0.011537
 40
0.018949
 40
0.329591
 40
0.683820
 40
0.996822
 40
2.000770
 40
2.985752
 40
3.899363
 40
3.899363
 40
3.899363
 40
3.899363
 10
44.864823
 20
29.200682
 30
0.0
 10
44.862544
 20
29.199903
 30
0.0
 10
44.858822
 20
29.198632
 30
0.0
 10
44.854640
 20
29.193635
 30
0.0
 10
44.749255
 20
29.160599
 30
0.0
 10
44.520288
 20
29.182074
 30
0.0
 10
44.204505
 20
29.277011
 30
0.0
 10
43.757208
 20
29.625586
 30
0.0
 10
43.387667
 20
30.318425
 30
0.0
 10
42.949702
 20
31.175188
 30
0.0
 10
42.705902
 20
31.760255
 30
0.0
 10
42.588584
 20
32.041792
 30
0.0
 11
44.864823
 21
29.200682
 31
0.0
 11
44.858426
 21
29.197682
 31
0.0
 11
44.855110
 21
29.194682
 31
0.0
 11
44.848333
 21
29.191682
 31
0.0
 11
44.537695
 21
29.190136
 31
0.0
 11
44.201586
 21
29.301981
 31
0.0
 11
43.950111
 21
29.488342
 31
0.0
 11
43.389510
 21
30.321192
 31
0.0
 11
42.950419
 21
31.202889
 31
0.0
 11
42.588584
 21
32.041792
 31
0.0
  0
SPLINE
  5
12f
100
AcDbEntity
  8
firefly
 62
7
100
AcDbSpline
 70
0
 71
3
 72
19
 73
15
 74
13
 40
0.000000
 40
0.000000
 40
0.000000
 40
0.000000
 40
0.009773
 40
0.017248
 40
0.028533
 40
0.121513
 40
0.237769
 40
0.385504
 40
0.573539
 40
0.787119
 40
1.002382
 40
2.192896
 40
3.359269
 40
4.449823
 40
4.449823
 40
4.449823
 40
4.449823
 10
42.588584
 20
32.041792
 30
0.0
 10
42.585326
 20
32.041592
 30
0.0
 10
42.579576
 20
32.041240
 30
0.0
 10
42.570295
 20
32.038980
 30
0.0
 10
42.532906
 20
32.038192
 30
0.0
 10
42.459454
 20
32.041006
 30
0.0
 10
42.341663
 20
32.060526
 30
0.0
 10
42.197749
 20
32.108597
 30
0.0
 10
42.041343
 20
32.206576
 30
0.0
 10
41.891038
 20
32.350755
 30
0.0
 10
41.628366
 20
32.827496
 30
0.0
 10
41.464814
 20
33.685504
 30
0.0
 10
41.351230
 20
34.824416
 30
0.0
 10
41.283161
 20
35.574223
 30
0.0
 10
41.250269
 20
35.936532
 30
0.0
 11
42.588584
 21
32.041792
 31
0.0
 11
42.578854
 21
32.040868
 31
0.0
 11
42.571507
 21
32.039496
 31
0.0
 11
42.560244
 21
32.038792
 31
0.0
 11
42.467336
 21
32.042441
 31
0.0
 11
42.352644
 21
32.061450
 31
0.0
 11
42.212768
 21
32.108992
 31
0.0
 11
42.052230
 21
32.206895
 31
0.0
 11
41.900112
 21
32.356816
 31
0.0
 11
41.789810
 21
32.541672
 31
0.0
 11
41.481703
 21
33.691625
 31
0.0
 11
41.350412
 21
34.850585
 31
0.0
 11
41.250269
 21
35.936532
 31
0.0
  0
SPLINE
  5
130
100
AcDbEntity
  8
firefly
 62
7
100
AcDbSpline
 70
0
 71
3
 72
16
 73
12
 74
10
 40
0.000000
 40
0.000000
 40
0.000000
 40
0.000000
 40
0.093937
 40
0.197960
 40
0.322031
 40
0.507309
 40
0.697660
 40
0.875399
 40
2.039301
 40
3.202684
 40
4.318369
 40
4.318369
 40
4.318369
 40
4.318369
 10
41.250269
 20
35.936532
 30
0.0
 10
41.220294
 20
35.945615
 30
0.0
 10
41.157125
 20
35.964756
 30
0.0
 10
41.058438
 20
36.008241
 30
0.0
 10
40.945373
 20
36.088983
 30
0.0
 10
40.835825
 20
36.216352
 30
0.0
 10
40.743343
 20
36.377926
 30
0.0
 10
40.606749
 20
36.872616
 30
0.0
 10
40.582019
 20
37.715988
 30
0.0
 10
40.607347
 20
38.860590
 30
0.0
 10
40.635091
 20
39.620143
 30
0.0
 10
40.648673
 20
39.991972
 30
0.0
 11
41.250269
 21
35.936532
 31
0.0
 11
41.160907
 21
35.965490
 31
0.0
 11
41.066144
 21
36.008394
 31
0.0
 11
40.964816
 21
36.079992
 31
0.0
 11
40.841699
 21
36.218449
 31
0.0
 11
40.748910
 21
36.384652
 31
0.0
 11
40.696543
 21
36.554502
 31
0.0
 11
40.592042
 21
37.713702
 31
0.0
 11
40.610559
 21
38.876938
 31
0.0
 11
40.648673
 21
39.991972
 31
0.0
  0
SPLINE
  5
131
100
AcDbEntity
  8
firefly
 62
7
100
AcDbSpline
 70
0
 71
3
 72
25
 73
21
 74
19
 40
0.000000
 40
0.000000
 40
0.000000
 40
0.000000
 40
0.009182
 40
0.018189
 40
0.027954
 40
0.090080
 40
0.154509
 40
0.184709
 40
0.228076
 40
0.307668
 40
0.350935
 40
0.381783
 40
0.447559
 40
0.511495
 40
0.608680
 40
0.696396
 40
0.773695
 40
3.068341
 40
5.378974
 40
7.683492
 40
7.683492
 40
7.683492
 40
7.683492
 10
40.648673
 20
39.991972
 30
0.0
 10
40.645858
 20
39.993171
 30
0.0
 10
40.640280
 20
39.995546
 30
0.0
 10
40.631545
 20
39.998834
 30
0.0
 10
40.607910
 20
40.011912
 30
0.0
 10
40.569628
 20
40.036514
 30
0.0
 10
40.527553
 20
40.067276
 30
0.0
 10
40.488527
 20
40.092274
 30
0.0
 10
40.457215
 20
40.133400
 30
0.0
 10
40.420061
 20
40.174112
 30
0.0
 10
40.383984
 20
40.210905
 30
0.0
 10
40.359617
 20
40.250837
 30
0.0
 10
40.330790
 20
40.295839
 30
0.0
 10
40.294521
 20
40.362451
 30
0.0
 10
40.267912
 20
40.441407
 30
0.0
 10
40.248440
 20
40.526816
 30
0.0
 10
40.176968
 20
41.344488
 30
0.0
 10
40.150616
 20
42.905795
 30
0.0
 10
40.136966
 20
45.209238
 30
0.0
 10
40.196147
 20
46.746706
 30
0.0
 10
40.225698
 20
47.514422
 30
0.0
 11
40.648673
 21
39.991972
 31
0.0
 11
40.640199
 21
39.995509
 31
0.0
 11
40.631870
 21
39.998935
 31
0.0
 11
40.623223
 21
40.003472
 31
0.0
 11
40.570653
 21
40.036579
 31
0.0
 11
40.517734
 21
40.073331
 31
0.0
 11
40.493222
 21
40.090972
 31
0.0
 11
40.464329
 21
40.123312
 31
0.0
 11
40.411365
 21
40.182722
 31
0.0
 11
40.382598
 21
40.215042
 31
0.0
 11
40.365649
 21
40.240816
 31
0.0
 11
40.331117
 21
40.296798
 31
0.0
 11
40.301178
 21
40.353292
 31
0.0
 11
40.268568
 21
40.444842
 31
0.0
 11
40.249774
 21
40.530522
 31
0.0
 11
40.241458
 21
40.607372
 31
0.0
 11
40.154882
 21
42.900384
 31
0.0
 11
40.154073
 21
45.211016
 31
0.0
 11
40.225698
 21
47.514422
 31
0.0
  0
SPLINE
  5
132
100
AcDbEntity
  8
firefly
 62
7
100
AcDbSpline
 70
0
 71
3
 72
25
 73
21
 74
19
 40
0.000000
 40
0.000000
 40
0.000000
 40
0.000000
 40
0.547816
 40
0.991022
 40
1.288130
 40
1.688973
 40
2.500418
 40
3.534756
 40
4.651408
 40
5.771013
 40
6.801009
 40
7.422723
 40
8.006431
 40
8.609308
 40
9.245584
 40
9.917524
 40
10.612187
 40
11.999500
 40
13.230642
 40
14.113486
 40
14.113486
 40
14.113486
 40
14.113486
 10
40.225698
 20
47.514422
 30
0.0
 10
40.056742
 20
47.443829
 30
0.0
 10
39.751092
 20
47.316124
 30
0.0
 10
39.376672
 20
47.113177
 30
0.0
 10
39.058713
 20
46.879319
 30
0.0
 10
38.932234
 20
46.368835
 30
0.0
 10
38.703392
 20
45.668417
 30
0.0
 10
38.507466
 20
44.693268
 30
0.0
 10
38.350386
 20
43.616672
 30
0.0
 10
38.190641
 20
42.537832
 30
0.0
 10
38.119125
 20
41.619206
 30
0.0
 10
37.916092
 20
40.886193
 30
0.0
 10
37.513804
 20
40.420422
 30
0.0
 10
37.045916
 20
40.034513
 30
0.0
 10
36.529610
 20
39.659690
 30
0.0
 10
35.960662
 20
39.309725
 30
0.0
 10
35.158738
 20
38.862610
 30
0.0
 10
34.169138
 20
38.371104
 30
0.0
 10
33.105122
 20
37.891254
 30
0.0
 10
32.457136
 20
37.614352
 30
0.0
 10
32.186524
 20
37.498712
 30
0.0
 11
40.225698
 21
47.514422
 31
0.0
 11
39.724203
 21
47.293956
 31
0.0
 11
39.337401
 21
47.077588
 31
0.0
 11
39.112258
 21
46.883722
 31
0.0
 11
38.964246
 21
46.511206
 31
0.0
 11
38.738839
 21
45.731698
 31
0.0
 11
38.521917
 21
44.720362
 31
0.0
 11
38.350037
 21
43.617017
 31
0.0
 11
38.199730
 21
42.507547
 31
0.0
 11
38.066827
 21
41.486162
 31
0.0
 11
37.870428
 21
40.896284
 31
0.0
 11
37.508245
 21
40.438530
 31
0.0
 11
37.050533
 21
40.046152
 31
0.0
 11
36.534943
 21
39.673307
 31
0.0
 11
35.964762
 21
39.317784
 31
0.0
 11
35.358696
 21
38.978312
 31
0.0
 11
34.118668
 21
38.356243
 31
0.0
 11
32.997391
 21
37.847868
 31
0.0
 11
32.186524
 21
37.498712
 31
0.0
  0
SPLINE
  5
133
100
AcDbEntity
  8
firefly
 62
7
100
AcDbSpline
 70
0
 71
3
 72
16
 73
12
 74
10
 40
0.000000
 40
0.000000
 40
0.000000
 40
0.000000
 40
0.260263
 40
0.516579
 40
0.776842
 40
1.037105
 40
1.293421
 40
1.553684
 40
1.813947
 40
2.070263
 40
2.330526
 40
2.330526
 40
2.330526
 40
2.330526
 10
32.186524
 20
37.498712
 30
0.0
 10
32.104134
 20
37.468632
 30
0.0
 10
31.940604
 20
37.408927
 30
0.0
 10
31.674744
 20
37.436147
 30
0.0
 10
31.436376
 20
37.548543
 30
0.0
 10
31.252916
 20
37.739862
 30
0.0
 10
31.148604
 20
37.982662
 30
0.0
 10
31.136119
 20
38.247435
 30
0.0
 10
31.218679
 20
38.497707
 30
0.0
 10
31.381945
 20
38.709288
 30
0.0
 10
31.537822
 20
38.786807
 30
0.0
 10
31.616356
 20
38.825862
 30
0.0
 11
32.186524
 21
37.498712
 31
0.0
 11
31.935989
 21
37.428220
 31
0.0
 11
31.680596
 21
37.449953
 31
0.0
 11
31.445574
 21
37.561764
 31
0.0
 11
31.265344
 21
37.749523
 31
0.0
 11
31.164167
 21
37.985026
 31
0.0
 11
31.152041
 21
38.245006
 31
0.0
 11
31.232721
 21
38.492448
 31
0.0
 11
31.392763
 21
38.692659
 31
0.0
 11
31.616356
 21
38.825862
 31
0.0
  0
SPLINE
  5
134
100
AcDbEntity
  8
firefly
 62
7
100
AcDbSpline
 70
0
 71
3
 72
25
 73
21
 74
19
 40
0.000000
 40
0.000000
 40
0.000000
 40
0.000000
 40
0.879823
 40
2.068227
 40
3.375861
 40
4.014912
 40
4.606961
 40
5.122754
 40
5.523058
 40
5.767988
 40
5.816111
 40
6.840592
 40
7.978876
 40
9.139014
 40
10.218199
 40
11.179484
 40
12.057337
 40
12.981096
 40
13.906104
 40
14.846492
 40
14.846492
 40
14.846492
 40
14.846492
 10
31.616356
 20
38.825862
 30
0.0
 10
31.885937
 20
38.941359
 30
0.0
 10
32.519649
 20
39.212863
 30
0.0
 10
33.545027
 20
39.676513
 30
0.0
 10
34.482266
 20
40.140286
 30
0.0
 10
35.220414
 20
40.554058
 30
0.0
 10
35.716633
 20
40.860399
 30
0.0
 10
36.123699
 20
41.153443
 30
0.0
 10
36.426840
 20
41.400583
 30
0.0
 10
36.539805
 20
41.611834
 30
0.0
 10
36.910931
 20
41.857517
 30
0.0
 10
36.654432
 20
42.800268
 30
0.0
 10
36.949088
 20
43.807613
 30
0.0
 10
37.083597
 20
44.945015
 30
0.0
 10
37.272477
 20
45.990526
 30
0.0
 10
37.497539
 20
46.939977
 30
0.0
 10
37.907505
 20
47.780410
 30
0.0
 10
38.580383
 20
48.418100
 30
0.0
 10
39.411956
 20
48.852039
 30
0.0
 10
40.009110
 20
49.028410
 30
0.0
 10
40.310148
 20
49.117322
 30
0.0
 11
31.616356
 21
38.825862
 31
0.0
 11
32.424101
 21
39.174626
 31
0.0
 11
33.506103
 21
39.666128
 31
0.0
 11
34.674940
 21
40.252412
 31
0.0
 11
35.231859
 21
40.565825
 31
0.0
 11
35.733818
 21
40.879765
 31
0.0
 11
36.152311
 21
41.181272
 31
0.0
 11
36.443027
 21
41.456459
 31
0.0
 11
36.596180
 21
41.647599
 31
0.0
 11
36.635050
 21
41.675972
 31
0.0
 11
36.766969
 21
42.691924
 31
0.0
 11
36.919612
 21
43.819927
 31
0.0
 11
37.098355
 21
44.966212
 31
0.0
 11
37.289769
 21
46.028286
 31
0.0
 11
37.539779
 21
46.956491
 31
0.0
 11
37.942783
 21
47.736372
 31
0.0
 11
38.603783
 21
48.381669
 31
0.0
 11
39.417451
 21
48.821651
 31
0.0
 11
40.310148
 21
49.117322
 31
0.0
  0
SPLINE
  5
135
100
AcDbEntity
  8
firefly
 62
7
100
AcDbSpline
 70
0
 71
3
 72
10
 73
6
 74
4
 40
0.000000
 40
0.000000
 40
0.000000
 40
0.000000
 40
3.421438
 40
6.630358
 40
9.532644
 40
9.532644
 40
9.532644
 40
9.532644
 10
40.310148
 20
49.117322
 30
0.0
 10
40.395217
 20
50.254712
 30
0.0
 10
40.560071
 20
52.458844
 30
0.0
 10
40.922989
 20
55.616517
 30
0.0
 10
41.216289
 20
57.632396
 30
0.0
 10
41.355580
 20
58.589762
 30
0.0
 11
40.310148
 21
49.117322
 31
0.0
 11
40.588674
 21
52.527404
 31
0.0
 11
40.951382
 21
55.715760
 31
0.0
 11
41.355580
 21
58.589762
 31
0.0
  0
LWPOLYLINE
  5
136
100
AcDbEntity
  8
firefly
 62
7
100
AcDbPolyline
 90
2
 70
0
 10
47.999636
 20
27.987102
 30
0.0
 10
47.999636
 20
26.529932
 30
0.0
  0
SPLINE
  5
137
100
AcDbEntity
  8
firefly
 62
7
100
AcDbSpline
 70
0
 71
3
 72
25
 73
21
 74
19
 40
0.000000
 40
0.000000
 40
0.000000
 40
0.000000
 40
0.042059
 40
0.084094
 40
0.126286
 40
0.955912
 40
1.784324
 40
2.669728
 40
3.643185
 40
4.711284
 40
5.891665
 40
6.464233
 40
7.019100
 40
7.603904
 40
8.232230
 40
8.894781
 40
9.577204
 40
10.931695
 40
12.135622
 40
13.021103
 40
13.021103
 40
13.021103
 40
13.021103
 10
41.355580
 20
58.589762
 30
0.0
 10
41.343779
 20
58.582194
 30
0.0
 10
41.320184
 20
58.567062
 30
0.0
 10
41.284580
 20
58.544588
 30
0.0
 10
41.035385
 20
58.369288
 30
0.0
 10
40.616456
 20
57.980079
 30
0.0
 10
40.096859
 20
57.307926
 30
0.0
 10
39.621530
 20
56.548066
 30
0.0
 10
39.122491
 20
55.709383
 30
0.0
 10
38.511844
 20
54.825777
 30
0.0
 10
37.919285
 20
54.090130
 30
0.0
 10
37.307005
 20
53.608733
 30
0.0
 10
36.762554
 20
53.416893
 30
0.0
 10
36.186961
 20
53.292933
 30
0.0
 10
35.569382
 20
53.191745
 30
0.0
 10
34.914676
 20
53.125903
 30
0.0
 10
34.016547
 20
53.068576
 30
0.0
 10
32.936103
 20
53.045587
 30
0.0
 10
31.788014
 20
53.059578
 30
0.0
 10
31.092192
 20
53.090274
 30
0.0
 10
30.797306
 20
53.103282
 30
0.0
 11
41.355580
 21
58.589762
 31
0.0
 11
41.320149
 21
58.567099
 31
0.0
 11
41.284818
 21
58.544325
 31
0.0
 11
41.250161
 21
58.520262
 31
0.0
 11
40.633636
 21
57.965125
 31
0.0
 11
40.119476
 21
57.315582
 31
0.0
 11
39.639797
 21
56.571372
 31
0.0
 11
39.129794
 21
55.742206
 31
0.0
 11
38.522712
 21
54.863408
 31
0.0
 11
37.747694
 21
53.973102
 31
0.0
 11
37.286994
 21
53.633117
 31
0.0
 11
36.770024
 21
53.431574
 31
0.0
 11
36.200089
 21
53.300542
 31
0.0
 11
35.579878
 21
53.199886
 31
0.0
 11
34.920967
 21
53.130525
 31
0.0
 11
34.239993
 21
53.086082
 31
0.0
 11
32.885918
 21
53.052519
 31
0.0
 11
31.682093
 21
53.068245
 31
0.0
 11
30.797306
 21
53.103282
 31
0.0
  0
LWPOLYLINE
  5
138
100
AcDbEntity
  8
firefly
 62
7
100
AcDbPolyline
 90
3
 70
0
 10
30.797306
 20
53.103282
 30
0.0
 10
30.771856
 20
53.103282
 30
0.0
 10
29.596380
 20
53.246732
 30
0.0
  0
SPLINE
  5
139
100
AcDbEntity
  8
firefly
 62
7
100
AcDbSpline
 70
0
 71
3
 72
16
 73
12
 74
10
 40
0.000000
 40
0.000000
 40
0.000000
 40
0.000000
 40
0.253532
 40
0.503415
 40
0.756947
 40
1.010479
 40
1.260361
 40
1.513894
 40
1.767426
 40
2.017308
 40
2.270841
 40
2.270841
 40
2.270841
 40
2.270841
 10
29.596380
 20
53.246732
 30
0.0
 10
29.513024
 20
53.265258
 30
0.0
 10
29.347513
 20
53.302045
 30
0.0
 10
29.141915
 20
53.461160
 30
0.0
 10
29.000668
 20
53.675306
 30
0.0
 10
28.942540
 20
53.926628
 30
0.0
 10
28.973724
 20
54.181940
 30
0.0
 10
29.090635
 20
54.411883
 30
0.0
 10
29.279274
 20
54.585735
 30
0.0
 10
29.517126
 20
54.690687
 30
0.0
 10
29.686626
 20
54.686554
 30
0.0
 10
29.771990
 20
54.684472
 30
0.0
 11
29.596380
 21
53.246732
 31
0.0
 11
29.353611
 21
53.319821
 31
0.0
 11
29.153451
 21
53.469410
 31
0.0
 11
29.014588
 21
53.681532
 31
0.0
 11
28.957325
 21
53.928513
 31
0.0
 11
28.987621
 21
54.176552
 31
0.0
 11
29.102648
 21
54.402489
 31
0.0
 11
29.288485
 21
54.574951
 31
0.0
 11
29.518766
 21
54.671965
 31
0.0
 11
29.771990
 21
54.684472
 31
0.0
  0
SPLINE
  5
13a
100
AcDbEntity
  8
firefly
 62
7
100
AcDbSpline
 70
0
 71
3
 72
22
 73
18
 74
16
 40
0.000000
 40
0.000000
 40
0.000000
 40
0.000000
 40
0.849652
 40
1.996718
 40
3.268957
 40
3.902940
 40
4.498207
 40
5.029025
 40
5.467703
 40
5.770651
 40
5.881333
 40
6.872265
 40
7.821206
 40
8.768796
 40
9.341741
 40
9.929204
 40
10.533344
 40
10.533344
 40
10.533344
 40
10.533344
 10
30.901135
 20
54.546232
 30
0.0
 10
31.184095
 20
54.533900
 30
0.0
 10
31.849063
 20
54.504918
 30
0.0
 10
32.938823
 20
54.491467
 30
0.0
 10
33.956736
 20
54.512329
 30
0.0
 10
34.789049
 20
54.565780
 30
0.0
 10
35.372646
 20
54.627101
 30
0.0
 10
35.888987
 20
54.703157
 30
0.0
 10
36.300909
 20
54.810873
 30
0.0
 10
36.564190
 20
54.917204
 30
0.0
 10
36.991799
 20
55.113409
 30
0.0
 10
37.354173
 20
55.753110
 30
0.0
 10
37.924218
 20
56.507821
 30
0.0
 10
38.340098
 20
57.224442
 30
0.0
 10
38.713134
 20
57.818893
 30
0.0
 10
39.042371
 20
58.307212
 30
0.0
 10
39.293490
 20
58.615182
 30
0.0
 10
39.420806
 20
58.771322
 30
0.0
 11
30.901135
 21
54.546232
 31
0.0
 11
31.750136
 21
54.512995
 31
0.0
 11
32.897104
 21
54.497936
 31
0.0
 11
34.168963
 21
54.529032
 31
0.0
 11
34.801554
 21
54.571013
 31
0.0
 11
35.393514
 21
54.633678
 31
0.0
 11
35.917573
 21
54.718112
 31
0.0
 11
36.341002
 21
54.832769
 31
0.0
 11
36.622592
 21
54.944505
 31
0.0
 11
36.722393
 21
54.992362
 31
0.0
 11
37.372072
 21
55.740601
 31
0.0
 11
37.910709
 21
56.521856
 31
0.0
 11
38.408243
 21
57.328322
 31
0.0
 11
38.713287
 21
57.813311
 31
0.0
 11
39.046255
 21
58.297300
 31
0.0
 11
39.420806
 21
58.771322
 31
0.0
  0
SPLINE
  5
13b
100
AcDbEntity
  8
firefly
 62
7
100
AcDbSpline
 70
0
 71
3
 72
19
 73
15
 74
13
 40
0.000000
 40
0.000000
 40
0.000000
 40
0.000000
 40
10.026262
 40
21.172844
 40
30.679073
 40
31.320912
 40
32.153541
 40
32.606650
 40
36.487625
 40
41.244664
 40
45.889887
 40
53.926441
 40
62.127868
 40
70.358966
 40
70.358966
 40
70.358966
 40
70.358966
 10
39.420806
 20
58.771322
 30
0.0
 10
36.207729
 20
57.788070
 30
0.0
 10
29.422552
 20
55.711697
 30
0.0
 10
19.475499
 20
54.345172
 30
0.0
 10
12.780749
 20
49.491017
 30
0.0
 10
9.113853
 20
50.984223
 30
0.0
 10
9.037998
 20
51.706637
 30
0.0
 10
8.797896
 20
53.386382
 30
0.0
 10
10.427934
 20
56.405411
 30
0.0
 10
14.050693
 20
58.921900
 30
0.0
 10
19.362473
 20
61.374231
 30
0.0
 10
26.111611
 20
63.155220
 30
0.0
 10
34.088860
 20
64.841326
 30
0.0
 10
39.474552
 20
65.843627
 30
0.0
 10
42.172260
 20
66.345682
 30
0.0
 11
39.420806
 21
58.771322
 31
0.0
 11
29.763709
 21
56.075695
 31
0.0
 11
19.002863
 21
53.168726
 31
0.0
 11
9.819779
 21
50.711212
 31
0.0
 11
9.259871
 21
51.024996
 31
0.0
 11
9.019225
 21
51.822091
 31
0.0
 11
8.967887
 21
52.272282
 31
0.0
 11
10.433771
 21
55.865769
 31
0.0
 11
14.157878
 21
58.825575
 31
0.0
 11
18.361121
 21
60.803162
 31
0.0
 11
26.069576
 21
63.076025
 31
0.0
 11
34.086278
 21
64.806892
 31
0.0
 11
42.172260
 21
66.345682
 31
0.0
  0
SPLINE
  5
13c
100
AcDbEntity
  8
firefly
 62
7
100
AcDbSpline
 70
0
 71
3
 72
31
 73
27
 74
25
 40
0.000000
 40
0.000000
 40
0.000000
 40
0.000000
 40
1.688458
 40
3.282748
 40
4.640242
 40
6.911723
 40
9.214671
 40
10.267848
 40
10.556472
 40
10.839796
 40
11.128420
 40
11.417045
 40
11.700369
 40
11.988993
 40
12.174321
 40
12.358177
 40
12.543506
 40
13.609729
 40
15.883381
 40
17.979610
 40
19.337975
 40
21.080750
 40
22.929030
 40
23.043133
 40
23.153694
 40
23.266292
 40
23.266292
 40
23.266292
 40
23.266292
 10
42.172260
 20
66.345682
 30
0.0
 10
41.663998
 20
66.587520
 30
0.0
 10
40.675819
 20
67.057708
 30
0.0
 10
39.308465
 20
67.781990
 30
0.0
 10
37.829789
 20
68.707341
 30
0.0
 10
36.323637
 20
69.996808
 30
0.0
 10
34.953498
 20
71.279528
 30
0.0
 10
34.023816
 20
72.057776
 30
0.0
 10
33.672755
 20
72.482127
 30
0.0
 10
33.610654
 20
72.772887
 30
0.0
 10
33.660329
 20
73.062154
 30
0.0
 10
33.820810
 20
73.309804
 30
0.0
 10
34.063812
 20
73.475491
 30
0.0
 10
34.318622
 20
73.526938
 30
0.0
 10
34.537743
 20
73.498053
 30
0.0
 10
34.712695
 20
73.429787
 30
0.0
 10
35.084457
 20
73.123878
 30
0.0
 10
35.918958
 20
72.299116
 30
0.0
 10
37.288760
 20
71.112305
 30
0.0
 10
38.720050
 20
69.839030
 30
0.0
 10
40.208064
 20
68.942384
 30
0.0
 10
41.670948
 20
68.180561
 30
0.0
 10
42.784352
 20
67.644747
 30
0.0
 10
43.414877
 20
67.362072
 30
0.0
 10
43.518107
 20
67.317546
 30
0.0
 10
43.586147
 20
67.287482
 30
0.0
 10
43.620478
 20
67.272312
 30
0.0
 11
42.172260
 21
66.345682
 31
0.0
 11
40.652986
 21
67.082361
 31
0.0
 11
39.248658
 21
67.837096
 31
0.0
 11
38.103355
 21
68.565842
 31
0.0
 11
36.343401
 21
70.001874
 31
0.0
 11
34.630877
 21
71.541625
 31
0.0
 11
33.861081
 21
72.260370
 31
0.0
 11
33.692563
 21
72.494689
 31
0.0
 11
33.629266
 21
72.770852
 31
0.0
 11
33.678910
 21
73.055175
 31
0.0
 11
33.835765
 21
73.297457
 31
0.0
 11
34.069909
 21
73.456984
 31
0.0
 11
34.352786
 21
73.514297
 31
0.0
 11
34.536596
 21
73.490620
 31
0.0
 11
34.707056
 21
73.421727
 31
0.0
 11
34.855699
 21
73.311039
 31
0.0
 11
35.638324
 21
72.586932
 31
0.0
 11
37.330963
 21
71.068885
 31
0.0
 11
38.950763
 21
69.738312
 31
0.0
 11
40.103520
 21
69.019767
 31
0.0
 11
41.643937
 21
68.204673
 31
0.0
 11
43.311859
 21
67.408322
 31
0.0
 11
43.416066
 21
67.361840
 31
0.0
 11
43.517419
 21
67.317667
 31
0.0
 11
43.620478
 21
67.272312
 31
0.0
  0
SPLINE
  5
13d
100
AcDbEntity
  8
firefly
 62
7
100
AcDbSpline
 70
0
 71
3
 72
10
 73
6
 74
4
 40
0.000000
 40
0.000000
 40
0.000000
 40
0.000000
 40
1.163174
 40
2.377154
 40
3.623082
 40
3.623082
 40
3.623082
 40
3.623082
 10
43.620478
 20
67.272312
 30
0.0
 10
43.745077
 20
67.639389
 30
0.0
 10
43.999716
 20
68.389575
 30
0.0
 10
44.618060
 20
69.452124
 30
0.0
 10
45.251018
 20
69.981876
 30
0.0
 10
45.571608
 20
70.250192
 30
0.0
 11
43.620478
 21
67.272312
 31
0.0
 11
44.030443
 21
68.360844
 31
0.0
 11
44.664515
 21
69.396073
 31
0.0
 11
45.571608
 21
70.250192
 31
0.0
  0
SPLINE
  5
13e
100
AcDbEntity
  8
firefly
 62
7
100
AcDbSpline
 70
0
 71
3
 72
16
 73
12
 74
10
 40
0.000000
 40
0.000000
 40
0.000000
 40
0.000000
 40
0.036466
 40
0.072921
 40
0.109388
 40
2.878240
 40
5.189880
 40
7.448847
 40
10.005761
 40
13.053874
 40
16.664670
 40
16.664670
 40
16.664670
 40
16.664670
 10
45.571608
 20
70.250192
 30
0.0
 10
45.565555
 20
70.260735
 30
0.0
 10
45.553451
 20
70.281818
 30
0.0
 10
45.537224
 20
70.314506
 30
0.0
 10
45.168397
 20
71.187089
 30
0.0
 10
44.408549
 20
72.737836
 30
0.0
 10
42.614840
 20
74.484517
 30
0.0
 10
40.375922
 20
75.411059
 30
0.0
 10
37.742612
 20
75.663414
 30
0.0
 10
34.671253
 20
75.377728
 30
0.0
 10
32.507229
 20
74.876694
 30
0.0
 10
31.333786
 20
74.605008
 30
0.0
 11
45.571608
 21
70.250192
 31
0.0
 11
45.553771
 21
70.281998
 31
0.0
 11
45.537564
 21
70.314652
 31
0.0
 11
45.523018
 21
70.348092
 31
0.0
 11
44.195945
 21
72.778199
 31
0.0
 11
42.520443
 21
74.370797
 31
0.0
 11
40.447544
 21
75.268587
 31
0.0
 11
37.908944
 21
75.574062
 31
0.0
 11
34.870343
 21
75.333439
 31
0.0
 11
31.333786
 21
74.605008
 31
0.0
  0
SPLINE
  5
13f
100
AcDbEntity
  8
firefly
 62
7
100
AcDbSpline
 70
0
 71
3
 72
16
 73
12
 74
10
 40
0.000000
 40
0.000000
 40
0.000000
 40
0.000000
 40
0.258801
 40
0.513719
 40
0.772521
 40
1.031322
 40
1.286240
 40
1.545041
 40
1.803843
 40
2.058761
 40
2.317562
 40
2.317562
 40
2.317562
 40
2.317562
 10
31.333786
 20
74.605008
 30
0.0
 10
31.248035
 20
74.589148
 30
0.0
 10
31.077819
 20
74.557665
 30
0.0
 10
30.821539
 20
74.627684
 30
0.0
 10
30.605781
 20
74.776350
 30
0.0
 10
30.456169
 20
74.993287
 30
0.0
 10
30.391904
 20
75.248035
 30
0.0
 10
30.420710
 20
75.509981
 30
0.0
 10
30.540131
 20
75.743201
 30
0.0
 10
30.732530
 20
75.926408
 30
0.0
 10
30.897311
 20
75.979434
 30
0.0
 10
30.980325
 20
76.006147
 30
0.0
 11
31.333786
 21
74.605008
 31
0.0
 11
31.076479
 21
74.577234
 31
0.0
 11
30.829463
 21
74.640210
 31
0.0
 11
30.616861
 21
74.787786
 31
0.0
 11
30.469821
 21
75.000759
 31
0.0
 11
30.407467
 21
75.247933
 31
0.0
 11
30.435889
 21
75.505169
 31
0.0
 11
30.553048
 21
75.735933
 31
0.0
 11
30.740634
 21
75.908545
 31
0.0
 11
30.980325
 21
76.006147
 31
0.0
  0
LWPOLYLINE
  5
140
100
AcDbEntity
  8
firefly
 62
7
100
AcDbPolyline
 90
2
 70
0
 10
29.771990
 20
54.684472
 30
0.0
 10
30.901135
 20
54.546232
 30
0.0
  0
SPLINE
  5
141
100
AcDbEntity
  8
firefly
 62
7
100
AcDbSpline
 70
0
 71
3
 72
13
 73
9
 74
7
 40
0.000000
 40
0.000000
 40
0.000000
 40
0.000000
 40
1.940106
 40
3.755642
 40
5.452257
 40
5.858945
 40
6.258944
 40
6.652495
 40
6.652495
 40
6.652495
 40
6.652495
 10
30.980325
 20
76.006147
 30
0.0
 10
31.609012
 20
76.158143
 30
0.0
 10
32.826020
 20
76.452377
 30
0.0
 10
34.614487
 20
76.781003
 30
0.0
 10
35.912221
 20
76.940654
 30
0.0
 10
36.744651
 20
76.999061
 30
0.0
 10
37.144274
 20
77.019205
 30
0.0
 10
37.408742
 20
77.024872
 30
0.0
 10
37.539901
 20
77.027682
 30
0.0
 11
30.980325
 21
76.006147
 31
0.0
 11
32.870371
 21
76.444025
 31
0.0
 11
34.656432
 21
76.769838
 31
0.0
 11
36.341273
 21
76.969382
 31
0.0
 11
36.746961
 21
76.997875
 31
0.0
 11
37.146485
 21
77.017369
 31
0.0
 11
37.539901
 21
77.027682
 31
0.0
  0
SPLINE
  5
142
100
AcDbEntity
  8
firefly
 62
7
100
AcDbSpline
 70
0
 71
3
 72
16
 73
12
 74
10
 40
0.000000
 40
0.000000
 40
0.000000
 40
0.000000
 40
1.144317
 40
2.241028
 40
3.300768
 40
6.016540
 40
8.806550
 40
11.968449
 40
11.995555
 40
12.022656
 40
12.049762
 40
12.049762
 40
12.049762
 40
12.049762
 10
58.458756
 20
77.027607
 30
0.0
 10
58.077137
 20
77.025491
 30
0.0
 10
57.329775
 20
77.021348
 30
0.0
 10
56.233781
 20
76.901467
 30
0.0
 10
54.640669
 20
76.581747
 30
0.0
 10
52.588576
 20
75.692822
 30
0.0
 10
50.478755
 20
73.643021
 30
0.0
 10
49.513528
 20
71.864722
 30
0.0
 10
49.124419
 20
70.865739
 30
0.0
 10
49.115708
 20
70.840059
 30
0.0
 10
49.110680
 20
70.822702
 30
0.0
 10
49.108166
 20
70.814023
 30
0.0
 11
58.458756
 21
77.027607
 31
0.0
 11
57.314746
 21
77.001119
 31
0.0
 11
56.224329
 21
76.883781
 31
0.0
 11
55.186446
 21
76.669663
 31
0.0
 11
52.704402
 21
75.567449
 31
0.0
 11
50.676490
 21
73.651274
 31
0.0
 11
49.134266
 21
70.890993
 31
0.0
 11
49.124606
 21
70.865667
 31
0.0
 11
49.115903
 21
70.840001
 31
0.0
 11
49.108166
 21
70.814023
 31
0.0
  0
LWPOLYLINE
  5
143
100
AcDbEntity
  8
firefly
 62
7
100
AcDbPolyline
 90
2
 70
0
 10
37.539901
 20
77.027682
 30
0.0
 10
37.539496
 20
77.027611
 30
0.0
  0
SPLINE
  5
144
100
AcDbEntity
  8
firefly
 62
7
100
AcDbSpline
 70
0
 71
3
 72
13
 73
9
 74
7
 40
0.000000
 40
0.000000
 40
0.000000
 40
0.000000
 40
0.320681
 40
0.655169
 40
1.006750
 40
1.043787
 40
1.080074
 40
1.116689
 40
1.116689
 40
1.116689
 40
1.116689
 10
49.108166
 20
70.814023
 30
0.0
 10
49.003313
 20
70.835099
 30
0.0
 10
48.789093
 20
70.878159
 30
0.0
 10
48.454980
 20
70.913032
 30
0.0
 10
48.213913
 20
70.924666
 30
0.0
 10
48.072279
 20
70.921685
 30
0.0
 10
48.035709
 20
70.919204
 30
0.0
 10
48.011424
 20
70.918321
 30
0.0
 10
47.999226
 20
70.917878
 30
0.0
 11
49.108166
 21
70.814023
 31
0.0
 11
48.792838
 21
70.872373
 31
0.0
 11
48.460407
 21
70.909415
 31
0.0
 11
48.109066
 21
70.922378
 31
0.0
 11
48.072042
 21
70.921389
 31
0.0
 11
48.035810
 21
70.919400
 31
0.0
 11
47.999226
 21
70.917878
 31
0.0
  0
SPLINE
  5
145
100
AcDbEntity
  8
firefly
 62
7
100
AcDbSpline
 70
0
 71
3
 72
13
 73
9
 74
7
 40
0.000000
 40
0.000000
 40
0.000000
 40
0.000000
 40
0.691490
 40
1.370747
 40
2.039890
 40
3.368379
 40
4.694120
 40
6.029243
 40
6.029243
 40
6.029243
 40
6.029243
 10
47.999226
 20
40.275172
 30
0.0
 10
48.229770
 20
40.274251
 30
0.0
 10
48.686781
 20
40.272425
 30
0.0
 10
49.365442
 20
40.215845
 30
0.0
 10
50.246111
 20
40.074436
 30
0.0
 10
51.367248
 20
40.065021
 30
0.0
 10
52.661320
 20
40.403842
 30
0.0
 10
53.498873
 20
40.693848
 30
0.0
 10
53.919126
 20
40.839362
 30
0.0
 11
47.999226
 21
40.275172
 31
0.0
 11
48.690613
 21
40.263198
 31
0.0
 11
49.367539
 21
40.206979
 31
0.0
 11
50.031066
 21
40.120472
 31
0.0
 11
51.359553
 21
40.123371
 31
0.0
 11
52.651926
 21
40.418936
 31
0.0
 11
53.919126
 21
40.839362
 31
0.0
  0
SPLINE
  5
146
100
AcDbEntity
  8
firefly
 62
7
100
AcDbSpline
 70
0
 71
3
 72
13
 73
9
 74
7
 40
0.000000
 40
0.000000
 40
0.000000
 40
0.000000
 40
0.009365
 40
0.018908
 40
0.027891
 40
1.306352
 40
2.536579
 40
3.621623
 40
3.621623
 40
3.621623
 40
3.621623
 10
53.919126
 20
40.839362
 30
0.0
 10
53.918757
 20
40.836261
 30
0.0
 10
53.918013
 20
40.830001
 30
0.0
 10
53.916392
 20
40.820844
 30
0.0
 10
53.856501
 20
40.392652
 30
0.0
 10
53.891570
 20
39.547963
 30
0.0
 10
53.920149
 20
38.352185
 30
0.0
 10
53.891808
 20
37.580513
 30
0.0
 10
53.878526
 20
37.218872
 30
0.0
 11
53.919126
 21
40.839362
 31
0.0
 11
53.917933
 21
40.830073
 31
0.0
 11
53.916419
 21
40.820651
 31
0.0
 11
53.915126
 21
40.811762
 31
0.0
 11
53.888348
 21
39.533581
 31
0.0
 11
53.908104
 21
38.303513
 31
0.0
 11
53.878526
 21
37.218872
 31
0.0
  0
SPLINE
  5
147
100
AcDbEntity
  8
firefly
 62
7
100
AcDbSpline
 70
0
 71
3
 72
16
 73
12
 74
10
 40
0.000000
 40
0.000000
 40
0.000000
 40
0.000000
 40
0.069747
 40
0.140786
 40
0.225951
 40
0.409933
 40
0.600773
 40
0.780469
 40
1.955651
 40
3.039036
 40
3.965001
 40
3.965001
 40
3.965001
 40
3.965001
 10
53.878526
 20
37.218872
 30
0.0
 10
53.856583
 20
37.211249
 30
0.0
 10
53.812290
 20
37.195862
 30
0.0
 10
53.740963
 20
37.170694
 30
0.0
 10
53.646218
 20
37.106250
 30
0.0
 10
53.543997
 20
36.990127
 30
0.0
 10
53.446736
 20
36.831020
 30
0.0
 10
53.299401
 20
36.334509
 30
0.0
 10
53.220165
 20
35.522192
 30
0.0
 10
53.106380
 20
34.467280
 30
0.0
 10
52.983235
 20
33.808545
 30
0.0
 10
52.926486
 20
33.504982
 30
0.0
 11
53.878526
 21
37.218872
 31
0.0
 11
53.812660
 21
37.195931
 31
0.0
 11
53.746622
 21
37.169746
 31
0.0
 11
53.675256
 21
37.123272
 31
0.0
 11
53.549750
 21
36.988745
 31
0.0
 11
53.452652
 21
36.824453
 31
0.0
 11
53.395786
 21
36.653992
 31
0.0
 11
53.215205
 21
35.492766
 31
0.0
 11
53.085827
 21
34.417134
 31
0.0
 11
52.926486
 21
33.504982
 31
0.0
  0
LWPOLYLINE
  5
148
100
AcDbEntity
  8
firefly
 62
7
100
AcDbPolyline
 90
4
 70
0
 10
47.999226
 20
70.917878
 30
0.0
 10
47.999226
 20
64.914272
 30
0.0
 10
47.999226
 20
64.733432
 30
0.0
 10
47.999226
 20
40.275172
 30
0.0
  0
SPLINE
  5
149
100
AcDbEntity
  8
firefly
 62
7
100
AcDbSpline
 70
0
 71
3
 72
13
 73
9
 74
7
 40
0.000000
 40
0.000000
 40
0.000000
 40
0.000000
 40
0.054375
 40
0.110129
 40
0.181733
 40
0.365635
 40
0.577288
 40
0.794261
 40
0.794261
 40
0.794261
 40
0.794261
 10
52.926486
 20
33.504982
 30
0.0
 10
52.908437
 20
33.503401
 30
0.0
 10
52.871880
 20
33.500200
 30
0.0
 10
52.811594
 20
33.492995
 30
0.0
 10
52.712077
 20
33.461328
 30
0.0
 10
52.577972
 20
33.379560
 30
0.0
 10
52.423105
 20
33.242245
 30
0.0
 10
52.352465
 20
33.116975
 30
0.0
 10
52.316706
 20
33.053562
 30
0.0
 11
52.926486
 21
33.504982
 31
0.0
 11
52.872343
 21
33.499956
 31
0.0
 11
52.817145
 21
33.492108
 31
0.0
 11
52.748636
 21
33.471282
 31
0.0
 11
52.588865
 21
33.380215
 31
0.0
 11
52.433650
 21
33.236322
 31
0.0
 11
52.316706
 21
33.053562
 31
0.0
  0
SPLINE
  5
14a
100
AcDbEntity
  8
firefly
 62
7
100
AcDbSpline
 70
0
 71
3
 72
10
 73
6
 74
4
 40
0.000000
 40
0.000000
 40
0.000000
 40
0.000000
 40
0.861183
 40
1.775442
 40
2.629606
 40
2.629606
 40
2.629606
 40
2.629606
 10
52.313706
 20
33.053562
 30
0.0
 10
52.195683
 20
32.791917
 30
0.0
 10
51.952362
 20
32.252500
 30
0.0
 10
51.559385
 20
31.467815
 30
0.0
 10
51.247189
 20
30.967472
 30
0.0
 10
51.096396
 20
30.725802
 30
0.0
 11
52.313706
 21
33.053562
 31
0.0
 11
51.954458
 21
32.270889
 31
0.0
 11
51.537597
 21
31.457195
 31
0.0
 11
51.096396
 21
30.725802
 31
0.0
  0
LWPOLYLINE
  5
14b
100
AcDbEntity
  8
firefly
 62
7
100
AcDbPolyline
 90
2
 70
0
 10
52.316706
 20
33.053562
 30
0.0
 10
52.313706
 20
33.053562
 30
0.0
  0
SPLINE
  5
14c
100
AcDbEntity
  8
firefly
 62
7
100
AcDbSpline
 70
0
 71
3
 72
16
 73
12
 74
10
 40
0.000000
 40
0.000000
 40
0.000000
 40
0.000000
 40
0.261748
 40
0.528083
 40
0.770859
 40
1.584360
 40
2.372793
 40
3.098624
 40
3.602170
 40
3.991921
 40
4.288092
 40
4.288092
 40
4.288092
 40
4.288092
 10
51.096396
 20
30.725802
 30
0.0
 10
51.009279
 20
30.727163
 30
0.0
 10
50.833520
 20
30.729907
 30
0.0
 10
50.574744
 20
30.687692
 30
0.0
 10
50.196652
 20
30.445831
 30
0.0
 10
49.835002
 20
29.935415
 30
0.0
 10
49.362377
 20
29.324859
 30
0.0
 10
48.966186
 20
28.778598
 30
0.0
 10
48.603220
 20
28.380587
 30
0.0
 10
48.303394
 20
28.112523
 30
0.0
 10
48.090759
 20
28.024884
 30
0.0
 10
47.998946
 20
27.987042
 30
0.0
 11
51.096396
 21
30.725802
 31
0.0
 11
50.834674
 21
30.722104
 31
0.0
 11
50.573778
 21
30.668553
 31
0.0
 11
50.364816
 21
30.544962
 31
0.0
 11
49.827199
 21
29.934428
 31
0.0
 11
49.352413
 21
29.304980
 31
0.0
 11
48.910616
 21
28.729092
 31
0.0
 11
48.569793
 21
28.358420
 31
0.0
 11
48.266976
 21
28.113048
 31
0.0
 11
47.998946
 21
27.987042
 31
0.0
  0
SPLINE
  5
14d
100
AcDbEntity
  8
firefly
 62
7
100
AcDbSpline
 70
0
 71
3
 72
13
 73
9
 74
7
 40
0.000000
 40
0.000000
 40
0.000000
 40
0.000000
 40
0.843418
 40
1.658355
 40
2.454507
 40
3.096188
 40
3.690354
 40
4.237702
 40
4.237702
 40
4.237702
 40
4.237702
 10
47.998946
 20
26.529852
 30
0.0
 10
48.278323
 20
26.585084
 30
0.0
 10
48.827644
 20
26.693683
 30
0.0
 10
49.492711
 20
27.205701
 30
0.0
 10
49.996110
 20
27.760557
 30
0.0
 10
50.416426
 20
28.292606
 30
0.0
 10
50.778020
 20
28.764232
 30
0.0
 10
51.018465
 20
29.059191
 30
0.0
 10
51.133756
 20
29.200622
 30
0.0
 11
47.998946
 21
26.529852
 31
0.0
 11
48.811218
 21
26.756939
 31
0.0
 11
49.478221
 21
27.225159
 31
0.0
 11
50.023306
 21
27.805452
 31
0.0
 11
50.424898
 21
28.305929
 31
0.0
 11
50.789944
 21
28.774731
 31
0.0
 11
51.133756
 21
29.200622
 31
0.0
  0
SPLINE
  5
14e
100
AcDbEntity
  8
firefly
 62
7
100
AcDbSpline
 70
0
 71
3
 72
16
 73
12
 74
10
 40
0.000000
 40
0.000000
 40
0.000000
 40
0.000000
 40
0.007015
 40
0.011294
 40
0.018917
 40
0.329566
 40
0.683799
 40
0.996798
 40
2.000746
 40
2.985727
 40
3.899345
 40
3.899345
 40
3.899345
 40
3.899345
 10
51.133756
 20
29.200622
 30
0.0
 10
51.136041
 20
29.199869
 30
0.0
 10
51.139720
 20
29.198656
 30
0.0
 10
51.143650
 20
29.193411
 30
0.0
 10
51.251117
 20
29.163496
 30
0.0
 10
51.477185
 20
29.180461
 30
0.0
 10
51.794236
 20
29.277317
 30
0.0
 10
52.241065
 20
29.625190
 30
0.0
 10
52.610914
 20
30.318487
 30
0.0
 10
53.048783
 20
31.175097
 30
0.0
 10
53.292600
 20
31.760184
 30
0.0
 10
53.409926
 20
32.041732
 30
0.0
 11
51.133756
 21
29.200622
 31
0.0
 11
51.140097
 21
29.197622
 31
0.0
 11
51.143149
 21
29.194622
 31
0.0
 11
51.150156
 21
29.191622
 31
0.0
 11
51.460802
 21
29.190076
 31
0.0
 11
51.796914
 21
29.301921
 31
0.0
 11
52.048386
 21
29.488282
 31
0.0
 11
52.608989
 21
30.321130
 31
0.0
 11
53.048083
 21
31.202824
 31
0.0
 11
53.409926
 21
32.041732
 31
0.0
  0
SPLINE
  5
14f
100
AcDbEntity
  8
firefly
 62
7
100
AcDbSpline
 70
0
 71
3
 72
19
 73
15
 74
13
 40
0.000000
 40
0.000000
 40
0.000000
 40
0.000000
 40
0.010157
 40
0.017621
 40
0.028492
 40
0.121448
 40
0.237721
 40
0.385495
 40
0.573530
 40
0.787105
 40
1.002369
 40
2.192888
 40
3.359261
 40
4.449820
 40
4.449820
 40
4.449820
 40
4.449820
 10
53.409926
 20
32.041732
 30
0.0
 10
53.413314
 20
32.041540
 30
0.0
 10
53.419191
 20
32.041208
 30
0.0
 10
53.428458
 20
32.038948
 30
0.0
 10
53.465687
 20
32.038031
 30
0.0
 10
53.539010
 20
32.040992
 30
0.0
 10
53.656805
 20
32.060468
 30
0.0
 10
53.800704
 20
32.108665
 30
0.0
 10
53.957136
 20
32.206598
 30
0.0
 10
54.107441
 20
32.350787
 30
0.0
 10
54.370106
 20
32.827525
 30
0.0
 10
54.533664
 20
33.685538
 30
0.0
 10
54.647248
 20
34.824453
 30
0.0
 10
54.715315
 20
35.574261
 30
0.0
 10
54.748206
 20
35.936572
 30
0.0
 11
53.409926
 21
32.041732
 31
0.0
 11
53.420041
 21
32.040803
 31
0.0
 11
53.427378
 21
32.039434
 31
0.0
 11
53.438226
 21
32.038732
 31
0.0
 11
53.531111
 21
32.042376
 31
0.0
 11
53.645814
 21
32.061415
 31
0.0
 11
53.785706
 21
32.109032
 31
0.0
 11
53.946247
 21
32.206930
 31
0.0
 11
54.098365
 21
32.356844
 31
0.0
 11
54.208666
 21
32.541702
 31
0.0
 11
54.516773
 21
33.691660
 31
0.0
 11
54.648065
 21
34.850621
 31
0.0
 11
54.748206
 21
35.936572
 31
0.0
  0
SPLINE
  5
150
100
AcDbEntity
  8
firefly
 62
7
100
AcDbSpline
 70
0
 71
3
 72
16
 73
12
 74
10
 40
0.000000
 40
0.000000
 40
0.000000
 40
0.000000
 40
0.093959
 40
0.197970
 40
0.322020
 40
0.507294
 40
0.697651
 40
0.875392
 40
2.039291
 40
3.202672
 40
4.318350
 40
4.318350
 40
4.318350
 40
4.318350
 10
54.748206
 20
35.936572
 30
0.0
 10
54.778189
 20
35.945654
 30
0.0
 10
54.841364
 20
35.964789
 30
0.0
 10
54.940046
 20
36.008276
 30
0.0
 10
55.053107
 20
36.089003
 30
0.0
 10
55.162627
 20
36.216387
 30
0.0
 10
55.255125
 20
36.377952
 30
0.0
 10
55.391720
 20
36.872648
 30
0.0
 10
55.416433
 20
37.716018
 30
0.0
 10
55.391042
 20
38.860615
 30
0.0
 10
55.363305
 20
39.620166
 30
0.0
 10
55.349726
 20
39.991992
 30
0.0
 11
54.748206
 21
35.936572
 31
0.0
 11
54.837592
 21
35.965529
 31
0.0
 11
54.932344
 21
36.008428
 31
0.0
 11
55.033656
 21
36.080012
 31
0.0
 11
55.156759
 21
36.218476
 31
0.0
 11
55.249557
 21
36.384682
 31
0.0
 11
55.301926
 21
36.554532
 31
0.0
 11
55.406403
 21
37.713732
 31
0.0
 11
55.387842
 21
38.876965
 31
0.0
 11
55.349726
 21
39.991992
 31
0.0
  0
SPLINE
  5
151
100
AcDbEntity
  8
firefly
 62
7
100
AcDbSpline
 70
0
 71
3
 72
25
 73
21
 74
19
 40
0.000000
 40
0.000000
 40
0.000000
 40
0.000000
 40
0.009306
 40
0.018241
 40
0.027912
 40
0.090030
 40
0.154462
 40
0.184690
 40
0.228049
 40
0.307628
 40
0.350900
 40
0.381739
 40
0.447517
 40
0.511488
 40
0.608692
 40
0.696420
 40
0.773730
 40
3.068373
 40
5.379007
 40
7.683531
 40
7.683531
 40
7.683531
 40
7.683531
 10
55.349726
 20
39.991992
 30
0.0
 10
55.352588
 20
39.993185
 30
0.0
 10
55.358199
 20
39.995524
 30
0.0
 10
55.366903
 20
39.998854
 30
0.0
 10
55.390414
 20
40.012033
 30
0.0
 10
55.428738
 20
40.036496
 30
0.0
 10
55.470784
 20
40.067319
 30
0.0
 10
55.509850
 20
40.092275
 30
0.0
 10
55.541145
 20
40.133425
 30
0.0
 10
55.578283
 20
40.174141
 30
0.0
 10
55.614372
 20
40.210918
 30
0.0
 10
55.638716
 20
40.250864
 30
0.0
 10
55.667542
 20
40.295876
 30
0.0
 10
55.703942
 20
40.362439
 30
0.0
 10
55.730568
 20
40.441419
 30
0.0
 10
55.750066
 20
40.526835
 30
0.0
 10
55.821607
 20
41.344513
 30
0.0
 10
55.847905
 20
42.905821
 30
0.0
 10
55.861582
 20
45.209267
 30
0.0
 10
55.802339
 20
46.746736
 30
0.0
 10
55.772756
 20
47.514452
 30
0.0
 11
55.349726
 21
39.991992
 31
0.0
 11
55.358333
 21
39.995529
 31
0.0
 11
55.366585
 21
39.998955
 31
0.0
 11
55.375126
 21
40.003492
 31
0.0
 11
55.427686
 21
40.036599
 31
0.0
 11
55.480609
 21
40.073351
 31
0.0
 11
55.505156
 21
40.090992
 31
0.0
 11
55.534037
 21
40.123332
 31
0.0
 11
55.586982
 21
40.182742
 31
0.0
 11
55.615756
 21
40.215062
 31
0.0
 11
55.632690
 21
40.240835
 31
0.0
 11
55.667229
 21
40.296815
 31
0.0
 11
55.697256
 21
40.353302
 31
0.0
 11
55.729915
 21
40.444855
 31
0.0
 11
55.748730
 21
40.530542
 31
0.0
 11
55.757056
 21
40.607402
 31
0.0
 11
55.843657
 21
42.900410
 31
0.0
 11
55.844455
 21
45.211044
 31
0.0
 11
55.772756
 21
47.514452
 31
0.0
  0
SPLINE
  5
152
100
AcDbEntity
  8
firefly
 62
7
100
AcDbSpline
 70
0
 71
3
 72
25
 73
21
 74
19
 40
0.000000
 40
0.000000
 40
0.000000
 40
0.000000
 40
0.547810
 40
0.991018
 40
1.288126
 40
1.688965
 40
2.500407
 40
3.534745
 40
4.651405
 40
5.771012
 40
6.801007
 40
7.422709
 40
8.006430
 40
8.609325
 40
9.245599
 40
9.917536
 40
10.612195
 40
11.999519
 40
13.230662
 40
14.113501
 40
14.113501
 40
14.113501
 40
14.113501
 10
55.772756
 20
47.514452
 30
0.0
 10
55.941710
 20
47.443858
 30
0.0
 10
56.247356
 20
47.316150
 30
0.0
 10
56.621775
 20
47.113201
 30
0.0
 10
56.939728
 20
46.879338
 30
0.0
 10
57.066222
 20
46.368865
 30
0.0
 10
57.295056
 20
45.668444
 30
0.0
 10
57.490990
 20
44.693296
 30
0.0
 10
57.648064
 20
43.616697
 30
0.0
 10
57.807802
 20
42.537850
 30
0.0
 10
57.879340
 20
41.619238
 30
0.0
 10
58.082302
 20
40.886199
 30
0.0
 10
58.484631
 20
40.420442
 30
0.0
 10
58.952543
 20
40.034555
 30
0.0
 10
59.468840
 20
39.659711
 30
0.0
 10
60.037789
 20
39.309753
 30
0.0
 10
60.839705
 20
38.862622
 30
0.0
 10
61.829311
 20
38.371120
 30
0.0
 10
62.893328
 20
37.891266
 30
0.0
 10
63.541315
 20
37.614369
 30
0.0
 10
63.811926
 20
37.498732
 30
0.0
 11
55.772756
 21
47.514452
 31
0.0
 11
56.274243
 21
47.293983
 31
0.0
 11
56.661046
 21
47.077611
 31
0.0
 11
56.886186
 21
46.883742
 31
0.0
 11
57.034204
 21
46.511233
 31
0.0
 11
57.259611
 21
45.731727
 31
0.0
 11
57.476536
 21
44.720392
 31
0.0
 11
57.648413
 21
43.617040
 31
0.0
 11
57.798719
 21
42.507568
 31
0.0
 11
57.931616
 21
41.486182
 31
0.0
 11
58.127977
 21
40.896304
 31
0.0
 11
58.490185
 21
40.438553
 31
0.0
 11
58.947926
 21
40.046182
 31
0.0
 11
59.463510
 21
39.673332
 31
0.0
 11
60.033688
 21
39.317809
 31
0.0
 11
60.639746
 21
38.978332
 31
0.0
 11
61.879783
 21
38.356256
 31
0.0
 11
63.001062
 21
37.847881
 31
0.0
 11
63.811926
 21
37.498732
 31
0.0
  0
SPLINE
  5
153
100
AcDbEntity
  8
firefly
 62
7
100
AcDbSpline
 70
0
 71
3
 72
16
 73
12
 74
10
 40
0.000000
 40
0.000000
 40
0.000000
 40
0.000000
 40
0.260240
 40
0.516535
 40
0.776776
 40
1.037016
 40
1.293311
 40
1.553551
 40
1.813792
 40
2.070087
 40
2.330327
 40
2.330327
 40
2.330327
 40
2.330327
 10
63.811926
 20
37.498732
 30
0.0
 10
63.894312
 20
37.468665
 30
0.0
 10
64.057836
 20
37.408987
 30
0.0
 10
64.323669
 20
37.436230
 30
0.0
 10
64.562009
 20
37.548631
 30
0.0
 10
64.745447
 20
37.739939
 30
0.0
 10
64.849749
 20
37.982718
 30
0.0
 10
64.862240
 20
38.247467
 30
0.0
 10
64.779704
 20
38.497722
 30
0.0
 10
64.616471
 20
38.709298
 30
0.0
 10
64.460618
 20
38.786830
 30
0.0
 10
64.382096
 20
38.825892
 30
0.0
 11
63.811926
 21
37.498732
 31
0.0
 11
64.062448
 21
37.428278
 31
0.0
 11
64.317818
 21
37.450033
 31
0.0
 11
64.552812
 21
37.561849
 31
0.0
 11
64.733021
 21
37.749598
 31
0.0
 11
64.834189
 21
37.985081
 31
0.0
 11
64.846322
 21
38.245039
 31
0.0
 11
64.765664
 21
38.492464
 31
0.0
 11
64.605653
 21
38.692674
 31
0.0
 11
64.382096
 21
38.825892
 31
0.0
  0
SPLINE
  5
154
100
AcDbEntity
  8
firefly
 62
7
100
AcDbSpline
 70
0
 71
3
 72
25
 73
21
 74
19
 40
0.000000
 40
0.000000
 40
0.000000
 40
0.000000
 40
0.879829
 40
2.068232
 40
3.375867
 40
4.014916
 40
4.606967
 40
5.122755
 40
5.523059
 40
5.767986
 40
5.816113
 40
6.840595
 40
7.978878
 40
9.139015
 40
10.218201
 40
11.179484
 40
12.057329
 40
12.981089
 40
13.906101
 40
14.846489
 40
14.846489
 40
14.846489
 40
14.846489
 10
64.382096
 20
38.825892
 30
0.0
 10
64.112512
 20
38.941386
 30
0.0
 10
63.478794
 20
39.212881
 30
0.0
 10
62.453416
 20
39.676535
 30
0.0
 10
61.516166
 20
40.140286
 30
0.0
 10
60.778030
 20
40.554080
 30
0.0
 10
60.281815
 20
40.860424
 30
0.0
 10
59.874745
 20
41.153461
 30
0.0
 10
59.571613
 20
41.400607
 30
0.0
 10
59.458642
 20
41.611853
 30
0.0
 10
59.087515
 20
41.857536
 30
0.0
 10
59.344056
 20
42.800293
 30
0.0
 10
59.049367
 20
43.807634
 30
0.0
 10
58.914854
 20
44.945035
 30
0.0
 10
58.725968
 20
45.990544
 30
0.0
 10
58.500906
 20
46.939992
 30
0.0
 10
58.090940
 20
47.780421
 30
0.0
 10
57.418071
 20
48.418119
 30
0.0
 10
56.586497
 20
48.852060
 30
0.0
 10
55.989344
 20
49.028437
 30
0.0
 10
55.688306
 20
49.117352
 30
0.0
 11
64.382096
 21
38.825892
 31
0.0
 11
63.574341
 21
39.174649
 31
0.0
 11
62.492337
 21
39.666145
 31
0.0
 11
61.323496
 21
40.252422
 31
0.0
 11
60.766586
 21
40.565845
 31
0.0
 11
60.264626
 21
40.879789
 31
0.0
 11
59.846136
 21
41.181292
 31
0.0
 11
59.555423
 21
41.456481
 31
0.0
 11
59.402269
 21
41.647616
 31
0.0
 11
59.363396
 21
41.675992
 31
0.0
 11
59.231503
 21
42.691948
 31
0.0
 11
59.078849
 21
43.819949
 31
0.0
 11
58.900096
 21
44.966232
 31
0.0
 11
58.708676
 21
46.028306
 31
0.0
 11
58.458666
 21
46.956508
 31
0.0
 11
58.055666
 21
47.736382
 31
0.0
 11
57.394670
 21
48.381687
 31
0.0
 11
56.581002
 21
48.821674
 31
0.0
 11
55.688306
 21
49.117352
 31
0.0
  0
SPLINE
  5
155
100
AcDbEntity
  8
firefly
 62
7
100
AcDbSpline
 70
0
 71
3
 72
10
 73
6
 74
4
 40
0.000000
 40
0.000000
 40
0.000000
 40
0.000000
 40
3.421429
 40
6.630354
 40
9.532645
 40
9.532645
 40
9.532645
 40
9.532645
 10
55.688306
 20
49.117352
 30
0.0
 10
55.603235
 20
50.254739
 30
0.0
 10
55.438378
 20
52.458869
 30
0.0
 10
55.075463
 20
55.616543
 30
0.0
 10
54.782159
 20
57.632425
 30
0.0
 10
54.642866
 20
58.589792
 30
0.0
 11
55.688306
 21
49.117352
 31
0.0
 11
55.409777
 21
52.527425
 31
0.0
 11
55.047068
 21
55.715785
 31
0.0
 11
54.642866
 21
58.589792
 31
0.0
  0
LWPOLYLINE
  5
156
100
AcDbEntity
  8
firefly
 62
7
100
AcDbPolyline
 90
2
 70
0
 10
47.998946
 20
27.987042
 30
0.0
 10
47.998946
 20
26.529852
 30
0.0
  0
SPLINE
  5
157
100
AcDbEntity
  8
firefly
 62
7
100
AcDbSpline
 70
0
 71
3
 72
25
 73
21
 74
19
 40
0.000000
 40
0.000000
 40
0.000000
 40
0.000000
 40
0.042063
 40
0.084087
 40
0.126245
 40
0.955874
 40
1.784289
 40
2.669698
 40
3.643143
 40
4.711244
 40
5.891634
 40
6.464195
 40
7.019060
 40
7.603859
 40
8.232185
 40
8.894740
 40
9.577166
 40
10.931658
 40
12.135585
 40
13.021068
 40
13.021068
 40
13.021068
 40
13.021068
 10
54.642866
 20
58.589792
 30
0.0
 10
54.654669
 20
58.582224
 30
0.0
 10
54.678263
 20
58.567096
 30
0.0
 10
54.713854
 20
58.544625
 30
0.0
 10
54.962921
 20
58.369166
 30
0.0
 10
55.381989
 20
57.980173
 30
0.0
 10
55.901531
 20
57.307936
 30
0.0
 10
56.376889
 20
56.548109
 30
0.0
 10
56.875907
 20
55.709411
 30
0.0
 10
57.486563
 20
54.825813
 30
0.0
 10
58.079107
 20
54.090149
 30
0.0
 10
58.691395
 20
53.608763
 30
0.0
 10
59.235844
 20
53.416931
 30
0.0
 10
59.811435
 20
53.292975
 30
0.0
 10
60.429013
 20
53.191775
 30
0.0
 10
61.083721
 20
53.125932
 30
0.0
 10
61.981852
 20
53.068591
 30
0.0
 10
63.062297
 20
53.045608
 30
0.0
 10
64.210387
 20
53.059598
 30
0.0
 10
64.906209
 20
53.090293
 30
0.0
 10
65.201096
 20
53.103302
 30
0.0
 11
54.642866
 21
58.589792
 31
0.0
 11
54.678302
 21
58.567129
 31
0.0
 11
54.713620
 21
58.544355
 31
0.0
 11
54.748236
 21
58.520292
 31
0.0
 11
55.364764
 21
57.965155
 31
0.0
 11
55.878928
 21
57.315612
 31
0.0
 11
56.358616
 21
56.571402
 31
0.0
 11
56.868607
 21
55.742243
 31
0.0
 11
57.475689
 21
54.863441
 31
0.0
 11
58.250706
 21
53.973122
 31
0.0
 11
58.711405
 21
53.633146
 31
0.0
 11
59.228374
 21
53.431611
 31
0.0
 11
59.798306
 21
53.300582
 31
0.0
 11
60.418516
 21
53.199918
 31
0.0
 11
61.077430
 21
53.130552
 31
0.0
 11
61.758406
 21
53.086102
 31
0.0
 11
63.112482
 21
53.052539
 31
0.0
 11
64.316307
 21
53.068265
 31
0.0
 11
65.201096
 21
53.103302
 31
0.0
  0
LWPOLYLINE
  5
158
100
AcDbEntity
  8
firefly
 62
7
100
AcDbPolyline
 90
3
 70
0
 10
65.201096
 20
53.103302
 30
0.0
 10
65.226496
 20
53.103302
 30
0.0
 10
66.401966
 20
53.246752
 30
0.0
  0
SPLINE
  5
159
100
AcDbEntity
  8
firefly
 62
7
100
AcDbSpline
 70
0
 71
3
 72
16
 73
12
 74
10
 40
0.000000
 40
0.000000
 40
0.000000
 40
0.000000
 40
0.253532
 40
0.503415
 40
0.756947
 40
1.010479
 40
1.260361
 40
1.513894
 40
1.767426
 40
2.017308
 40
2.270841
 40
2.270841
 40
2.270841
 40
2.270841
 10
66.401966
 20
53.246752
 30
0.0
 10
66.485322
 20
53.265278
 30
0.0
 10
66.650833
 20
53.302065
 30
0.0
 10
66.856431
 20
53.461180
 30
0.0
 10
66.997678
 20
53.675326
 30
0.0
 10
67.055806
 20
53.926648
 30
0.0
 10
67.024622
 20
54.181960
 30
0.0
 10
66.907711
 20
54.411903
 30
0.0
 10
66.719072
 20
54.585755
 30
0.0
 10
66.481220
 20
54.690707
 30
0.0
 10
66.311720
 20
54.686574
 30
0.0
 10
66.226356
 20
54.684492
 30
0.0
 11
66.401966
 21
53.246752
 31
0.0
 11
66.644735
 21
53.319841
 31
0.0
 11
66.844895
 21
53.469430
 31
0.0
 11
66.983758
 21
53.681552
 31
0.0
 11
67.041021
 21
53.928533
 31
0.0
 11
67.010725
 21
54.176572
 31
0.0
 11
66.895698
 21
54.402509
 31
0.0
 11
66.709861
 21
54.574971
 31
0.0
 11
66.479580
 21
54.671985
 31
0.0
 11
66.226356
 21
54.684492
 31
0.0
  0
SPLINE
  5
15a
100
AcDbEntity
  8
firefly
 62
7
100
AcDbSpline
 70
0
 71
3
 72
22
 73
18
 74
16
 40
0.000000
 40
0.000000
 40
0.000000
 40
0.000000
 40
0.849654
 40
1.996722
 40
3.268959
 40
3.902948
 40
4.498214
 40
5.029035
 40
5.467701
 40
5.770659
 40
5.881349
 40
6.872283
 40
7.821225
 40
8.768823
 40
9.341765
 40
9.929227
 40
10.533361
 40
10.533361
 40
10.533361
 40
10.533361
 10
65.097226
 20
54.546252
 30
0.0
 10
64.814265
 20
54.533920
 30
0.0
 10
64.149296
 20
54.504938
 30
0.0
 10
63.059535
 20
54.491487
 30
0.0
 10
62.041620
 20
54.512349
 30
0.0
 10
61.209307
 20
54.565802
 30
0.0
 10
60.625705
 20
54.627114
 30
0.0
 10
60.109373
 20
54.703184
 30
0.0
 10
59.697430
 20
54.810828
 30
0.0
 10
59.434155
 20
54.917187
 30
0.0
 10
59.006572
 20
55.113460
 30
0.0
 10
58.644172
 20
55.753108
 30
0.0
 10
58.074135
 20
56.507843
 30
0.0
 10
57.658266
 20
57.224471
 30
0.0
 10
57.285220
 20
57.818917
 30
0.0
 10
56.955989
 20
58.307236
 30
0.0
 10
56.704871
 20
58.615204
 30
0.0
 10
56.577556
 20
58.771342
 30
0.0
 11
65.097226
 21
54.546252
 31
0.0
 11
64.248222
 21
54.513015
 31
0.0
 11
63.101253
 21
54.497956
 31
0.0
 11
61.829396
 21
54.529052
 31
0.0
 11
61.196799
 21
54.571032
 31
0.0
 11
60.604840
 21
54.633695
 31
0.0
 11
60.080776
 21
54.718122
 31
0.0
 11
59.657348
 21
54.832737
 31
0.0
 11
59.375757
 21
54.944497
 31
0.0
 11
59.275956
 21
54.992372
 31
0.0
 11
58.626280
 21
55.740616
 31
0.0
 11
58.087646
 21
56.521874
 31
0.0
 11
57.590116
 21
57.328352
 31
0.0
 11
57.285069
 21
57.813336
 31
0.0
 11
56.952103
 21
58.297325
 31
0.0
 11
56.577556
 21
58.771342
 31
0.0
  0
SPLINE
  5
15b
100
AcDbEntity
  8
firefly
 62
7
100
AcDbSpline
 70
0
 71
3
 72
19
 73
15
 74
13
 40
0.000000
 40
0.000000
 40
0.000000
 40
0.000000
 40
10.026254
 40
21.172834
 40
30.679066
 40
31.320903
 40
32.153529
 40
32.606637
 40
36.487623
 40
41.244659
 40
45.889879
 40
53.926433
 40
62.127856
 40
70.358954
 40
70.358954
 40
70.358954
 40
70.358954
 10
56.577556
 20
58.771342
 30
0.0
 10
59.790628
 20
57.788089
 30
0.0
 10
66.575800
 20
55.711715
 30
0.0
 10
76.522864
 20
54.345170
 30
0.0
 10
83.217583
 20
49.491074
 30
0.0
 10
86.884505
 20
50.984234
 30
0.0
 10
86.960357
 20
51.706648
 30
0.0
 10
87.200453
 20
53.386396
 30
0.0
 10
85.570423
 20
56.405428
 30
0.0
 10
81.947659
 20
58.921921
 30
0.0
 10
76.635868
 20
61.374221
 30
0.0
 10
69.886741
 20
63.155231
 30
0.0
 10
61.909492
 20
64.841338
 30
0.0
 10
56.523803
 20
65.843644
 30
0.0
 10
53.826096
 20
66.345702
 30
0.0
 11
56.577556
 21
58.771342
 31
0.0
 11
66.234643
 21
56.075711
 31
0.0
 11
76.995489
 21
53.168743
 31
0.0
 11
86.178576
 21
50.711232
 31
0.0
 11
86.738485
 21
51.025009
 31
0.0
 11
86.979130
 21
51.822102
 31
0.0
 11
87.030466
 21
52.272292
 31
0.0
 11
85.564579
 21
55.865790
 31
0.0
 11
81.840473
 21
58.825591
 31
0.0
 11
77.637226
 21
60.803162
 31
0.0
 11
69.928772
 21
63.076032
 31
0.0
 11
61.912076
 21
64.806905
 31
0.0
 11
53.826096
 21
66.345702
 31
0.0
  0
SPLINE
  5
15c
100
AcDbEntity
  8
firefly
 62
7
100
AcDbSpline
 70
0
 71
3
 72
31
 73
27
 74
25
 40
0.000000
 40
0.000000
 40
0.000000
 40
0.000000
 40
1.688454
 40
3.282742
 40
4.640233
 40
6.911716
 40
9.214666
 40
10.267843
 40
10.556466
 40
10.839789
 40
11.128412
 40
11.417035
 40
11.700358
 40
11.988981
 40
12.174315
 40
12.358176
 40
12.543510
 40
13.609733
 40
15.883378
 40
17.979590
 40
19.337960
 40
21.080736
 40
22.929013
 40
23.043124
 40
23.153684
 40
23.266281
 40
23.266281
 40
23.266281
 40
23.266281
 10
53.826096
 20
66.345702
 30
0.0
 10
54.334358
 20
66.587537
 30
0.0
 10
55.322537
 20
67.057720
 30
0.0
 10
56.689889
 20
67.782000
 30
0.0
 10
58.168563
 20
68.707353
 30
0.0
 10
59.674717
 20
69.996816
 30
0.0
 10
61.044857
 20
71.279538
 30
0.0
 10
61.974541
 20
72.057784
 30
0.0
 10
62.325601
 20
72.482135
 30
0.0
 10
62.387702
 20
72.772893
 30
0.0
 10
62.338027
 20
73.062160
 30
0.0
 10
62.177549
 20
73.309809
 30
0.0
 10
61.934549
 20
73.475497
 30
0.0
 10
61.679738
 20
73.526945
 30
0.0
 10
61.460613
 20
73.498065
 30
0.0
 10
61.285655
 20
73.429798
 30
0.0
 10
60.913889
 20
73.123888
 30
0.0
 10
60.079390
 20
72.299125
 30
0.0
 10
58.709595
 20
71.112318
 30
0.0
 10
57.278300
 20
69.839059
 30
0.0
 10
55.790295
 20
68.942406
 30
0.0
 10
54.327404
 20
68.180597
 30
0.0
 10
53.214019
 20
67.644734
 30
0.0
 10
52.583482
 20
67.362084
 30
0.0
 10
52.480250
 20
67.317558
 30
0.0
 10
52.412208
 20
67.287499
 30
0.0
 10
52.377876
 20
67.272332
 30
0.0
 11
53.826096
 21
66.345702
 31
0.0
 11
55.345369
 21
67.082374
 31
0.0
 11
56.749696
 21
67.837106
 31
0.0
 11
57.894996
 21
68.565852
 31
0.0
 11
59.654953
 21
70.001883
 31
0.0
 11
61.367479
 21
71.541634
 31
0.0
 11
62.137276
 21
72.260379
 31
0.0
 11
62.305793
 21
72.494698
 31
0.0
 11
62.369090
 21
72.770859
 31
0.0
 11
62.319446
 21
73.055181
 31
0.0
 11
62.162594
 21
73.297463
 31
0.0
 11
61.928451
 21
73.456990
 31
0.0
 11
61.645576
 21
73.514305
 31
0.0
 11
61.461760
 21
73.490631
 31
0.0
 11
61.291294
 21
73.421738
 31
0.0
 11
61.142646
 21
73.311047
 31
0.0
 11
60.360022
 21
72.586940
 31
0.0
 11
58.667387
 21
71.068899
 31
0.0
 11
57.047596
 21
69.738342
 31
0.0
 11
55.894836
 21
69.019792
 31
0.0
 11
54.354419
 21
68.204695
 31
0.0
 11
52.686506
 21
67.408332
 31
0.0
 11
52.582291
 21
67.361851
 31
0.0
 11
52.480938
 21
67.317680
 31
0.0
 11
52.377876
 21
67.272332
 31
0.0
  0
SPLINE
  5
15d
100
AcDbEntity
  8
firefly
 62
7
100
AcDbSpline
 70
0
 71
3
 72
10
 73
6
 74
4
 40
0.000000
 40
0.000000
 40
0.000000
 40
0.000000
 40
1.163181
 40
2.377164
 40
3.623089
 40
3.623089
 40
3.623089
 40
3.623089
 10
52.377876
 20
67.272332
 30
0.0
 10
52.253276
 20
67.639411
 30
0.0
 10
51.998635
 20
68.389601
 30
0.0
 10
51.380291
 20
69.452152
 30
0.0
 10
50.747334
 20
69.981906
 30
0.0
 10
50.426746
 20
70.250222
 30
0.0
 11
52.377876
 21
67.272332
 31
0.0
 11
51.967907
 21
68.360871
 31
0.0
 11
51.333835
 21
69.396103
 31
0.0
 11
50.426746
 21
70.250222
 31
0.0
  0
SPLINE
  5
15e
100
AcDbEntity
  8
firefly
 62
7
100
AcDbSpline
 70
0
 71
3
 72
16
 73
12
 74
10
 40
0.000000
 40
0.000000
 40
0.000000
 40
0.000000
 40
0.036468
 40
0.072924
 40
0.109392
 40
2.877972
 40
5.189536
 40
7.448495
 40
10.005412
 40
13.053523
 40
16.664319
 40
16.664319
 40
16.664319
 40
16.664319
 10
50.426746
 20
70.250222
 30
0.0
 10
50.432800
 20
70.260765
 30
0.0
 10
50.444906
 20
70.281848
 30
0.0
 10
50.461137
 20
70.314536
 30
0.0
 10
50.829998
 20
71.187006
 30
0.0
 10
51.589864
 20
72.737612
 30
0.0
 10
53.383567
 20
74.484116
 30
0.0
 10
55.622450
 20
75.410646
 30
0.0
 10
58.255761
 20
75.663000
 30
0.0
 10
61.327119
 20
75.377313
 30
0.0
 10
63.491143
 20
74.876280
 30
0.0
 10
64.664586
 20
74.604594
 30
0.0
 11
50.426746
 21
70.250222
 31
0.0
 11
50.444586
 21
70.282028
 31
0.0
 11
50.460797
 21
70.314682
 31
0.0
 11
50.475346
 21
70.348122
 31
0.0
 11
51.802422
 21
72.777917
 31
0.0
 11
53.477930
 21
74.370400
 31
0.0
 11
55.550826
 21
75.268173
 31
0.0
 11
58.089430
 21
75.573649
 31
0.0
 11
61.128028
 21
75.333025
 31
0.0
 11
64.664586
 21
74.604594
 31
0.0
  0
SPLINE
  5
15f
100
AcDbEntity
  8
firefly
 62
7
100
AcDbSpline
 70
0
 71
3
 72
16
 73
12
 74
10
 40
0.000000
 40
0.000000
 40
0.000000
 40
0.000000
 40
0.258805
 40
0.513726
 40
0.772531
 40
1.031335
 40
1.286257
 40
1.545061
 40
1.803866
 40
2.058787
 40
2.317592
 40
2.317592
 40
2.317592
 40
2.317592
 10
64.664586
 20
74.604594
 30
0.0
 10
64.750338
 20
74.588732
 30
0.0
 10
64.920556
 20
74.557245
 30
0.0
 10
65.176840
 20
74.627263
 30
0.0
 10
65.392602
 20
74.775929
 30
0.0
 10
65.542217
 20
74.992867
 30
0.0
 10
65.606482
 20
75.247619
 30
0.0
 10
65.577674
 20
75.509568
 30
0.0
 10
65.458250
 20
75.742791
 30
0.0
 10
65.265846
 20
75.925997
 30
0.0
 10
65.101061
 20
75.979020
 30
0.0
 10
65.018046
 20
76.005732
 30
0.0
 11
64.664586
 21
74.604594
 31
0.0
 11
64.921896
 21
74.576815
 31
0.0
 11
65.168916
 21
74.639789
 31
0.0
 11
65.381522
 21
74.787365
 31
0.0
 11
65.528565
 21
75.000340
 31
0.0
 11
65.590919
 21
75.247517
 31
0.0
 11
65.562496
 21
75.504756
 31
0.0
 11
65.445333
 21
75.735522
 31
0.0
 11
65.257742
 21
75.908133
 31
0.0
 11
65.018046
 21
76.005732
 31
0.0
  0
LWPOLYLINE
  5
160
100
AcDbEntity
  8
firefly
 62
7
100
AcDbPolyline
 90
2
 70
0
 10
66.226356
 20
54.684492
 30
0.0
 10
65.097226
 20
54.546252
 30
0.0
  0
SPLINE
  5
161
100
AcDbEntity
  8
firefly
 62
7
100
AcDbSpline
 70
0
 71
3
 72
13
 73
9
 74
7
 40
0.000000
 40
0.000000
 40
0.000000
 40
0.000000
 40
1.940107
 40
3.755644
 40
5.452260
 40
5.858939
 40
6.258931
 40
6.652479
 40
6.652479
 40
6.652479
 40
6.652479
 10
65.018046
 20
76.005732
 30
0.0
 10
64.389358
 20
76.157729
 30
0.0
 10
63.172350
 20
76.451962
 30
0.0
 10
61.383883
 20
76.780590
 30
0.0
 10
60.086150
 20
76.940241
 30
0.0
 10
59.253726
 20
76.998648
 30
0.0
 10
58.854109
 20
77.018789
 30
0.0
 10
58.589644
 20
77.024444
 30
0.0
 10
58.458486
 20
77.027249
 30
0.0
 11
65.018046
 21
76.005732
 31
0.0
 11
63.127999
 21
76.443611
 31
0.0
 11
61.341936
 21
76.769424
 31
0.0
 11
59.657096
 21
76.968969
 31
0.0
 11
59.251416
 21
76.997461
 31
0.0
 11
58.851899
 21
77.016950
 31
0.0
 11
58.458486
 21
77.027249
 31
0.0
  0
LWPOLYLINE
  5
162
100
AcDbEntity
  8
firefly
 62
7
100
AcDbPolyline
 90
2
 70
0
 10
58.458486
 20
77.027249
 30
0.0
 10
58.458756
 20
77.027607
 30
0.0
  0
ENDSEC
  0
SECTION
  2
OBJECTS
  0
DICTIONARY
  5
C
330
0
100
AcDbDictionary
  3
ACAD_GROUP
350
D
  3
ACAD_MLINESTYLE
350
17
  0
DICTIONARY
  5
D
330
C
100
AcDbDictionary
  0
DICTIONARY
  5
1A
330
C
100
AcDbDictionary
  0
DICTIONARY
  5
17
330
C
100
AcDbDictionary
  3
STANDARD
350
18
  0
DICTIONARY
  5
19
330
C
100
AcDbDictionary
  0
ENDSEC
  0
EOF
