999
Inkscape export via OpenSCAD DXF Export
  0
SECTION
  2
HEADER
  9
$ACADVER
  1
AC1014
  9
$HANDSEED
  5
FFFF
  9
$MEASUREMENT
 70
     1
  0
ENDSEC
  0
SECTION
  2
TABLES
  0
TABLE
  2
VPORT
  5
8
330
0
100
AcDbSymbolTable
 70
     4
  0
VPORT
  5
2E
330
8
100
AcDbSymbolTableRecord
100
AcDbViewportTableRecord
  2
*ACTIVE
 70
     0
 10
0.0
 20
0.0
 11
1.0
 21
1.0
 12
210.0
 22
148.5
 13
0.0
 23
0.0
 14
10.0
 24
10.0
 15
10.0
 25
10.0
 16
0.0
 26
0.0
 36
1.0
 17
0.0
 27
0.0
 37
0.0
 40
341.0
 41
1.24
 42
50.0
 43
0.0
 44
0.0
 50
0.0
 51
0.0
 71
     0
 72
   100
 73
     1
 74
     3
 75
     0
 76
     0
 77
     0
 78
     0
  0
ENDTAB
  0
TABLE
  2
LTYPE
  5
5
330
0
100
AcDbSymbolTable
 70
     1
  0
LTYPE
  5
14
330
5
100
AcDbSymbolTableRecord
100
AcDbLinetypeTableRecord
  2
BYBLOCK
 70
     0
  3

 72
    65
 73
     0
 40
0.0
  0
LTYPE
  5
15
330
5
100
AcDbSymbolTableRecord
100
AcDbLinetypeTableRecord
  2
BYLAYER
 70
     0
  3

 72
    65
 73
     0
 40
0.0
  0
LTYPE
  5
16
330
5
100
AcDbSymbolTableRecord
100
AcDbLinetypeTableRecord
  2
CONTINUOUS
 70
     0
  3
Solid line
 72
    65
 73
     0
 40
0.0
  0
ENDTAB
  0
TABLE
0
TABLE
2
LAYER
5
2
330
0
100
AcDbSymbolTable
70
1
0
LAYER
5
10
330
2
100
AcDbSymbolTableRecord
100
AcDbLayerTableRecord
2
Layer_1
70
0
62
7
6
CONTINUOUS
0
ENDTAB
0
ENDSEC
  0
ENDTAB
  0
TABLE
  2
STYLE
  5
3
330
0
100
AcDbSymbolTable
 70
     1
  0
STYLE
  5
11
330
3
100
AcDbSymbolTableRecord
100
AcDbTextStyleTableRecord
  2
STANDARD
 70
     0
 40
0.0
 41
1.0
 50
0.0
 71
     0
 42
2.5
  3
txt
  4

  0
ENDTAB
  0
TABLE
  2
VIEW
  5
6
330
0
100
AcDbSymbolTable
 70
     0
  0
ENDTAB
  0
TABLE
  2
UCS
  5
7
330
0
100
AcDbSymbolTable
 70
     0
  0
ENDTAB
  0
TABLE
  2
APPID
  5
9
330
0
100
AcDbSymbolTable
 70
     2
  0
APPID
  5
12
330
9
100
AcDbSymbolTableRecord
100
AcDbRegAppTableRecord
  2
ACAD
 70
     0
  0
ENDTAB
  0
TABLE
  2
DIMSTYLE
  5
A
330
0
100
AcDbSymbolTable
 70
     1
  0
DIMSTYLE
105
27
330
A
100
AcDbSymbolTableRecord
100
AcDbDimStyleTableRecord
  2
ISO-25
 70
     0
  3

  4

  5

  6

  7

 40
1.0
 41
2.5
 42
0.625
 43
3.75
 44
1.25
 45
0.0
 46
0.0
 47
0.0
 48
0.0
140
2.5
141
2.5
142
0.0
143
0.03937007874016
144
1.0
145
0.0
146
1.0
147
0.625
 71
     0
 72
     0
 73
     0
 74
     0
 75
     0
 76
     0
 77
     1
 78
     8
170
     0
171
     3
172
     1
173
     0
174
     0
175
     0
176
     0
177
     0
178
     0
270
     2
271
     2
272
     2
273
     2
274
     3
340
11
275
     0
280
     0
281
     0
282
     0
283
     0
284
     8
285
     0
286
     0
287
     3
288
     0
  0
ENDTAB
  0
TABLE
  2
BLOCK_RECORD
  5
1
330
0
100
AcDbSymbolTable
 70
     1
  0
BLOCK_RECORD
  5
1F
330
1
100
AcDbSymbolTableRecord
100
AcDbBlockTableRecord
  2
*MODEL_SPACE
  0
BLOCK_RECORD
  5
1B
330
1
100
AcDbSymbolTableRecord
100
AcDbBlockTableRecord
  2
*PAPER_SPACE
  0
ENDTAB
  0
ENDSEC
  0
SECTION
  2
BLOCKS
  0
BLOCK
  5
20
330
1F
100
AcDbEntity
  8
0
100
AcDbBlockBegin
  2
*MODEL_SPACE
 70
     0
 10
0.0
 20
0.0
 30
0.0
  3
*MODEL_SPACE
  1

  0
ENDBLK
  5
21
330
1F
100
AcDbEntity
  8
0
100
AcDbBlockEnd
  0
BLOCK
  5
1C
330
1B
100
AcDbEntity
 67
     1
  8
0
100
AcDbBlockBegin
  2
*PAPER_SPACE
  1

  0
ENDBLK
  5
1D
330
1B
100
AcDbEntity
 67
     1
  8
0
100
AcDbBlockEnd
  0
ENDSEC
  0
SECTION
  2
ENTITIES
0
DIMENSION
5
83
100
AcDbEntity
62
256
370
-1
6
ByLayer
1
total_width
3
Standard
70
0
71
5
72
1
41
1.0
100
AcDbAlignedDimension
13
0.000000
23
0.000000
33
0.0
14
93.999947
24
0.000000
34
0.0
50
0.000000
100
AcDbRotatedDimension
0
DIMENSION
5
83
100
AcDbEntity
62
256
370
-1
6
ByLayer
1
total_minx
3
Standard
70
0
71
5
72
1
41
1.0
100
AcDbAlignedDimension
13
0.000000
23
0.000000
33
0.0
14
0.000000
24
0.000000
34
0.0
50
0.000000
100
AcDbRotatedDimension
0
DIMENSION
5
83
100
AcDbEntity
62
256
370
-1
6
ByLayer
1
total_maxx
3
Standard
70
0
71
5
72
1
41
1.0
100
AcDbAlignedDimension
13
0.000000
23
0.000000
33
0.0
14
93.999947
24
0.000000
34
0.0
50
0.000000
100
AcDbRotatedDimension
0
DIMENSION
5
83
100
AcDbEntity
62
256
370
-1
6
ByLayer
1
total_height
3
Standard
70
0
71
5
72
1
41
1.0
100
AcDbAlignedDimension
13
0.000000
23
0.000000
33
0.0
14
0.000000
24
93.999950
34
0.0
50
90.000000
100
AcDbRotatedDimension
0
DIMENSION
5
83
100
AcDbEntity
62
256
370
-1
6
ByLayer
1
total_miny
3
Standard
70
0
71
5
72
1
41
1.0
100
AcDbAlignedDimension
13
0.000000
23
0.000000
33
0.0
14
0.000000
24
0.000000
34
0.0
50
0.000000
100
AcDbRotatedDimension
0
DIMENSION
5
83
100
AcDbEntity
62
256
370
-1
6
ByLayer
1
total_maxy
3
Standard
70
0
71
5
72
1
41
1.0
100
AcDbAlignedDimension
13
0.000000
23
0.000000
33
0.0
14
93.999950
24
0.000000
34
0.0
50
0.000000
100
AcDbRotatedDimension
0
DIMENSION
8
Layer_1
5
83
100
AcDbEntity
62
256
370
-1
6
ByLayer
1
Layer_1_width
3
Standard
70
0
71
5
72
1
41
1.0
100
AcDbAlignedDimension
13
0.000000
23
0.000000
33
0.0
14
93.999947
24
0.000000
34
0.0
50
0.000000
100
AcDbRotatedDimension
0
DIMENSION
8
Layer_1
5
83
100
AcDbEntity
62
256
370
-1
6
ByLayer
1
Layer_1_minx
3
Standard
70
0
71
5
72
1
41
1.0
100
AcDbAlignedDimension
13
0.000000
23
0.000000
33
0.0
14
0.000000
24
0.000000
34
0.0
50
0.000000
100
AcDbRotatedDimension
0
DIMENSION
8
Layer_1
5
83
100
AcDbEntity
62
256
370
-1
6
ByLayer
1
Layer_1_maxx
3
Standard
70
0
71
5
72
1
41
1.0
100
AcDbAlignedDimension
13
0.000000
23
0.000000
33
0.0
14
93.999947
24
0.000000
34
0.0
50
0.000000
100
AcDbRotatedDimension
0
DIMENSION
8
Layer_1
5
83
100
AcDbEntity
62
256
370
-1
6
ByLayer
1
Layer_1_height
3
Standard
70
0
71
5
72
1
41
1.0
100
AcDbAlignedDimension
13
0.000000
23
0.000000
33
0.0
14
0.000000
24
93.999950
34
0.0
50
90.000000
100
AcDbRotatedDimension
0
DIMENSION
8
Layer_1
5
83
100
AcDbEntity
62
256
370
-1
6
ByLayer
1
Layer_1_miny
3
Standard
70
0
71
5
72
1
41
1.0
100
AcDbAlignedDimension
13
0.000000
23
0.000000
33
0.0
14
0.000000
24
0.000000
34
0.0
50
0.000000
100
AcDbRotatedDimension
0
DIMENSION
8
Layer_1
5
83
100
AcDbEntity
62
256
370
-1
6
ByLayer
1
Layer_1_maxy
3
Standard
70
0
71
5
72
1
41
1.0
100
AcDbAlignedDimension
13
0.000000
23
0.000000
33
0.0
14
93.999950
24
0.000000
34
0.0
50
0.000000
100
AcDbRotatedDimension
62
0
0
LWPOLYLINE
100
AcDbPolyline
8
Layer_1
90
5
70
0
10
0.000000
20
93.999950
30
0.0
10
0.000000
20
0.000000
30
0.0
10
93.999947
20
0.000000
30
0.0
10
93.999947
20
93.999950
30
0.0
10
0.000000
20
93.999950
30
0.0
62
0
0
LWPOLYLINE
100
AcDbPolyline
8
Layer_1
90
8
70
0
10
2.185913
20
91.813520
30
0.0
10
12.326379
20
91.813520
30
0.0
10
28.431339
20
63.918070
30
0.0
10
28.096993
20
62.777570
30
0.0
10
24.214641
20
61.859884
30
0.0
10
20.412191
20
60.803530
30
0.0
10
2.185913
20
79.029810
30
0.0
10
2.185913
20
91.813520
30
0.0
62
0
0
LWPOLYLINE
100
AcDbPolyline
8
Layer_1
90
23
70
0
10
13.990877
20
91.813520
30
0.0
10
30.548522
20
91.813520
30
0.0
10
34.807694
20
75.918370
30
0.0
10
32.486212
20
75.567036
30
0.0
10
29.980083
20
75.006280
30
0.0
10
29.485497
20
74.660327
30
0.0
10
29.427438
20
74.121548
30
0.0
10
29.734068
20
73.674767
30
0.0
10
30.333548
20
73.604810
30
0.0
10
32.885749
20
74.167014
30
0.0
10
35.189067
20
74.493650
30
0.0
10
35.439697
20
73.558820
30
0.0
10
33.882687
20
72.285510
30
0.0
10
33.855817
20
72.310810
30
0.0
10
33.353006
20
72.514420
30
0.0
10
32.934131
20
72.384101
30
0.0
10
32.682684
20
72.063092
30
0.0
10
32.640178
20
71.657690
30
0.0
10
32.848128
20
71.274190
30
0.0
10
30.733644
20
68.634831
30
0.0
10
29.851234
20
67.182288
30
0.0
10
29.095386
20
65.650240
30
0.0
10
13.990877
20
91.813520
30
0.0
62
0
0
LWPOLYLINE
100
AcDbPolyline
8
Layer_1
90
12
70
0
10
32.038353
20
91.813520
30
0.0
10
46.278313
20
91.813520
30
0.0
10
46.278313
20
77.327580
30
0.0
10
44.458571
20
77.177047
30
0.0
10
42.689910
20
76.863825
30
0.0
10
40.979768
20
76.395683
30
0.0
10
39.335583
20
75.780390
30
0.0
10
37.980561
20
75.978161
30
0.0
10
36.539890
20
76.027410
30
0.0
10
36.539360
20
76.027410
30
0.0
10
36.270644
20
76.019410
30
0.0
10
32.038353
20
91.813520
30
0.0
62
0
0
LWPOLYLINE
100
AcDbPolyline
8
Layer_1
90
11
70
0
10
47.719051
20
91.813520
30
0.0
10
61.959524
20
91.813520
30
0.0
10
57.727742
20
76.018620
30
0.0
10
57.458509
20
76.027620
30
0.0
10
56.014517
20
75.977987
30
0.0
10
54.656612
20
75.779060
30
0.0
10
53.013664
20
76.394416
30
0.0
10
51.304800
20
76.862857
30
0.0
10
49.537451
20
77.176586
30
0.0
10
47.719051
20
77.327800
30
0.0
10
47.719051
20
91.813520
30
0.0
62
0
0
LWPOLYLINE
100
AcDbPolyline
8
Layer_1
90
23
70
0
10
63.451425
20
91.813520
30
0.0
10
80.009069
20
91.813520
30
0.0
10
64.897847
20
65.639410
30
0.0
10
64.142396
20
67.173067
30
0.0
10
63.260230
20
68.627247
30
0.0
10
61.145621
20
71.269560
30
0.0
10
61.357584
20
71.653437
30
0.0
10
61.316877
20
72.060476
30
0.0
10
61.065486
20
72.383278
30
0.0
10
60.645395
20
72.514440
30
0.0
10
60.142583
20
72.310840
30
0.0
10
60.111063
20
72.281340
30
0.0
10
58.558186
20
73.552060
30
0.0
10
58.810366
20
74.493090
30
0.0
10
61.112965
20
74.166394
30
0.0
10
63.664332
20
73.604250
30
0.0
10
64.263824
20
73.674201
30
0.0
10
64.570460
20
74.120988
30
0.0
10
64.512399
20
74.659773
30
0.0
10
64.017800
20
75.005720
30
0.0
10
61.512767
20
75.566398
30
0.0
10
59.192255
20
75.917810
30
0.0
10
63.451425
20
91.813520
30
0.0
62
0
0
LWPOLYLINE
100
AcDbPolyline
8
Layer_1
90
8
70
0
10
81.670467
20
91.813520
30
0.0
10
91.813002
20
91.813520
30
0.0
10
91.813002
20
79.031360
30
0.0
10
73.585689
20
60.804050
30
0.0
10
69.778410
20
61.861580
30
0.0
10
65.891069
20
62.780150
30
0.0
10
65.560340
20
63.907730
30
0.0
10
81.670467
20
91.813520
30
0.0
62
0
0
LWPOLYLINE
100
AcDbPolyline
8
Layer_1
90
9
70
0
10
2.185913
20
76.995300
30
0.0
10
18.864482
20
60.316220
30
0.0
10
17.361214
20
59.803070
30
0.0
10
15.491409
20
59.041803
30
0.0
10
13.520228
20
58.034964
30
0.0
10
11.617974
20
56.816120
30
0.0
10
9.954948
20
55.418840
30
0.0
10
2.185913
20
59.904360
30
0.0
10
2.185913
20
76.995300
30
0.0
62
0
0
LWPOLYLINE
100
AcDbPolyline
8
Layer_1
90
9
70
0
10
91.813002
20
76.994300
30
0.0
10
91.813002
20
59.903880
30
0.0
10
84.043964
20
55.418360
30
0.0
10
82.380903
20
56.815831
30
0.0
10
80.478533
20
58.034819
30
0.0
10
78.507183
20
59.041764
30
0.0
10
76.637182
20
59.803110
30
0.0
10
75.134433
20
60.315740
30
0.0
10
91.813002
20
76.994300
30
0.0
62
0
0
LWPOLYLINE
100
AcDbPolyline
8
Layer_1
90
20
70
0
10
46.994030
20
76.476480
30
0.0
10
50.238187
20
76.194894
30
0.0
10
53.299590
20
75.384040
30
0.0
10
51.697285
20
74.560200
30
0.0
10
50.295872
20
73.376226
30
0.0
10
49.104924
20
71.822857
30
0.0
10
48.134013
20
69.890830
30
0.0
10
48.108163
20
69.813830
30
0.0
10
47.109257
20
69.922350
30
0.0
10
46.999188
20
69.917350
30
0.0
10
46.889116
20
69.922350
30
0.0
10
45.890211
20
69.813830
30
0.0
10
45.863861
20
69.890830
30
0.0
10
44.892204
20
71.824181
30
0.0
10
43.700274
20
73.378340
30
0.0
10
42.297581
20
74.562561
30
0.0
10
40.693633
20
75.386100
30
0.0
10
43.752619
20
76.195477
30
0.0
10
46.994024
20
76.476480
30
0.0
10
46.994030
20
76.476480
30
0.0
62
0
0
LWPOLYLINE
100
AcDbPolyline
8
Layer_1
90
4
70
0
10
36.658227
20
74.572720
30
0.0
10
36.968287
20
74.571720
30
0.0
10
36.701119
20
74.412040
30
0.0
10
36.658227
20
74.572720
30
0.0
62
0
0
LWPOLYLINE
100
AcDbPolyline
8
Layer_1
90
5
70
0
10
57.340169
20
74.572190
30
0.0
10
57.295729
20
74.406820
30
0.0
10
57.021843
20
74.571150
30
0.0
10
57.340171
20
74.572150
30
0.0
10
57.340169
20
74.572190
30
0.0
62
0
0
LWPOLYLINE
100
AcDbPolyline
8
Layer_1
90
17
70
0
10
38.537182
20
74.452810
30
0.0
10
39.447721
20
74.268330
30
0.0
10
41.041512
20
73.654613
30
0.0
10
42.404819
20
72.670205
30
0.0
10
43.558363
20
71.254832
30
0.0
10
44.522864
20
69.348220
30
0.0
10
44.571434
20
69.250020
30
0.0
10
43.863663
20
68.631447
30
0.0
10
43.316409
20
67.893077
30
0.0
10
42.620651
20
66.272420
30
0.0
10
42.311626
20
66.408330
30
0.0
10
39.841358
20
67.617141
30
0.0
10
37.950652
20
68.738420
30
0.0
10
34.517786
20
71.699480
30
0.0
10
36.432556
20
73.204240
30
0.0
10
38.537178
20
74.452800
30
0.0
10
38.537182
20
74.452810
30
0.0
62
0
0
LWPOLYLINE
100
AcDbPolyline
8
Layer_1
90
17
70
0
10
55.453978
20
74.450810
30
0.0
10
57.560061
20
73.201132
30
0.0
10
59.475957
20
71.694910
30
0.0
10
56.047741
20
68.737980
30
0.0
10
54.156770
20
67.616705
30
0.0
10
51.686251
20
66.407890
30
0.0
10
51.377742
20
66.271980
30
0.0
10
50.681980
20
67.892641
30
0.0
10
50.134726
20
68.631008
30
0.0
10
49.426958
20
69.249580
30
0.0
10
49.475528
20
69.347780
30
0.0
10
50.440029
20
71.254206
30
0.0
10
51.593574
20
72.669600
30
0.0
10
52.956883
20
73.654111
30
0.0
10
54.550670
20
74.267890
30
0.0
10
55.453973
20
74.450830
30
0.0
10
55.453978
20
74.450810
30
0.0
62
0
0
LWPOLYLINE
100
AcDbPolyline
8
Layer_1
90
11
70
0
10
33.477025
20
70.685670
30
0.0
10
35.226837
20
69.103416
30
0.0
10
37.103161
20
67.565450
30
0.0
10
38.927304
20
66.459902
30
0.0
10
41.172164
20
65.345430
30
0.0
10
29.049390
20
62.985880
30
0.0
10
29.809677
20
65.122025
30
0.0
10
30.812803
20
67.129107
30
0.0
10
32.041132
20
68.989524
30
0.0
10
33.477025
20
70.685670
30
0.0
10
33.477025
20
70.685670
30
0.0
62
0
0
LWPOLYLINE
100
AcDbPolyline
8
Layer_1
90
11
70
0
10
60.515685
20
70.680670
30
0.0
10
61.949770
20
68.985816
30
0.0
10
63.176739
20
67.127105
30
0.0
10
64.178927
20
65.122039
30
0.0
10
64.938672
20
62.988120
30
0.0
10
52.826232
20
65.345590
30
0.0
10
55.070835
20
66.460062
30
0.0
10
56.894719
20
67.565610
30
0.0
10
58.767254
20
69.100070
30
0.0
10
60.515685
20
70.680670
30
0.0
10
60.515685
20
70.680670
30
0.0
62
0
0
LWPOLYLINE
100
AcDbPolyline
8
Layer_1
90
19
70
0
10
91.813002
20
58.241120
30
0.0
10
91.813002
20
45.951430
30
0.0
10
84.383480
20
43.960850
30
0.0
10
84.320529
20
44.847439
30
0.0
10
84.060501
20
45.705970
30
0.0
10
83.422178
20
46.894864
30
0.0
10
82.625449
20
47.900150
30
0.0
10
80.919464
20
49.550647
30
0.0
10
79.153824
20
50.932000
30
0.0
10
79.616329
20
51.199170
30
0.0
10
85.178781
20
49.710890
30
0.0
10
85.434399
20
49.719222
30
0.0
10
85.633679
20
49.868496
30
0.0
10
85.890667
20
50.414732
30
0.0
10
86.030409
20
51.272040
30
0.0
10
85.998313
20
52.058356
30
0.0
10
85.805866
20
52.828979
30
0.0
10
85.005664
20
54.310610
30
0.0
10
91.813002
20
58.241120
30
0.0
62
0
0
LWPOLYLINE
100
AcDbPolyline
8
Layer_1
90
19
70
0
10
2.185913
20
58.239120
30
0.0
10
8.992216
20
54.309640
30
0.0
10
8.192375
20
52.828250
30
0.0
10
8.000043
20
52.057756
30
0.0
10
7.967989
20
51.271590
30
0.0
10
8.107731
20
50.414286
30
0.0
10
8.364719
20
49.868050
30
0.0
10
8.564000
20
49.718775
30
0.0
10
8.819617
20
49.710440
30
0.0
10
14.381034
20
51.198200
30
0.0
10
14.845089
20
50.930520
30
0.0
10
13.079984
20
49.549600
30
0.0
10
11.374499
20
47.899700
30
0.0
10
10.577767
20
46.894417
30
0.0
10
9.939445
20
45.705520
30
0.0
10
9.679417
20
44.846989
30
0.0
10
9.616468
20
43.960400
30
0.0
10
2.185913
20
45.951640
30
0.0
10
2.185913
20
58.239120
30
0.0
62
0
0
LWPOLYLINE
100
AcDbPolyline
8
Layer_1
90
8
70
0
10
40.355676
20
57.589030
30
0.0
10
39.909192
20
54.336510
30
0.0
10
37.889159
20
50.422540
30
0.0
10
38.010862
20
51.921501
30
0.0
10
38.445199
20
53.645080
30
0.0
10
40.001693
20
57.553370
30
0.0
10
40.250256
20
57.519270
30
0.0
10
40.355676
20
57.589030
30
0.0
62
0
0
LWPOLYLINE
100
AcDbPolyline
8
Layer_1
90
9
70
0
10
53.642720
20
57.589030
30
0.0
10
53.748141
20
57.519230
30
0.0
10
53.998254
20
57.553330
30
0.0
10
55.554748
20
53.645040
30
0.0
10
55.989086
20
51.921454
30
0.0
10
56.110788
20
50.422500
30
0.0
10
54.088689
20
54.341200
30
0.0
10
53.642720
20
57.589060
30
0.0
10
53.642720
20
57.589030
30
0.0
62
0
0
LWPOLYLINE
100
AcDbPolyline
8
Layer_1
90
11
70
0
10
37.782706
20
57.275870
30
0.0
10
35.210890
20
54.240415
30
0.0
10
34.015714
20
52.601219
30
0.0
10
32.921504
20
50.834400
30
0.0
10
32.790762
20
50.945510
30
0.0
10
32.750643
20
51.269924
30
0.0
10
32.861042
20
51.807990
30
0.0
10
33.765429
20
53.495265
30
0.0
10
35.676891
20
55.970010
30
0.0
10
37.782704
20
57.275870
30
0.0
10
37.782706
20
57.275870
30
0.0
62
0
0
LWPOLYLINE
100
AcDbPolyline
8
Layer_1
90
11
70
0
10
56.217241
20
57.275870
30
0.0
10
58.323054
20
55.970010
30
0.0
10
60.234515
20
53.495265
30
0.0
10
61.138903
20
51.807990
30
0.0
10
61.249301
20
51.269924
30
0.0
10
61.209183
20
50.945510
30
0.0
10
61.078441
20
50.834400
30
0.0
10
59.984228
20
52.601219
30
0.0
10
58.789053
20
54.240415
30
0.0
10
56.217239
20
57.275870
30
0.0
10
56.217241
20
57.275870
30
0.0
62
0
0
LWPOLYLINE
100
AcDbPolyline
8
Layer_1
90
12
70
0
10
38.656556
20
56.749290
30
0.0
10
37.491252
20
53.948420
30
0.0
10
36.941285
20
51.614401
30
0.0
10
36.874802
20
50.531422
30
0.0
10
36.985340
20
49.515620
30
0.0
10
36.655126
20
49.414850
30
0.0
10
34.767904
20
49.207110
30
0.0
10
33.050178
20
49.036060
30
0.0
10
34.204850
20
51.186670
30
0.0
10
35.572675
20
53.138401
30
0.0
10
38.656556
20
56.749290
30
0.0
10
38.656556
20
56.749290
30
0.0
62
0
0
LWPOLYLINE
100
AcDbPolyline
8
Layer_1
90
12
70
0
10
55.343393
20
56.749290
30
0.0
10
58.427265
20
53.138397
30
0.0
10
59.795093
20
51.186663
30
0.0
10
60.949769
20
49.036060
30
0.0
10
59.232559
20
49.207110
30
0.0
10
57.344821
20
49.414850
30
0.0
10
57.014607
20
49.516140
30
0.0
10
57.125072
20
50.531846
30
0.0
10
57.058585
20
51.614695
30
0.0
10
56.508695
20
53.948420
30
0.0
10
55.343393
20
56.749290
30
0.0
10
55.343393
20
56.749290
30
0.0
62
0
0
LWPOLYLINE
100
AcDbPolyline
8
Layer_1
90
10
70
0
10
30.460156
20
55.542120
30
0.0
10
26.228410
20
53.425254
30
0.0
10
22.108211
20
51.199240
30
0.0
10
21.233329
20
51.269040
30
0.0
10
19.841683
20
51.235940
30
0.0
10
17.806148
20
50.884540
30
0.0
10
17.663004
20
51.492770
30
0.0
10
21.019905
20
52.980020
30
0.0
10
30.460156
20
55.542130
30
0.0
10
30.460156
20
55.542120
30
0.0
62
0
0
LWPOLYLINE
100
AcDbPolyline
8
Layer_1
90
10
70
0
10
63.541341
20
55.541120
30
0.0
10
72.984175
20
52.978490
30
0.0
10
76.336943
20
51.492790
30
0.0
10
76.193798
20
50.884560
30
0.0
10
74.158263
20
51.235960
30
0.0
10
72.766618
20
51.269060
30
0.0
10
71.891737
20
51.199260
30
0.0
10
67.772291
20
53.424740
30
0.0
10
63.541341
20
55.541110
30
0.0
10
63.541341
20
55.541120
30
0.0
62
0
0
LWPOLYLINE
100
AcDbPolyline
8
Layer_1
90
16
70
0
10
33.626372
20
54.688980
30
0.0
10
32.617419
20
53.312795
30
0.0
10
31.908647
20
52.118080
30
0.0
10
31.748815
20
51.307136
30
0.0
10
31.856457
20
50.587940
30
0.0
10
32.124745
20
50.249969
30
0.0
10
32.492079
20
49.997280
30
0.0
10
31.977383
20
48.997340
30
0.0
10
31.265956
20
49.120845
30
0.0
10
30.325285
20
49.159600
30
0.0
10
28.593173
20
48.939956
30
0.0
10
25.925554
20
48.298160
30
0.0
10
25.459950
20
48.528120
30
0.0
10
29.417580
20
51.698085
30
0.0
10
33.626377
20
54.688980
30
0.0
10
33.626372
20
54.688980
30
0.0
62
0
0
LWPOLYLINE
100
AcDbPolyline
8
Layer_1
90
16
70
0
10
60.373575
20
54.688980
30
0.0
10
64.582373
20
51.698085
30
0.0
10
68.540003
20
48.528120
30
0.0
10
68.074397
20
48.298160
30
0.0
10
65.406776
20
48.939952
30
0.0
10
63.674667
20
49.159600
30
0.0
10
62.733997
20
49.120830
30
0.0
10
62.022572
20
48.997340
30
0.0
10
61.507873
20
49.997280
30
0.0
10
61.875207
20
50.249969
30
0.0
10
62.143494
20
50.587940
30
0.0
10
62.251127
20
51.307136
30
0.0
10
62.091304
20
52.118080
30
0.0
10
61.382533
20
53.312795
30
0.0
10
60.373579
20
54.688980
30
0.0
10
60.373575
20
54.688980
30
0.0
62
0
0
LWPOLYLINE
100
AcDbPolyline
8
Layer_1
90
9
70
0
10
29.688626
20
53.904530
30
0.0
10
20.625508
20
48.495946
30
0.0
10
16.850426
20
46.084527
30
0.0
10
13.815694
20
43.978010
30
0.0
10
14.388786
20
45.123160
30
0.0
10
17.990695
20
47.520507
30
0.0
10
21.761685
20
49.764877
30
0.0
10
29.688626
20
53.904530
30
0.0
10
29.688626
20
53.904530
30
0.0
62
0
0
LWPOLYLINE
100
AcDbPolyline
8
Layer_1
90
9
70
0
10
64.311321
20
53.904530
30
0.0
10
72.238265
20
49.764881
30
0.0
10
76.009256
20
47.520511
30
0.0
10
79.611162
20
45.123160
30
0.0
10
80.184252
20
43.978010
30
0.0
10
77.149522
20
46.084527
30
0.0
10
73.374440
20
48.495946
30
0.0
10
64.311321
20
53.904530
30
0.0
10
64.311321
20
53.904530
30
0.0
62
0
0
LWPOLYLINE
100
AcDbPolyline
8
Layer_1
90
19
70
0
10
54.416317
20
51.445250
30
0.0
10
55.446229
20
49.555960
30
0.0
10
56.160560
20
48.823695
30
0.0
10
57.104523
20
48.442850
30
0.0
10
59.179333
20
48.208240
30
0.0
10
61.011779
20
48.003600
30
0.0
10
61.577066
20
47.774411
30
0.0
10
61.871159
20
47.423790
30
0.0
10
62.144010
20
46.866720
30
0.0
10
60.273056
20
44.658977
30
0.0
10
58.084826
20
42.766190
30
0.0
10
57.900342
20
43.965600
30
0.0
10
57.596900
20
45.509267
30
0.0
10
57.055433
20
46.735460
30
0.0
10
56.576885
20
47.241123
30
0.0
10
56.002114
20
47.622780
30
0.0
10
54.688134
20
48.116770
30
0.0
10
54.416317
20
51.445250
30
0.0
10
54.416317
20
51.445250
30
0.0
62
0
0
LWPOLYLINE
100
AcDbPolyline
8
Layer_1
90
19
70
0
10
39.582079
20
51.441250
30
0.0
10
39.310262
20
48.116390
30
0.0
10
37.996283
20
47.622400
30
0.0
10
37.421514
20
47.240741
30
0.0
10
36.942964
20
46.735080
30
0.0
10
36.401749
20
45.508884
30
0.0
10
36.098573
20
43.965220
30
0.0
10
35.912536
20
42.759100
30
0.0
10
33.723128
20
44.650802
30
0.0
10
31.850769
20
46.857550
30
0.0
10
32.128788
20
47.423410
30
0.0
10
32.422884
20
47.774031
30
0.0
10
32.988168
20
48.003220
30
0.0
10
34.820614
20
48.207860
30
0.0
10
36.895424
20
48.442470
30
0.0
10
37.839387
20
48.823315
30
0.0
10
38.553718
20
49.555580
30
0.0
10
39.582079
20
51.441250
30
0.0
10
39.582079
20
51.441250
30
0.0
62
0
0
LWPOLYLINE
100
AcDbPolyline
8
Layer_1
90
5
70
0
10
27.177669
20
51.297590
30
0.0
10
24.429000
20
48.954580
30
0.0
10
23.143807
20
48.826430
30
0.0
10
27.177669
20
51.297590
30
0.0
10
27.177669
20
51.297590
30
0.0
62
0
0
LWPOLYLINE
100
AcDbPolyline
8
Layer_1
90
5
70
0
10
66.822794
20
51.297590
30
0.0
10
70.856139
20
48.826430
30
0.0
10
69.570947
20
48.954580
30
0.0
10
66.822794
20
51.297590
30
0.0
10
66.822794
20
51.297590
30
0.0
62
0
0
LWPOLYLINE
100
AcDbPolyline
8
Layer_1
90
7
70
0
10
16.756600
20
50.981850
30
0.0
10
16.916797
20
50.308500
30
0.0
10
16.584001
20
48.203730
30
0.0
10
15.281295
20
48.665159
30
0.0
10
13.957804
20
48.987140
30
0.0
10
16.756600
20
50.981850
30
0.0
10
16.756600
20
50.981850
30
0.0
62
0
0
LWPOLYLINE
100
AcDbPolyline
8
Layer_1
90
6
70
0
10
77.243347
20
50.981850
30
0.0
10
80.042142
20
48.987140
30
0.0
10
78.718653
20
48.665159
30
0.0
10
77.415946
20
48.203730
30
0.0
10
77.083150
20
50.308500
30
0.0
10
77.243347
20
50.981850
30
0.0
62
0
0
LWPOLYLINE
100
AcDbPolyline
8
Layer_1
90
6
70
0
10
20.488155
20
50.252700
30
0.0
10
17.637683
20
48.587160
30
0.0
10
17.860925
20
49.910600
30
0.0
10
19.902661
20
50.237190
30
0.0
10
20.488155
20
50.252690
30
0.0
10
20.488155
20
50.252700
30
0.0
62
0
0
LWPOLYLINE
100
AcDbPolyline
8
Layer_1
90
6
70
0
10
73.512310
20
50.252700
30
0.0
10
74.097285
20
50.237200
30
0.0
10
76.139021
20
49.910600
30
0.0
10
76.362780
20
48.587170
30
0.0
10
73.512310
20
50.252700
30
0.0
10
73.512310
20
50.252700
30
0.0
62
0
0
LWPOLYLINE
100
AcDbPolyline
8
Layer_1
90
9
70
0
10
30.650326
20
48.167030
30
0.0
10
31.376895
20
48.111230
30
0.0
10
31.208430
20
47.813060
30
0.0
10
30.671201
20
46.847886
30
0.0
10
29.898433
20
45.897930
30
0.0
10
27.390577
20
47.571210
30
0.0
10
30.365070
20
48.161880
30
0.0
10
30.650326
20
48.166880
30
0.0
10
30.650326
20
48.167030
30
0.0
62
0
0
LWPOLYLINE
100
AcDbPolyline
8
Layer_1
90
9
70
0
10
63.349621
20
48.167030
30
0.0
10
63.634877
20
48.162030
30
0.0
10
66.609370
20
47.571370
30
0.0
10
64.101514
20
45.898090
30
0.0
10
63.328745
20
46.848042
30
0.0
10
62.791517
20
47.813220
30
0.0
10
62.623052
20
48.111390
30
0.0
10
63.349621
20
48.167190
30
0.0
10
63.349621
20
48.167030
30
0.0
62
0
0
LWPOLYLINE
100
AcDbPolyline
8
Layer_1
90
9
70
0
10
12.978536
20
48.097230
30
0.0
10
14.412765
20
47.836934
30
0.0
10
15.826941
20
47.376350
30
0.0
10
14.172262
20
46.196060
30
0.0
10
13.511690
20
46.755696
30
0.0
10
12.859680
20
47.093160
30
0.0
10
12.119674
20
47.230100
30
0.0
10
12.978536
20
48.097230
30
0.0
10
12.978536
20
48.097230
30
0.0
62
0
0
LWPOLYLINE
100
AcDbPolyline
8
Layer_1
90
9
70
0
10
81.021928
20
48.097230
30
0.0
10
81.880273
20
47.230100
30
0.0
10
81.140268
20
47.093160
30
0.0
10
80.488258
20
46.755696
30
0.0
10
79.827686
20
46.196060
30
0.0
10
78.173006
20
47.376350
30
0.0
10
79.587435
20
47.837001
30
0.0
10
81.021928
20
48.097230
30
0.0
10
81.021928
20
48.097230
30
0.0
62
0
0
LWPOLYLINE
100
AcDbPolyline
8
Layer_1
90
11
70
0
10
24.832076
20
47.723710
30
0.0
10
27.342050
20
46.445302
30
0.0
10
29.175480
20
45.198290
30
0.0
10
27.605800
20
44.002269
30
0.0
10
25.760185
20
42.927110
30
0.0
10
23.376351
20
41.879110
30
0.0
10
23.480792
20
43.349687
30
0.0
10
23.956677
20
44.895460
30
0.0
10
24.474697
20
46.327772
30
0.0
10
24.832076
20
47.723710
30
0.0
10
24.832076
20
47.723710
30
0.0
62
0
0
LWPOLYLINE
100
AcDbPolyline
8
Layer_1
90
11
70
0
10
69.167872
20
47.723710
30
0.0
10
69.525250
20
46.327772
30
0.0
10
70.043270
20
44.895460
30
0.0
10
70.519156
20
43.349691
30
0.0
10
70.623597
20
41.879110
30
0.0
10
68.239762
20
42.927110
30
0.0
10
66.394147
20
44.002269
30
0.0
10
64.824467
20
45.198290
30
0.0
10
66.657896
20
46.445302
30
0.0
10
69.167872
20
47.723710
30
0.0
10
69.167872
20
47.723710
30
0.0
62
0
0
LWPOLYLINE
100
AcDbPolyline
8
Layer_1
90
8
70
0
10
22.793958
20
47.526820
30
0.0
10
19.550745
20
44.319270
30
0.0
10
18.555456
20
44.989510
30
0.0
10
19.982643
20
46.199836
30
0.0
10
21.478792
20
47.172330
30
0.0
10
22.139826
20
47.389629
30
0.0
10
22.793958
20
47.526820
30
0.0
10
22.793958
20
47.526820
30
0.0
62
0
0
LWPOLYLINE
100
AcDbPolyline
8
Layer_1
90
8
70
0
10
71.205990
20
47.526820
30
0.0
10
71.860123
20
47.389629
30
0.0
10
72.521154
20
47.172330
30
0.0
10
74.017308
20
46.199836
30
0.0
10
75.444490
20
44.989510
30
0.0
10
74.449202
20
44.319270
30
0.0
10
71.205990
20
47.526820
30
0.0
10
71.205990
20
47.526820
30
0.0
62
0
0
LWPOLYLINE
100
AcDbPolyline
8
Layer_1
90
10
70
0
10
23.478670
20
46.796210
30
0.0
10
23.019267
20
45.245920
30
0.0
10
22.471277
20
43.444365
30
0.0
10
22.352702
20
42.499002
30
0.0
10
22.412069
20
41.539160
30
0.0
10
19.891398
20
40.853899
30
0.0
10
17.403072
20
40.472050
30
0.0
10
20.300564
20
43.735245
30
0.0
10
23.478670
20
46.796210
30
0.0
10
23.478670
20
46.796210
30
0.0
62
0
0
LWPOLYLINE
100
AcDbPolyline
8
Layer_1
90
10
70
0
10
70.521277
20
46.796210
30
0.0
10
73.699386
20
43.735249
30
0.0
10
76.596875
20
40.472050
30
0.0
10
74.108541
20
40.853902
30
0.0
10
71.587879
20
41.539160
30
0.0
10
71.647252
20
42.499006
30
0.0
10
71.528685
20
43.444369
30
0.0
10
70.980681
20
45.245920
30
0.0
10
70.521277
20
46.796210
30
0.0
10
70.521277
20
46.796210
30
0.0
62
0
0
LWPOLYLINE
100
AcDbPolyline
8
Layer_1
90
8
70
0
10
39.225514
20
46.513540
30
0.0
10
39.185204
20
40.829650
30
0.0
10
37.247338
20
41.863690
30
0.0
10
37.521740
20
43.719390
30
0.0
10
37.855833
20
45.160320
30
0.0
10
38.112404
20
45.882570
30
0.0
10
39.225514
20
46.513540
30
0.0
10
39.225514
20
46.513540
30
0.0
62
0
0
LWPOLYLINE
100
AcDbPolyline
8
Layer_1
90
8
70
0
10
54.772883
20
46.513540
30
0.0
10
55.885995
20
45.882570
30
0.0
10
56.142566
20
45.160320
30
0.0
10
56.476657
20
43.719390
30
0.0
10
56.750540
20
41.869890
30
0.0
10
54.813192
20
40.834810
30
0.0
10
54.772882
20
46.513540
30
0.0
10
54.772883
20
46.513540
30
0.0
62
0
0
LWPOLYLINE
100
AcDbPolyline
8
Layer_1
90
8
70
0
10
11.390519
20
46.304760
30
0.0
10
12.584762
20
46.131130
30
0.0
10
13.337170
20
45.600930
30
0.0
10
10.659814
20
43.709060
30
0.0
10
10.631155
20
44.480792
30
0.0
10
10.865487
20
45.328080
30
0.0
10
11.390519
20
46.304760
30
0.0
10
11.390519
20
46.304760
30
0.0
62
0
0
LWPOLYLINE
100
AcDbPolyline
8
Layer_1
90
8
70
0
10
82.609428
20
46.304760
30
0.0
10
83.134459
20
45.328080
30
0.0
10
83.368794
20
44.480792
30
0.0
10
83.340133
20
43.709060
30
0.0
10
80.662777
20
45.600930
30
0.0
10
81.415186
20
46.131130
30
0.0
10
82.609428
20
46.304760
30
0.0
10
82.609428
20
46.304760
30
0.0
62
0
0
LWPOLYLINE
100
AcDbPolyline
8
Layer_1
90
9
70
0
10
62.635971
20
46.088240
30
0.0
10
63.481402
20
45.081211
30
0.0
10
64.507689
20
44.137460
30
0.0
10
58.420206
20
40.622940
30
0.0
10
58.363366
20
40.675140
30
0.0
10
58.217120
20
41.796000
30
0.0
10
60.595634
20
43.768631
30
0.0
10
62.635974
20
46.088250
30
0.0
10
62.635971
20
46.088240
30
0.0
62
0
0
LWPOLYLINE
100
AcDbPolyline
8
Layer_1
90
9
70
0
10
31.358292
20
46.080240
30
0.0
10
33.400427
20
43.761270
30
0.0
10
35.780763
20
41.789550
30
0.0
10
35.635033
20
40.674890
30
0.0
10
35.578703
20
40.623190
30
0.0
10
29.492254
20
44.137190
30
0.0
10
30.514974
20
45.077299
30
0.0
10
31.358289
20
46.080220
30
0.0
10
31.358292
20
46.080240
30
0.0
62
0
0
LWPOLYLINE
100
AcDbPolyline
8
Layer_1
90
7
70
0
10
17.177246
20
44.965110
30
0.0
10
15.374486
20
42.916576
30
0.0
10
14.152108
20
41.181880
30
0.0
10
13.264824
20
41.706400
30
0.0
10
13.396081
20
42.517720
30
0.0
10
17.177246
20
44.965110
30
0.0
10
17.177246
20
44.965110
30
0.0
62
0
0
LWPOLYLINE
100
AcDbPolyline
8
Layer_1
90
7
70
0
10
76.822702
20
44.965110
30
0.0
10
80.603865
20
42.517720
30
0.0
10
80.735122
20
41.706400
30
0.0
10
79.847840
20
41.181880
30
0.0
10
78.625463
20
42.916576
30
0.0
10
76.822702
20
44.965110
30
0.0
10
76.822702
20
44.965110
30
0.0
62
0
0
LWPOLYLINE
100
AcDbPolyline
8
Layer_1
90
17
70
0
10
91.813002
20
44.461270
30
0.0
10
91.813002
20
33.916180
30
0.0
10
53.651505
20
33.916180
30
0.0
10
53.680965
20
34.243280
30
0.0
10
62.538823
20
36.616790
30
0.0
10
62.812191
20
36.497410
30
0.0
10
63.165052
20
36.412028
30
0.0
10
63.464379
20
36.491109
30
0.0
10
63.827116
20
36.961980
30
0.0
10
74.350506
20
39.781970
30
0.0
10
76.753459
20
39.453820
30
0.0
10
78.344400
20
39.563237
30
0.0
10
79.860908
20
40.064395
30
0.0
10
81.263139
20
40.848730
30
0.0
10
82.511248
20
41.807680
30
0.0
10
83.051781
20
42.113610
30
0.0
10
91.813002
20
44.461270
30
0.0
62
0
0
LWPOLYLINE
100
AcDbPolyline
8
Layer_1
90
17
70
0
10
2.185913
20
44.460740
30
0.0
10
10.951270
20
42.112040
30
0.0
10
11.488704
20
41.807670
30
0.0
10
12.736815
20
40.848716
30
0.0
10
14.139044
20
40.064381
30
0.0
10
15.655550
20
39.563226
30
0.0
10
17.246493
20
39.453810
30
0.0
10
19.647379
20
39.781950
30
0.0
10
30.170768
20
36.962490
30
0.0
10
30.533742
20
36.491085
30
0.0
10
30.833486
20
36.411915
30
0.0
10
31.186726
20
36.497400
30
0.0
10
31.460612
20
36.616770
30
0.0
10
40.317436
20
34.243790
30
0.0
10
40.346896
20
33.916160
30
0.0
10
2.185913
20
33.916160
30
0.0
10
2.185913
20
44.460740
30
0.0
62
0
0
LWPOLYLINE
100
AcDbPolyline
8
Layer_1
90
7
70
0
10
17.873845
20
44.242660
30
0.0
10
18.884635
20
43.564150
30
0.0
10
16.152502
20
40.496120
30
0.0
10
15.081767
20
40.774660
30
0.0
10
16.210408
20
42.338935
30
0.0
10
17.873845
20
44.242660
30
0.0
10
17.873845
20
44.242660
30
0.0
62
0
0
LWPOLYLINE
100
AcDbPolyline
8
Layer_1
90
6
70
0
10
76.126102
20
44.242660
30
0.0
10
77.789540
20
42.338931
30
0.0
10
78.918181
20
40.774660
30
0.0
10
77.847444
20
40.496120
30
0.0
10
75.115312
20
43.564150
30
0.0
10
76.126102
20
44.242660
30
0.0
62
0
0
LWPOLYLINE
100
AcDbPolyline
8
Layer_1
90
7
70
0
10
12.652458
20
43.884560
30
0.0
10
12.594068
20
43.768800
30
0.0
10
12.305197
20
42.432450
30
0.0
10
12.147067
20
42.562160
30
0.0
10
11.402926
20
43.008640
30
0.0
10
12.652463
20
43.884560
30
0.0
10
12.652458
20
43.884560
30
0.0
62
0
0
LWPOLYLINE
100
AcDbPolyline
8
Layer_1
90
7
70
0
10
81.347490
20
43.884560
30
0.0
10
82.597543
20
43.008640
30
0.0
10
81.853402
20
42.562160
30
0.0
10
81.694756
20
42.432450
30
0.0
10
81.405883
20
43.768800
30
0.0
10
81.347493
20
43.884560
30
0.0
10
81.347490
20
43.884560
30
0.0
62
0
0
LWPOLYLINE
100
AcDbPolyline
8
Layer_1
90
8
70
0
10
65.773247
20
43.206050
30
0.0
10
67.783459
20
42.036090
30
0.0
10
69.599606
20
41.203801
30
0.0
10
71.507779
20
40.510090
30
0.0
10
62.661292
20
38.139690
30
0.0
10
60.323450
20
39.251250
30
0.0
10
59.620650
20
39.654330
30
0.0
10
65.773247
20
43.206050
30
0.0
62
0
0
LWPOLYLINE
100
AcDbPolyline
8
Layer_1
90
9
70
0
10
28.225668
20
43.205520
30
0.0
10
34.377230
20
39.654310
30
0.0
10
33.674947
20
39.251240
30
0.0
10
31.337623
20
38.139680
30
0.0
10
22.492167
20
40.510070
30
0.0
10
24.400341
20
41.203786
30
0.0
10
26.216488
20
42.036080
30
0.0
10
28.225668
20
43.205520
30
0.0
10
28.225668
20
43.205520
30
0.0
62
0
0
LWPOLYLINE
100
AcDbPolyline
8
Layer_1
90
13
70
0
10
56.873013
20
40.931750
30
0.0
10
56.931413
20
40.484750
30
0.0
10
57.138119
20
39.882720
30
0.0
10
54.371879
20
38.285420
30
0.0
10
54.349649
20
38.990800
30
0.0
10
54.374969
20
39.002200
30
0.0
10
54.505194
20
39.090000
30
0.0
10
54.615782
20
39.214020
30
0.0
10
54.697432
20
39.352000
30
0.0
10
54.756862
20
39.606250
30
0.0
10
54.769772
20
39.861010
30
0.0
10
56.873001
20
40.931750
30
0.0
10
56.873013
20
40.931750
30
0.0
62
0
0
LWPOLYLINE
100
AcDbPolyline
8
Layer_1
90
13
70
0
10
37.124865
20
40.925750
30
0.0
10
39.228612
20
39.857090
30
0.0
10
39.241522
20
39.606460
30
0.0
10
39.300952
20
39.352210
30
0.0
10
39.382602
20
39.214230
30
0.0
10
39.493187
20
39.090210
30
0.0
10
39.623413
20
39.002310
30
0.0
10
39.648733
20
38.990910
30
0.0
10
39.626513
20
38.286040
30
0.0
10
36.860273
20
39.883360
30
0.0
10
37.066979
20
40.484870
30
0.0
10
37.124859
20
40.925670
30
0.0
10
37.124865
20
40.925750
30
0.0
62
0
0
LWPOLYLINE
100
AcDbPolyline
8
Layer_1
90
41
70
0
10
41.079147
20
39.838480
30
0.0
10
42.988737
20
39.244223
30
0.0
10
43.967087
20
39.087838
30
0.0
10
44.967282
20
39.119660
30
0.0
10
46.999200
20
39.274180
30
0.0
10
49.031115
20
39.119660
30
0.0
10
50.031305
20
39.087831
30
0.0
10
51.009657
20
39.244211
30
0.0
10
52.919252
20
39.838480
30
0.0
10
52.915152
20
39.810580
30
0.0
10
52.878462
20
36.218040
30
0.0
10
52.675373
20
36.122440
30
0.0
10
52.395804
20
35.653210
30
0.0
10
51.926582
20
32.504050
30
0.0
10
51.748816
20
32.470450
30
0.0
10
51.316799
20
32.052390
30
0.0
10
51.313699
20
32.052390
30
0.0
10
50.096201
20
29.724880
30
0.0
10
49.700913
20
29.701896
30
0.0
10
49.364980
20
29.544010
30
0.0
10
47.910806
20
27.728100
30
0.0
10
47.414378
20
27.219598
30
0.0
10
46.999750
20
26.986030
30
0.0
10
46.999750
20
26.358160
30
0.0
10
46.999221
20
26.358690
30
0.0
10
46.999221
20
26.986040
30
0.0
10
46.584597
20
27.219624
30
0.0
10
46.088165
20
27.728120
30
0.0
10
44.633989
20
29.544030
30
0.0
10
44.297804
20
29.701889
30
0.0
10
43.902252
20
29.724890
30
0.0
10
42.684753
20
32.052400
30
0.0
10
42.682153
20
32.052400
30
0.0
10
42.250139
20
32.470460
30
0.0
10
42.072371
20
32.504060
30
0.0
10
41.603148
20
35.653230
30
0.0
10
41.323579
20
36.122450
30
0.0
10
41.119974
20
36.218050
30
0.0
10
41.083804
20
39.810600
30
0.0
10
41.079104
20
39.838500
30
0.0
10
41.079147
20
39.838480
30
0.0
62
0
0
LWPOLYLINE
100
AcDbPolyline
8
Layer_1
90
6
70
0
10
58.219187
20
38.845260
30
0.0
10
59.639771
20
37.977100
30
0.0
10
60.471762
20
37.553350
30
0.0
10
54.352238
20
35.913660
30
0.0
10
54.402368
20
36.641780
30
0.0
10
58.219187
20
38.845260
30
0.0
62
0
0
LWPOLYLINE
100
AcDbPolyline
8
Layer_1
90
7
70
0
10
35.779213
20
38.844730
30
0.0
10
39.596034
20
36.641250
30
0.0
10
39.646154
20
35.913640
30
0.0
10
33.526630
20
37.553340
30
0.0
10
34.358623
20
37.977080
30
0.0
10
35.779208
20
38.844730
30
0.0
10
35.779213
20
38.844730
30
0.0
62
0
0
LWPOLYLINE
100
AcDbPolyline
8
Layer_1
90
5
70
0
10
2.185913
20
32.478740
30
0.0
10
40.522591
20
32.478740
30
0.0
10
40.580471
20
32.223970
30
0.0
10
2.185913
20
21.936740
30
0.0
10
2.185913
20
32.478740
30
0.0
62
0
0
LWPOLYLINE
100
AcDbPolyline
8
Layer_1
90
6
70
0
10
53.475805
20
32.478740
30
0.0
10
91.813002
20
32.478740
30
0.0
10
91.813002
20
21.936230
30
0.0
10
53.418444
20
32.225430
30
0.0
10
53.475804
20
32.479680
30
0.0
10
53.475805
20
32.478740
30
0.0
62
0
0
LWPOLYLINE
100
AcDbPolyline
8
Layer_1
90
6
70
0
10
52.395252
20
31.006990
30
0.0
10
91.813002
20
20.444840
30
0.0
10
91.813002
20
8.155160
30
0.0
10
52.363211
20
30.933000
30
0.0
10
52.395251
20
31.007900
30
0.0
10
52.395252
20
31.006990
30
0.0
62
0
0
LWPOLYLINE
100
AcDbPolyline
8
Layer_1
90
5
70
0
10
41.603144
20
31.006460
30
0.0
10
41.635184
20
30.932060
30
0.0
10
2.185913
20
8.156720
30
0.0
10
2.185913
20
20.444850
30
0.0
10
41.603144
20
31.006460
30
0.0
62
0
0
LWPOLYLINE
100
AcDbPolyline
8
Layer_1
90
6
70
0
10
42.232564
20
29.615850
30
0.0
10
42.288894
20
29.506810
30
0.0
10
14.968079
20
2.185490
30
0.0
10
2.185913
20
2.185490
30
0.0
10
2.185913
20
6.494790
30
0.0
10
42.232564
20
29.615850
30
0.0
62
0
0
LWPOLYLINE
100
AcDbPolyline
8
Layer_1
90
7
70
0
10
51.765832
20
29.615850
30
0.0
10
91.813002
20
6.494780
30
0.0
10
91.813002
20
2.185480
30
0.0
10
79.031351
20
2.185480
30
0.0
10
51.709505
20
29.507760
30
0.0
10
51.765835
20
29.616800
30
0.0
10
51.765832
20
29.615850
30
0.0
62
0
0
LWPOLYLINE
100
AcDbPolyline
8
Layer_1
90
15
70
0
10
43.148787
20
28.330140
30
0.0
10
43.313117
20
28.254140
30
0.0
10
41.674460
20
25.415550
30
0.0
10
40.034902
20
24.536234
30
0.0
10
38.545674
20
23.440715
30
0.0
10
37.227821
20
22.149904
30
0.0
10
36.102388
20
20.684716
30
0.0
10
35.190417
20
19.066064
30
0.0
10
34.512955
20
17.314860
30
0.0
10
34.091045
20
15.452017
30
0.0
10
33.945732
20
13.498450
30
0.0
10
33.945732
20
12.028770
30
0.0
10
28.262874
20
2.185450
30
0.0
10
17.004130
20
2.185450
30
0.0
10
43.148787
20
28.330140
30
0.0
62
0
0
LWPOLYLINE
100
AcDbPolyline
8
Layer_1
90
16
70
0
10
50.849093
20
28.330140
30
0.0
10
76.992715
20
2.185480
30
0.0
10
65.734488
20
2.185480
30
0.0
10
60.052664
20
12.027270
30
0.0
10
60.052664
20
13.498500
30
0.0
10
59.907330
20
15.452217
30
0.0
10
59.485359
20
17.315196
30
0.0
10
58.807801
20
19.066519
30
0.0
10
57.895704
20
20.685266
30
0.0
10
56.770117
20
22.150519
30
0.0
10
55.452089
20
23.441358
30
0.0
10
53.962669
20
24.536865
30
0.0
10
52.322905
20
25.416120
30
0.0
10
50.684761
20
28.253670
30
0.0
10
50.849093
20
28.330170
30
0.0
10
50.849093
20
28.330140
30
0.0
62
0
0
LWPOLYLINE
100
AcDbPolyline
8
Layer_1
90
5
70
0
10
44.490825
20
27.413910
30
0.0
10
44.649988
20
27.213410
30
0.0
10
44.403492
20
26.292540
30
0.0
10
43.759086
20
26.145780
30
0.0
10
44.490825
20
27.413910
30
0.0
62
0
0
LWPOLYLINE
100
AcDbPolyline
8
Layer_1
90
6
70
0
10
49.507571
20
27.413910
30
0.0
10
50.239827
20
26.145780
30
0.0
10
49.595424
20
26.292540
30
0.0
10
49.348409
20
27.213930
30
0.0
10
49.507571
20
27.413910
30
0.0
10
49.507571
20
27.413910
30
0.0
62
0
0
LWPOLYLINE
100
AcDbPolyline
8
Layer_1
90
34
70
0
10
46.999200
20
24.037890
30
0.0
10
49.115228
20
23.824612
30
0.0
10
51.086120
20
23.212868
30
0.0
10
52.869657
20
22.244873
30
0.0
10
54.423620
20
20.962844
30
0.0
10
55.705789
20
19.408996
30
0.0
10
56.673943
20
17.625546
30
0.0
10
57.285864
20
15.654708
30
0.0
10
57.499332
20
13.538700
30
0.0
10
57.295734
20
11.480649
30
0.0
10
56.700095
20
9.520450
30
0.0
10
55.735230
20
7.713187
30
0.0
10
54.423956
20
6.113942
30
0.0
10
52.824712
20
4.802666
30
0.0
10
51.017449
20
3.837800
30
0.0
10
49.057250
20
3.242160
30
0.0
10
46.999200
20
3.038560
30
0.0
10
44.941149
20
3.242159
30
0.0
10
42.980950
20
3.837799
30
0.0
10
41.173686
20
4.802665
30
0.0
10
39.574441
20
6.113940
30
0.0
10
38.263167
20
7.713185
30
0.0
10
37.298302
20
9.520450
30
0.0
10
36.702662
20
11.480649
30
0.0
10
36.499064
20
13.538700
30
0.0
10
36.702664
20
15.596750
30
0.0
10
37.298305
20
17.556947
30
0.0
10
38.263170
20
19.364210
30
0.0
10
39.574445
20
20.963453
30
0.0
10
41.173689
20
22.274727
30
0.0
10
42.980952
20
23.239592
30
0.0
10
44.941150
20
23.835231
30
0.0
10
46.999200
20
24.038830
30
0.0
10
46.999200
20
24.037890
30
0.0
62
0
0
LWPOLYLINE
100
AcDbPolyline
8
Layer_1
90
4
70
0
10
60.052664
20
9.148360
30
0.0
10
64.072574
20
2.185480
30
0.0
10
60.052664
20
2.185480
30
0.0
10
60.052664
20
9.148360
30
0.0
62
0
0
LWPOLYLINE
100
AcDbPolyline
8
Layer_1
90
4
70
0
10
33.945732
20
9.147840
30
0.0
10
33.945732
20
2.185470
30
0.0
10
29.926338
20
2.185470
30
0.0
10
33.945732
20
9.147840
30
0.0
  0
ENDSEC
  0
SECTION
  2
OBJECTS
  0
DICTIONARY
  5
C
330
0
100
AcDbDictionary
  3
ACAD_GROUP
350
D
  3
ACAD_MLINESTYLE
350
17
  0
DICTIONARY
  5
D
330
C
100
AcDbDictionary
  0
DICTIONARY
  5
1A
330
C
100
AcDbDictionary
  0
DICTIONARY
  5
17
330
C
100
AcDbDictionary
  3
STANDARD
350
18
  0
DICTIONARY
  5
19
330
C
100
AcDbDictionary
  0
ENDSEC
  0
EOF
