999
Inkscape export via OpenSCAD DXF Export
  0
SECTION
  2
HEADER
  9
$ACADVER
  1
AC1014
  9
$HANDSEED
  5
FFFF
  9
$MEASUREMENT
 70
     1
  0
ENDSEC
  0
SECTION
  2
TABLES
  0
TABLE
  2
VPORT
  5
8
330
0
100
AcDbSymbolTable
 70
     4
  0
VPORT
  5
2E
330
8
100
AcDbSymbolTableRecord
100
AcDbViewportTableRecord
  2
*ACTIVE
 70
     0
 10
0.0
 20
0.0
 11
1.0
 21
1.0
 12
210.0
 22
148.5
 13
0.0
 23
0.0
 14
10.0
 24
10.0
 15
10.0
 25
10.0
 16
0.0
 26
0.0
 36
1.0
 17
0.0
 27
0.0
 37
0.0
 40
341.0
 41
1.24
 42
50.0
 43
0.0
 44
0.0
 50
0.0
 51
0.0
 71
     0
 72
   100
 73
     1
 74
     3
 75
     0
 76
     0
 77
     0
 78
     0
  0
ENDTAB
  0
TABLE
  2
LTYPE
  5
5
330
0
100
AcDbSymbolTable
 70
     1
  0
LTYPE
  5
14
330
5
100
AcDbSymbolTableRecord
100
AcDbLinetypeTableRecord
  2
BYBLOCK
 70
     0
  3

 72
    65
 73
     0
 40
0.0
  0
LTYPE
  5
15
330
5
100
AcDbSymbolTableRecord
100
AcDbLinetypeTableRecord
  2
BYLAYER
 70
     0
  3

 72
    65
 73
     0
 40
0.0
  0
LTYPE
  5
16
330
5
100
AcDbSymbolTableRecord
100
AcDbLinetypeTableRecord
  2
CONTINUOUS
 70
     0
  3
Solid line
 72
    65
 73
     0
 40
0.0
  0
ENDTAB
  0
TABLE
0
TABLE
2
LAYER
5
2
330
0
100
AcDbSymbolTable
70
1
0
LAYER
5
10
330
2
100
AcDbSymbolTableRecord
100
AcDbLayerTableRecord
2
Layer_1
70
0
62
7
6
CONTINUOUS
0
ENDTAB
0
ENDSEC
  0
ENDTAB
  0
TABLE
  2
STYLE
  5
3
330
0
100
AcDbSymbolTable
 70
     1
  0
STYLE
  5
11
330
3
100
AcDbSymbolTableRecord
100
AcDbTextStyleTableRecord
  2
STANDARD
 70
     0
 40
0.0
 41
1.0
 50
0.0
 71
     0
 42
2.5
  3
txt
  4

  0
ENDTAB
  0
TABLE
  2
VIEW
  5
6
330
0
100
AcDbSymbolTable
 70
     0
  0
ENDTAB
  0
TABLE
  2
UCS
  5
7
330
0
100
AcDbSymbolTable
 70
     0
  0
ENDTAB
  0
TABLE
  2
APPID
  5
9
330
0
100
AcDbSymbolTable
 70
     2
  0
APPID
  5
12
330
9
100
AcDbSymbolTableRecord
100
AcDbRegAppTableRecord
  2
ACAD
 70
     0
  0
ENDTAB
  0
TABLE
  2
DIMSTYLE
  5
A
330
0
100
AcDbSymbolTable
 70
     1
  0
DIMSTYLE
105
27
330
A
100
AcDbSymbolTableRecord
100
AcDbDimStyleTableRecord
  2
ISO-25
 70
     0
  3

  4

  5

  6

  7

 40
1.0
 41
2.5
 42
0.625
 43
3.75
 44
1.25
 45
0.0
 46
0.0
 47
0.0
 48
0.0
140
2.5
141
2.5
142
0.0
143
0.03937007874016
144
1.0
145
0.0
146
1.0
147
0.625
 71
     0
 72
     0
 73
     0
 74
     0
 75
     0
 76
     0
 77
     1
 78
     8
170
     0
171
     3
172
     1
173
     0
174
     0
175
     0
176
     0
177
     0
178
     0
270
     2
271
     2
272
     2
273
     2
274
     3
340
11
275
     0
280
     0
281
     0
282
     0
283
     0
284
     8
285
     0
286
     0
287
     3
288
     0
  0
ENDTAB
  0
TABLE
  2
BLOCK_RECORD
  5
1
330
0
100
AcDbSymbolTable
 70
     1
  0
BLOCK_RECORD
  5
1F
330
1
100
AcDbSymbolTableRecord
100
AcDbBlockTableRecord
  2
*MODEL_SPACE
  0
BLOCK_RECORD
  5
1B
330
1
100
AcDbSymbolTableRecord
100
AcDbBlockTableRecord
  2
*PAPER_SPACE
  0
ENDTAB
  0
ENDSEC
  0
SECTION
  2
BLOCKS
  0
BLOCK
  5
20
330
1F
100
AcDbEntity
  8
0
100
AcDbBlockBegin
  2
*MODEL_SPACE
 70
     0
 10
0.0
 20
0.0
 30
0.0
  3
*MODEL_SPACE
  1

  0
ENDBLK
  5
21
330
1F
100
AcDbEntity
  8
0
100
AcDbBlockEnd
  0
BLOCK
  5
1C
330
1B
100
AcDbEntity
 67
     1
  8
0
100
AcDbBlockBegin
  2
*PAPER_SPACE
  1

  0
ENDBLK
  5
1D
330
1B
100
AcDbEntity
 67
     1
  8
0
100
AcDbBlockEnd
  0
ENDSEC
  0
SECTION
  2
ENTITIES
0
DIMENSION
5
83
100
AcDbEntity
62
256
370
-1
6
ByLayer
1
total_width
3
Standard
70
0
71
5
72
1
41
1.0
100
AcDbAlignedDimension
13
0.000000
23
0.000000
33
0.0
14
93.999950
24
0.000000
34
0.0
50
0.000000
100
AcDbRotatedDimension
0
DIMENSION
5
83
100
AcDbEntity
62
256
370
-1
6
ByLayer
1
total_minx
3
Standard
70
0
71
5
72
1
41
1.0
100
AcDbAlignedDimension
13
0.000000
23
0.000000
33
0.0
14
0.000000
24
0.000000
34
0.0
50
0.000000
100
AcDbRotatedDimension
0
DIMENSION
5
83
100
AcDbEntity
62
256
370
-1
6
ByLayer
1
total_maxx
3
Standard
70
0
71
5
72
1
41
1.0
100
AcDbAlignedDimension
13
0.000000
23
0.000000
33
0.0
14
93.999950
24
0.000000
34
0.0
50
0.000000
100
AcDbRotatedDimension
0
DIMENSION
5
83
100
AcDbEntity
62
256
370
-1
6
ByLayer
1
total_height
3
Standard
70
0
71
5
72
1
41
1.0
100
AcDbAlignedDimension
13
0.000000
23
0.000000
33
0.0
14
0.000000
24
93.999950
34
0.0
50
90.000000
100
AcDbRotatedDimension
0
DIMENSION
5
83
100
AcDbEntity
62
256
370
-1
6
ByLayer
1
total_miny
3
Standard
70
0
71
5
72
1
41
1.0
100
AcDbAlignedDimension
13
0.000000
23
0.000000
33
0.0
14
0.000000
24
0.000000
34
0.0
50
0.000000
100
AcDbRotatedDimension
0
DIMENSION
5
83
100
AcDbEntity
62
256
370
-1
6
ByLayer
1
total_maxy
3
Standard
70
0
71
5
72
1
41
1.0
100
AcDbAlignedDimension
13
0.000000
23
0.000000
33
0.0
14
93.999950
24
0.000000
34
0.0
50
0.000000
100
AcDbRotatedDimension
0
DIMENSION
8
Layer_1
5
83
100
AcDbEntity
62
256
370
-1
6
ByLayer
1
Layer_1_width
3
Standard
70
0
71
5
72
1
41
1.0
100
AcDbAlignedDimension
13
0.000000
23
0.000000
33
0.0
14
93.999950
24
0.000000
34
0.0
50
0.000000
100
AcDbRotatedDimension
0
DIMENSION
8
Layer_1
5
83
100
AcDbEntity
62
256
370
-1
6
ByLayer
1
Layer_1_minx
3
Standard
70
0
71
5
72
1
41
1.0
100
AcDbAlignedDimension
13
0.000000
23
0.000000
33
0.0
14
0.000000
24
0.000000
34
0.0
50
0.000000
100
AcDbRotatedDimension
0
DIMENSION
8
Layer_1
5
83
100
AcDbEntity
62
256
370
-1
6
ByLayer
1
Layer_1_maxx
3
Standard
70
0
71
5
72
1
41
1.0
100
AcDbAlignedDimension
13
0.000000
23
0.000000
33
0.0
14
93.999950
24
0.000000
34
0.0
50
0.000000
100
AcDbRotatedDimension
0
DIMENSION
8
Layer_1
5
83
100
AcDbEntity
62
256
370
-1
6
ByLayer
1
Layer_1_height
3
Standard
70
0
71
5
72
1
41
1.0
100
AcDbAlignedDimension
13
0.000000
23
0.000000
33
0.0
14
0.000000
24
93.999950
34
0.0
50
90.000000
100
AcDbRotatedDimension
0
DIMENSION
8
Layer_1
5
83
100
AcDbEntity
62
256
370
-1
6
ByLayer
1
Layer_1_miny
3
Standard
70
0
71
5
72
1
41
1.0
100
AcDbAlignedDimension
13
0.000000
23
0.000000
33
0.0
14
0.000000
24
0.000000
34
0.0
50
0.000000
100
AcDbRotatedDimension
0
DIMENSION
8
Layer_1
5
83
100
AcDbEntity
62
256
370
-1
6
ByLayer
1
Layer_1_maxy
3
Standard
70
0
71
5
72
1
41
1.0
100
AcDbAlignedDimension
13
0.000000
23
0.000000
33
0.0
14
93.999950
24
0.000000
34
0.0
50
0.000000
100
AcDbRotatedDimension
62
0
0
LWPOLYLINE
100
AcDbPolyline
8
Layer_1
90
7
70
0
10
0.000000
20
93.999950
30
0.0
10
0.000000
20
0.000000
30
0.0
10
33.945732
20
0.000000
30
0.0
10
60.052664
20
0.000000
30
0.0
10
93.999950
20
0.000000
30
0.0
10
93.999950
20
93.999950
30
0.0
10
0.000000
20
93.999950
30
0.0
62
0
0
LWPOLYLINE
100
AcDbPolyline
8
Layer_1
90
8
70
0
10
2.185913
20
91.813520
30
0.0
10
12.326379
20
91.813520
30
0.0
10
28.431339
20
63.918060
30
0.0
10
28.096993
20
62.777560
30
0.0
10
24.214641
20
61.859878
30
0.0
10
20.412191
20
60.803520
30
0.0
10
2.185913
20
79.029800
30
0.0
10
2.185913
20
91.813520
30
0.0
62
0
0
LWPOLYLINE
100
AcDbPolyline
8
Layer_1
90
25
70
0
10
13.990877
20
91.813520
30
0.0
10
30.548522
20
91.813520
30
0.0
10
34.807694
20
75.918360
30
0.0
10
32.486212
20
75.567028
30
0.0
10
29.980083
20
75.006280
30
0.0
10
29.641039
20
74.829659
30
0.0
10
29.439432
20
74.504851
30
0.0
10
29.431610
20
74.122641
30
0.0
10
29.619760
20
73.789857
30
0.0
10
29.951295
20
73.599513
30
0.0
10
30.333548
20
73.604810
30
0.0
10
32.885749
20
74.167014
30
0.0
10
35.189067
20
74.493650
30
0.0
10
35.439697
20
73.558820
30
0.0
10
33.882687
20
72.285510
30
0.0
10
33.855817
20
72.310810
30
0.0
10
33.353006
20
72.514420
30
0.0
10
32.949561
20
72.391391
30
0.0
10
32.683392
20
72.064192
30
0.0
10
32.645062
20
71.644150
30
0.0
10
32.847612
20
71.274180
30
0.0
10
30.733409
20
68.634807
30
0.0
10
29.851148
20
67.182248
30
0.0
10
29.095386
20
65.650240
30
0.0
10
13.990877
20
91.813520
30
0.0
62
0
0
LWPOLYLINE
100
AcDbPolyline
8
Layer_1
90
12
70
0
10
32.038353
20
91.813520
30
0.0
10
46.278313
20
91.813520
30
0.0
10
46.278313
20
77.327580
30
0.0
10
44.458571
20
77.177047
30
0.0
10
42.689910
20
76.863825
30
0.0
10
40.979768
20
76.395683
30
0.0
10
39.335583
20
75.780390
30
0.0
10
37.980561
20
75.978160
30
0.0
10
36.539890
20
76.027400
30
0.0
10
36.539360
20
76.027400
30
0.0
10
36.270644
20
76.019400
30
0.0
10
32.038353
20
91.813520
30
0.0
62
0
0
LWPOLYLINE
100
AcDbPolyline
8
Layer_1
90
11
70
0
10
47.719051
20
91.813520
30
0.0
10
61.959524
20
91.813520
30
0.0
10
57.727742
20
76.018620
30
0.0
10
57.458509
20
76.027620
30
0.0
10
56.014517
20
75.977986
30
0.0
10
54.656612
20
75.779050
30
0.0
10
53.013664
20
76.394410
30
0.0
10
51.304800
20
76.862852
30
0.0
10
49.537451
20
77.176581
30
0.0
10
47.719051
20
77.327800
30
0.0
10
47.719051
20
91.813520
30
0.0
62
0
0
LWPOLYLINE
100
AcDbPolyline
8
Layer_1
90
25
70
0
10
63.451425
20
91.813520
30
0.0
10
80.009070
20
91.813520
30
0.0
10
64.897847
20
65.639410
30
0.0
10
64.142487
20
67.172901
30
0.0
10
63.260441
20
68.626942
30
0.0
10
61.146140
20
71.269040
30
0.0
10
61.352906
20
71.638893
30
0.0
10
61.316958
20
72.061090
30
0.0
10
61.050638
20
72.390662
30
0.0
10
60.645395
20
72.514440
30
0.0
10
60.142583
20
72.310830
30
0.0
10
60.111063
20
72.281330
30
0.0
10
58.558186
20
73.552060
30
0.0
10
58.810366
20
74.493080
30
0.0
10
61.112965
20
74.166392
30
0.0
10
63.664332
20
73.604250
30
0.0
10
64.046582
20
73.598957
30
0.0
10
64.378112
20
73.789301
30
0.0
10
64.566261
20
74.122082
30
0.0
10
64.558441
20
74.504289
30
0.0
10
64.356838
20
74.829096
30
0.0
10
64.017800
20
75.005720
30
0.0
10
61.512765
20
75.566397
30
0.0
10
59.192253
20
75.917810
30
0.0
10
63.451425
20
91.813520
30
0.0
62
0
0
LWPOLYLINE
100
AcDbPolyline
8
Layer_1
90
8
70
0
10
81.670470
20
91.813520
30
0.0
10
91.813000
20
91.813520
30
0.0
10
91.813000
20
79.031350
30
0.0
10
73.585689
20
60.804040
30
0.0
10
69.778415
20
61.861583
30
0.0
10
65.891069
20
62.780150
30
0.0
10
65.560340
20
63.907730
30
0.0
10
81.670470
20
91.813520
30
0.0
62
0
0
LWPOLYLINE
100
AcDbPolyline
8
Layer_1
90
9
70
0
10
2.185913
20
76.995300
30
0.0
10
18.864482
20
60.316220
30
0.0
10
17.361214
20
59.803070
30
0.0
10
15.491409
20
59.041803
30
0.0
10
13.520228
20
58.034964
30
0.0
10
11.617974
20
56.816120
30
0.0
10
9.954948
20
55.418840
30
0.0
10
2.185913
20
59.904360
30
0.0
10
2.185913
20
76.995300
30
0.0
62
0
0
LWPOLYLINE
100
AcDbPolyline
8
Layer_1
90
9
70
0
10
91.813000
20
76.994300
30
0.0
10
91.813000
20
59.903870
30
0.0
10
84.043960
20
55.418360
30
0.0
10
82.380901
20
56.815814
30
0.0
10
80.478533
20
58.034791
30
0.0
10
78.507183
20
59.041730
30
0.0
10
76.637180
20
59.803070
30
0.0
10
75.134433
20
60.315700
30
0.0
10
91.813000
20
76.994300
30
0.0
62
0
0
LWPOLYLINE
100
AcDbPolyline
8
Layer_1
90
20
70
0
10
46.994030
20
76.476470
30
0.0
10
50.238187
20
76.194884
30
0.0
10
53.299590
20
75.384030
30
0.0
10
51.697285
20
74.560196
30
0.0
10
50.295872
20
73.376225
30
0.0
10
49.104924
20
71.822857
30
0.0
10
48.134013
20
69.890830
30
0.0
10
48.108163
20
69.813830
30
0.0
10
47.109257
20
69.922350
30
0.0
10
46.999188
20
69.917350
30
0.0
10
46.889116
20
69.922350
30
0.0
10
45.890211
20
69.813830
30
0.0
10
45.863861
20
69.890830
30
0.0
10
44.892204
20
71.824181
30
0.0
10
43.700274
20
73.378340
30
0.0
10
42.297581
20
74.562561
30
0.0
10
40.693633
20
75.386100
30
0.0
10
43.752619
20
76.195472
30
0.0
10
46.994024
20
76.476470
30
0.0
10
46.994030
20
76.476470
30
0.0
62
0
0
LWPOLYLINE
100
AcDbPolyline
8
Layer_1
90
4
70
0
10
36.658227
20
74.572710
30
0.0
10
36.968287
20
74.571710
30
0.0
10
36.701119
20
74.412030
30
0.0
10
36.658227
20
74.572710
30
0.0
62
0
0
LWPOLYLINE
100
AcDbPolyline
8
Layer_1
90
5
70
0
10
57.340169
20
74.572180
30
0.0
10
57.295729
20
74.406820
30
0.0
10
57.021843
20
74.571150
30
0.0
10
57.340171
20
74.572150
30
0.0
10
57.340169
20
74.572180
30
0.0
62
0
0
LWPOLYLINE
100
AcDbPolyline
8
Layer_1
90
17
70
0
10
38.537182
20
74.452810
30
0.0
10
39.447721
20
74.268330
30
0.0
10
41.041512
20
73.654607
30
0.0
10
42.404820
20
72.670196
30
0.0
10
43.558365
20
71.254822
30
0.0
10
44.522864
20
69.348210
30
0.0
10
44.571434
20
69.250010
30
0.0
10
43.863663
20
68.631438
30
0.0
10
43.316409
20
67.893072
30
0.0
10
42.620651
20
66.272420
30
0.0
10
42.311626
20
66.408330
30
0.0
10
39.841358
20
67.617136
30
0.0
10
37.950652
20
68.738410
30
0.0
10
34.517786
20
71.699470
30
0.0
10
36.432556
20
73.204234
30
0.0
10
38.537178
20
74.452790
30
0.0
10
38.537182
20
74.452810
30
0.0
62
0
0
LWPOLYLINE
100
AcDbPolyline
8
Layer_1
90
17
70
0
10
55.453978
20
74.450810
30
0.0
10
57.560061
20
73.201129
30
0.0
10
59.475957
20
71.694910
30
0.0
10
56.047741
20
68.737980
30
0.0
10
54.156770
20
67.616705
30
0.0
10
51.686251
20
66.407890
30
0.0
10
51.377742
20
66.271980
30
0.0
10
50.681980
20
67.892641
30
0.0
10
50.134726
20
68.631008
30
0.0
10
49.426958
20
69.249580
30
0.0
10
49.475528
20
69.347780
30
0.0
10
50.440029
20
71.254202
30
0.0
10
51.593575
20
72.669596
30
0.0
10
52.956883
20
73.654110
30
0.0
10
54.550670
20
74.267890
30
0.0
10
55.453973
20
74.450820
30
0.0
10
55.453978
20
74.450810
30
0.0
62
0
0
LWPOLYLINE
100
AcDbPolyline
8
Layer_1
90
11
70
0
10
33.477025
20
70.685670
30
0.0
10
35.226837
20
69.103415
30
0.0
10
37.103161
20
67.565440
30
0.0
10
38.927304
20
66.459637
30
0.0
10
41.172164
20
65.344910
30
0.0
10
29.049390
20
62.985880
30
0.0
10
29.809677
20
65.122020
30
0.0
10
30.812803
20
67.129104
30
0.0
10
32.041132
20
68.989523
30
0.0
10
33.477025
20
70.685670
30
0.0
10
33.477025
20
70.685670
30
0.0
62
0
0
LWPOLYLINE
100
AcDbPolyline
8
Layer_1
90
11
70
0
10
60.515685
20
70.680670
30
0.0
10
61.949770
20
68.985811
30
0.0
10
63.176739
20
67.127100
30
0.0
10
64.178927
20
65.122034
30
0.0
10
64.938672
20
62.988110
30
0.0
10
52.826232
20
65.345590
30
0.0
10
55.070835
20
66.460059
30
0.0
10
56.894719
20
67.565610
30
0.0
10
58.767254
20
69.100066
30
0.0
10
60.515685
20
70.680670
30
0.0
10
60.515685
20
70.680670
30
0.0
62
0
0
LWPOLYLINE
100
AcDbPolyline
8
Layer_1
90
15
70
0
10
91.813000
20
58.241310
30
0.0
10
91.813000
20
45.951630
30
0.0
10
62.661292
20
38.140730
30
0.0
10
60.323450
20
39.252290
30
0.0
10
59.620650
20
39.655370
30
0.0
10
79.615810
20
51.199440
30
0.0
10
85.178780
20
49.711160
30
0.0
10
85.434398
20
49.719492
30
0.0
10
85.633679
20
49.868764
30
0.0
10
85.890667
20
50.414997
30
0.0
10
86.030410
20
51.272300
30
0.0
10
85.998332
20
52.058738
30
0.0
10
85.805922
20
52.829510
30
0.0
10
85.005660
20
54.311390
30
0.0
10
91.813000
20
58.241310
30
0.0
62
0
0
LWPOLYLINE
100
AcDbPolyline
8
Layer_1
90
15
70
0
10
2.185913
20
58.239310
30
0.0
10
8.992216
20
54.309830
30
0.0
10
8.192375
20
52.828435
30
0.0
10
8.000043
20
52.057940
30
0.0
10
7.967989
20
51.271770
30
0.0
10
8.107731
20
50.414471
30
0.0
10
8.364719
20
49.868238
30
0.0
10
8.564000
20
49.718965
30
0.0
10
8.819617
20
49.710630
30
0.0
10
14.381551
20
51.198910
30
0.0
10
34.377230
20
39.655400
30
0.0
10
33.674947
20
39.252330
30
0.0
10
31.338139
20
38.140770
30
0.0
10
2.185913
20
45.952230
30
0.0
10
2.185913
20
58.239310
30
0.0
62
0
0
LWPOLYLINE
100
AcDbPolyline
8
Layer_1
90
12
70
0
10
38.420910
20
57.770690
30
0.0
10
37.408054
20
56.327880
30
0.0
10
36.650791
20
55.127237
30
0.0
10
35.722367
20
53.992100
30
0.0
10
34.917766
20
53.717700
30
0.0
10
33.169034
20
53.528560
30
0.0
10
29.901018
20
53.545660
30
0.0
10
28.771887
20
53.684150
30
0.0
10
28.771358
20
53.684150
30
0.0
10
28.521761
20
55.014310
30
0.0
10
38.420897
20
57.770730
30
0.0
10
38.420910
20
57.770690
30
0.0
62
0
0
LWPOLYLINE
100
AcDbPolyline
8
Layer_1
90
11
70
0
10
55.577486
20
57.770690
30
0.0
10
65.466804
20
55.016850
30
0.0
10
65.217207
20
53.683080
30
0.0
10
64.097379
20
53.545620
30
0.0
10
60.829362
20
53.528520
30
0.0
10
59.080633
20
53.717660
30
0.0
10
58.276030
20
53.992060
30
0.0
10
57.347604
20
55.127189
30
0.0
10
56.590345
20
56.327830
30
0.0
10
55.577486
20
57.770640
30
0.0
10
55.577486
20
57.770690
30
0.0
62
0
0
LWPOLYLINE
100
AcDbPolyline
8
Layer_1
90
25
70
0
10
40.355676
20
57.589300
30
0.0
10
39.762279
20
53.154700
30
0.0
10
39.310262
20
48.117010
30
0.0
10
37.996283
20
47.623020
30
0.0
10
37.421514
20
47.241361
30
0.0
10
36.942964
20
46.735700
30
0.0
10
36.401750
20
45.509500
30
0.0
10
36.098573
20
43.965840
30
0.0
10
35.912536
20
42.760230
30
0.0
10
33.701786
20
44.674065
30
0.0
10
31.814896
20
46.908365
30
0.0
10
30.292562
20
49.422460
30
0.0
10
29.175480
20
52.175680
30
0.0
10
29.771827
20
52.102780
30
0.0
10
29.797147
20
52.102780
30
0.0
10
33.239832
20
52.085780
30
0.0
10
35.199918
20
52.300230
30
0.0
10
36.035218
20
52.518849
30
0.0
10
36.747627
20
52.972540
30
0.0
10
37.842896
20
54.306076
30
0.0
10
38.640020
20
55.570830
30
0.0
10
39.368162
20
56.651544
30
0.0
10
40.250256
20
57.519550
30
0.0
10
40.355676
20
57.589350
30
0.0
10
40.355676
20
57.589300
30
0.0
62
0
0
LWPOLYLINE
100
AcDbPolyline
8
Layer_1
90
25
70
0
10
53.642720
20
57.589300
30
0.0
10
53.748141
20
57.519500
30
0.0
10
54.630232
20
56.651494
30
0.0
10
55.358379
20
55.570780
30
0.0
10
56.155497
20
54.306038
30
0.0
10
57.250769
20
52.972490
30
0.0
10
57.963181
20
52.518803
30
0.0
10
58.798479
20
52.300180
30
0.0
10
60.758565
20
52.085720
30
0.0
10
64.201249
20
52.102720
30
0.0
10
64.226569
20
52.102720
30
0.0
10
64.812581
20
52.174520
30
0.0
10
63.696738
20
49.423997
30
0.0
10
62.176508
20
46.912081
30
0.0
10
60.292375
20
44.679333
30
0.0
10
58.084825
20
42.766310
30
0.0
10
57.900341
20
43.965720
30
0.0
10
57.596899
20
45.509386
30
0.0
10
57.055432
20
46.735570
30
0.0
10
56.576884
20
47.241239
30
0.0
10
56.002113
20
47.622899
30
0.0
10
54.688133
20
48.116890
30
0.0
10
54.236118
20
53.154572
30
0.0
10
53.642719
20
57.589180
30
0.0
10
53.642720
20
57.589300
30
0.0
62
0
0
LWPOLYLINE
100
AcDbPolyline
8
Layer_1
90
6
70
0
10
66.305515
20
54.788440
30
0.0
10
67.299769
20
54.517650
30
0.0
10
65.997005
20
53.214890
30
0.0
10
65.995905
20
53.218890
30
0.0
10
66.305449
20
54.788820
30
0.0
10
66.305515
20
54.788440
30
0.0
62
0
0
LWPOLYLINE
100
AcDbPolyline
8
Layer_1
90
5
70
0
10
27.683582
20
54.785440
30
0.0
10
27.991057
20
53.224290
30
0.0
10
26.698112
20
54.517190
30
0.0
10
27.683582
20
54.785390
30
0.0
10
27.683582
20
54.785440
30
0.0
62
0
0
LWPOLYLINE
100
AcDbPolyline
8
Layer_1
90
11
70
0
10
25.098210
20
54.081600
30
0.0
10
28.980143
20
50.199670
30
0.0
10
30.229227
20
47.745622
30
0.0
10
31.799626
20
45.506819
30
0.0
10
33.660438
20
43.512761
30
0.0
10
35.780763
20
41.792950
30
0.0
10
35.635033
20
40.675190
30
0.0
10
35.578703
20
40.623490
30
0.0
10
16.349390
20
51.726560
30
0.0
10
25.098210
20
54.082490
30
0.0
10
25.098210
20
54.081600
30
0.0
62
0
0
LWPOLYLINE
100
AcDbPolyline
8
Layer_1
90
10
70
0
10
68.900704
20
54.081070
30
0.0
10
77.649530
20
51.725660
30
0.0
10
58.420206
20
40.622930
30
0.0
10
58.363366
20
40.675130
30
0.0
10
58.216605
20
41.799090
30
0.0
10
60.330422
20
43.514806
30
0.0
10
62.186141
20
45.503188
30
0.0
10
63.753113
20
47.735001
30
0.0
10
65.000688
20
50.181010
30
0.0
10
68.900704
20
54.081070
30
0.0
62
0
0
LWPOLYLINE
100
AcDbPolyline
8
Layer_1
90
8
70
0
10
39.225514
20
46.513570
30
0.0
10
39.185204
20
40.829170
30
0.0
10
37.247338
20
41.863730
30
0.0
10
37.521740
20
43.719430
30
0.0
10
37.855833
20
45.160356
30
0.0
10
38.112404
20
45.882610
30
0.0
10
39.225514
20
46.513570
30
0.0
10
39.225514
20
46.513570
30
0.0
62
0
0
LWPOLYLINE
100
AcDbPolyline
8
Layer_1
90
8
70
0
10
54.772883
20
46.513570
30
0.0
10
55.885995
20
45.882610
30
0.0
10
56.142566
20
45.160360
30
0.0
10
56.476657
20
43.719430
30
0.0
10
56.750540
20
41.869930
30
0.0
10
54.813192
20
40.833820
30
0.0
10
54.772882
20
46.513570
30
0.0
10
54.772883
20
46.513570
30
0.0
62
0
0
LWPOLYLINE
100
AcDbPolyline
8
Layer_1
90
9
70
0
10
91.813000
20
44.461500
30
0.0
10
91.813000
20
33.916410
30
0.0
10
53.651505
20
33.916410
30
0.0
10
53.680965
20
34.243520
30
0.0
10
62.538300
20
36.616980
30
0.0
10
62.811671
20
36.497610
30
0.0
10
63.429386
20
36.489905
30
0.0
10
63.827628
20
36.962170
30
0.0
10
91.813000
20
44.461500
30
0.0
62
0
0
LWPOLYLINE
100
AcDbPolyline
8
Layer_1
90
9
70
0
10
2.185913
20
44.461120
30
0.0
10
30.170252
20
36.962870
30
0.0
10
30.568524
20
36.489991
30
0.0
10
31.186726
20
36.497790
30
0.0
10
31.460612
20
36.617160
30
0.0
10
40.317436
20
34.244180
30
0.0
10
40.346896
20
33.916550
30
0.0
10
2.185913
20
33.916550
30
0.0
10
2.185913
20
44.461120
30
0.0
62
0
0
LWPOLYLINE
100
AcDbPolyline
8
Layer_1
90
13
70
0
10
56.873013
20
40.933690
30
0.0
10
56.931413
20
40.485140
30
0.0
10
57.138119
20
39.883110
30
0.0
10
54.371879
20
38.285790
30
0.0
10
54.349649
20
38.991170
30
0.0
10
54.374969
20
39.002570
30
0.0
10
54.505194
20
39.090470
30
0.0
10
54.615782
20
39.214490
30
0.0
10
54.697432
20
39.352470
30
0.0
10
54.756862
20
39.606720
30
0.0
10
54.769772
20
39.862520
30
0.0
10
56.873001
20
40.933770
30
0.0
10
56.873013
20
40.933690
30
0.0
62
0
0
LWPOLYLINE
100
AcDbPolyline
8
Layer_1
90
13
70
0
10
37.124865
20
40.928690
30
0.0
10
39.228612
20
39.858470
30
0.0
10
39.241522
20
39.606810
30
0.0
10
39.300952
20
39.352560
30
0.0
10
39.382602
20
39.214580
30
0.0
10
39.493187
20
39.090560
30
0.0
10
39.623413
20
39.002660
30
0.0
10
39.648733
20
38.991260
30
0.0
10
39.626513
20
38.286390
30
0.0
10
36.860273
20
39.883710
30
0.0
10
37.066979
20
40.485220
30
0.0
10
37.124859
20
40.928610
30
0.0
10
37.124865
20
40.928690
30
0.0
62
0
0
LWPOLYLINE
100
AcDbPolyline
8
Layer_1
90
41
70
0
10
41.079147
20
39.838830
30
0.0
10
42.988737
20
39.244573
30
0.0
10
43.967087
20
39.088188
30
0.0
10
44.967282
20
39.120010
30
0.0
10
46.999200
20
39.274530
30
0.0
10
49.031115
20
39.120010
30
0.0
10
50.031305
20
39.088181
30
0.0
10
51.009657
20
39.244561
30
0.0
10
52.919252
20
39.838830
30
0.0
10
52.915152
20
39.810930
30
0.0
10
52.878462
20
36.218390
30
0.0
10
52.675373
20
36.122790
30
0.0
10
52.395804
20
35.653560
30
0.0
10
51.926582
20
32.504400
30
0.0
10
51.748816
20
32.470800
30
0.0
10
51.316799
20
32.052740
30
0.0
10
51.313699
20
32.052740
30
0.0
10
50.096201
20
29.725230
30
0.0
10
49.700913
20
29.702246
30
0.0
10
49.364980
20
29.544360
30
0.0
10
47.910806
20
27.728460
30
0.0
10
47.414378
20
27.219953
30
0.0
10
46.999750
20
26.986380
30
0.0
10
46.999750
20
39.117000
30
0.0
10
46.999221
20
39.117000
30
0.0
10
46.999221
20
26.986990
30
0.0
10
46.584597
20
27.220574
30
0.0
10
46.088165
20
27.729070
30
0.0
10
44.633989
20
29.544970
30
0.0
10
44.297804
20
29.702837
30
0.0
10
43.902252
20
29.725840
30
0.0
10
42.684753
20
32.053350
30
0.0
10
42.682153
20
32.053350
30
0.0
10
42.250139
20
32.471410
30
0.0
10
42.072371
20
32.505010
30
0.0
10
41.603148
20
35.654170
30
0.0
10
41.323579
20
36.123400
30
0.0
10
41.119974
20
36.219000
30
0.0
10
41.083804
20
39.811540
30
0.0
10
41.079104
20
39.839440
30
0.0
10
41.079147
20
39.838830
30
0.0
62
0
0
LWPOLYLINE
100
AcDbPolyline
8
Layer_1
90
6
70
0
10
58.219187
20
38.845610
30
0.0
10
59.639771
20
37.977450
30
0.0
10
60.471762
20
37.553700
30
0.0
10
54.352238
20
35.914010
30
0.0
10
54.402368
20
36.642130
30
0.0
10
58.219187
20
38.845610
30
0.0
62
0
0
LWPOLYLINE
100
AcDbPolyline
8
Layer_1
90
7
70
0
10
35.779213
20
38.845080
30
0.0
10
39.596034
20
36.641600
30
0.0
10
39.646154
20
35.913990
30
0.0
10
33.526630
20
37.553690
30
0.0
10
34.358623
20
37.977430
30
0.0
10
35.779208
20
38.845080
30
0.0
10
35.779213
20
38.845080
30
0.0
62
0
0
LWPOLYLINE
100
AcDbPolyline
8
Layer_1
90
5
70
0
10
2.185913
20
32.479060
30
0.0
10
40.522591
20
32.479060
30
0.0
10
40.579951
20
32.223780
30
0.0
10
2.185913
20
21.937070
30
0.0
10
2.185913
20
32.479060
30
0.0
62
0
0
LWPOLYLINE
100
AcDbPolyline
8
Layer_1
90
6
70
0
10
53.475805
20
32.479060
30
0.0
10
91.813000
20
32.479060
30
0.0
10
91.813000
20
21.936550
30
0.0
10
53.418444
20
32.225420
30
0.0
10
53.475804
20
32.479670
30
0.0
10
53.475805
20
32.479060
30
0.0
62
0
0
LWPOLYLINE
100
AcDbPolyline
8
Layer_1
90
6
70
0
10
52.395252
20
31.007320
30
0.0
10
91.813000
20
20.445170
30
0.0
10
91.813000
20
8.155480
30
0.0
10
52.363211
20
30.933000
30
0.0
10
52.395251
20
31.007900
30
0.0
10
52.395252
20
31.007320
30
0.0
62
0
0
LWPOLYLINE
100
AcDbPolyline
8
Layer_1
90
5
70
0
10
41.603144
20
31.006790
30
0.0
10
41.635184
20
30.932390
30
0.0
10
2.185913
20
8.157040
30
0.0
10
2.185913
20
20.445180
30
0.0
10
41.603144
20
31.006790
30
0.0
62
0
0
LWPOLYLINE
100
AcDbPolyline
8
Layer_1
90
6
70
0
10
42.232564
20
29.616180
30
0.0
10
42.288894
20
29.507140
30
0.0
10
14.968079
20
2.186430
30
0.0
10
2.185913
20
2.186430
30
0.0
10
2.185913
20
6.495730
30
0.0
10
42.232564
20
29.616180
30
0.0
62
0
0
LWPOLYLINE
100
AcDbPolyline
8
Layer_1
90
7
70
0
10
51.765832
20
29.616180
30
0.0
10
91.813000
20
6.495110
30
0.0
10
91.813000
20
2.185810
30
0.0
10
79.031350
20
2.185810
30
0.0
10
51.709505
20
29.507760
30
0.0
10
51.765835
20
29.616800
30
0.0
10
51.765832
20
29.616180
30
0.0
62
0
0
LWPOLYLINE
100
AcDbPolyline
8
Layer_1
90
15
70
0
10
43.148787
20
28.330460
30
0.0
10
43.313117
20
28.254460
30
0.0
10
41.674460
20
25.415880
30
0.0
10
40.034902
20
24.536562
30
0.0
10
38.545674
20
23.441041
30
0.0
10
37.227821
20
22.150230
30
0.0
10
36.102388
20
20.685042
30
0.0
10
35.190417
20
19.066391
30
0.0
10
34.512955
20
17.315188
30
0.0
10
34.091045
20
15.452347
30
0.0
10
33.945732
20
13.498780
30
0.0
10
33.945732
20
12.029100
30
0.0
10
28.262874
20
2.185770
30
0.0
10
17.004130
20
2.185770
30
0.0
10
43.148787
20
28.330460
30
0.0
62
0
0
LWPOLYLINE
100
AcDbPolyline
8
Layer_1
90
16
70
0
10
50.849093
20
28.330460
30
0.0
10
76.992720
20
2.185810
30
0.0
10
65.734488
20
2.185810
30
0.0
10
60.052664
20
12.027600
30
0.0
10
60.052664
20
13.498820
30
0.0
10
59.907330
20
15.452537
30
0.0
10
59.485359
20
17.315516
30
0.0
10
58.807801
20
19.066839
30
0.0
10
57.895704
20
20.685586
30
0.0
10
56.770117
20
22.150839
30
0.0
10
55.452089
20
23.441678
30
0.0
10
53.962669
20
24.537185
30
0.0
10
52.322905
20
25.416440
30
0.0
10
50.684761
20
28.254000
30
0.0
10
50.849093
20
28.330500
30
0.0
10
50.849093
20
28.330460
30
0.0
62
0
0
LWPOLYLINE
100
AcDbPolyline
8
Layer_1
90
5
70
0
10
44.491341
20
27.414240
30
0.0
10
44.649988
20
27.213740
30
0.0
10
44.403492
20
26.292860
30
0.0
10
43.759086
20
26.146100
30
0.0
10
44.491341
20
27.414240
30
0.0
62
0
0
LWPOLYLINE
100
AcDbPolyline
8
Layer_1
90
6
70
0
10
49.507571
20
27.414240
30
0.0
10
50.239827
20
26.146100
30
0.0
10
49.595424
20
26.292860
30
0.0
10
49.348409
20
27.214250
30
0.0
10
49.507571
20
27.414240
30
0.0
10
49.507571
20
27.414240
30
0.0
62
0
0
LWPOLYLINE
100
AcDbPolyline
8
Layer_1
90
34
70
0
10
46.999200
20
24.038830
30
0.0
10
49.057249
20
23.835231
30
0.0
10
51.017447
20
23.239591
30
0.0
10
52.824709
20
22.274726
30
0.0
10
54.423952
20
20.963452
30
0.0
10
55.735227
20
19.364209
30
0.0
10
56.700092
20
17.556946
30
0.0
10
57.295732
20
15.596749
30
0.0
10
57.499332
20
13.538700
30
0.0
10
57.295734
20
11.480649
30
0.0
10
56.700095
20
9.520450
30
0.0
10
55.735230
20
7.713187
30
0.0
10
54.423956
20
6.113942
30
0.0
10
52.824712
20
4.802666
30
0.0
10
51.017449
20
3.837800
30
0.0
10
49.057250
20
3.242160
30
0.0
10
46.999200
20
3.038560
30
0.0
10
44.941149
20
3.242159
30
0.0
10
42.980950
20
3.837799
30
0.0
10
41.173686
20
4.802665
30
0.0
10
39.574441
20
6.113940
30
0.0
10
38.263167
20
7.713185
30
0.0
10
37.298302
20
9.520450
30
0.0
10
36.702662
20
11.480649
30
0.0
10
36.499064
20
13.538700
30
0.0
10
36.702664
20
15.596750
30
0.0
10
37.298305
20
17.556947
30
0.0
10
38.263170
20
19.364210
30
0.0
10
39.574445
20
20.963453
30
0.0
10
41.173689
20
22.274727
30
0.0
10
42.980952
20
23.239592
30
0.0
10
44.941150
20
23.835231
30
0.0
10
46.999200
20
24.038830
30
0.0
10
46.999200
20
24.038830
30
0.0
62
0
0
LWPOLYLINE
100
AcDbPolyline
8
Layer_1
90
4
70
0
10
60.052664
20
9.149820
30
0.0
10
64.072574
20
2.186420
30
0.0
10
60.052664
20
2.186420
30
0.0
10
60.052664
20
9.149820
30
0.0
62
0
0
LWPOLYLINE
100
AcDbPolyline
8
Layer_1
90
4
70
0
10
33.945732
20
9.148820
30
0.0
10
33.945732
20
2.186450
30
0.0
10
29.926338
20
2.186450
30
0.0
10
33.945732
20
9.148820
30
0.0
  0
ENDSEC
  0
SECTION
  2
OBJECTS
  0
DICTIONARY
  5
C
330
0
100
AcDbDictionary
  3
ACAD_GROUP
350
D
  3
ACAD_MLINESTYLE
350
17
  0
DICTIONARY
  5
D
330
C
100
AcDbDictionary
  0
DICTIONARY
  5
1A
330
C
100
AcDbDictionary
  0
DICTIONARY
  5
17
330
C
100
AcDbDictionary
  3
STANDARD
350
18
  0
DICTIONARY
  5
19
330
C
100
AcDbDictionary
  0
ENDSEC
  0
EOF
